<svg width="96" height="83" viewBox="0 0 96 83" fill="none" xmlns="http://www.w3.org/2000/svg">
<g clip-path="url(#clip0_2_6)">
<path fill-rule="evenodd" clip-rule="evenodd" d="M52.9793 9.05441L48.5052 13.9698L44.0311 9.05441C42.2976 7.14988 39.8642 6.05078 37.2398 6.05078C32.1702 6.05078 28.0605 10.1605 28.0605 15.23V36.9456C28.0605 42.0151 32.1702 46.1248 37.2398 46.1248C39.8642 46.1248 42.2976 45.0257 44.0311 43.1212L48.5052 38.2058L52.9793 43.1212C54.7128 45.0257 57.1462 46.1248 59.7706 46.1248C64.8401 46.1248 68.9498 42.0151 68.9498 36.9456V15.23C68.9498 10.1605 64.8401 6.05078 59.7706 6.05078C57.1462 6.05078 54.7128 7.14988 52.9793 9.05441Z" stroke="url(#paint0_linear_2_6)" stroke-width="12.0999"/>
<path d="M0.764266 82.8924C0.2866 82.8924 0 82.5939 0 82.0923V66.3293C0 65.7203 0.406017 65.3262 1.01504 65.3262C1.56436 65.3262 1.88678 65.5889 2.13756 66.1741L8.26363 80.5757H8.33528L14.4375 66.1741C14.6882 65.5889 15.0346 65.3262 15.5839 65.3262C16.1929 65.3262 16.5989 65.7203 16.5989 66.3293V82.0923C16.5989 82.5939 16.3123 82.8924 15.8346 82.8924C15.357 82.8924 15.0704 82.5939 15.0704 82.0923V68.5863H14.9987L9.29061 81.961C9.07566 82.4625 8.77712 82.6775 8.29945 82.6775C7.82179 82.6775 7.5113 82.4625 7.3083 81.9848L1.60018 68.5863H1.52853V82.0923C1.52853 82.5939 1.22999 82.8924 0.764266 82.8924ZM31.0284 82.9999C26.2279 82.9999 23.2066 79.5726 23.2066 74.1153C23.2066 68.6579 26.2279 65.2188 31.0284 65.2188C35.829 65.2188 38.8621 68.6579 38.8621 74.1153C38.8621 79.5726 35.8409 82.9999 31.0284 82.9999ZM31.0284 81.4833C34.802 81.4833 37.1903 78.6292 37.1903 74.1153C37.1903 69.5894 34.802 66.7353 31.0284 66.7353C27.2549 66.7353 24.8785 69.5894 24.8785 74.1153C24.8785 78.6292 27.2549 81.4833 31.0284 81.4833ZM46.27 82.8924C45.7803 82.8924 45.4699 82.57 45.4699 82.0445V66.2696C45.4699 65.6964 45.8401 65.3262 46.4013 65.3262C46.8312 65.3262 47.0581 65.4576 47.3447 65.8755L57.1846 79.8831H57.2682V66.1741C57.2682 65.6486 57.5787 65.3262 58.0803 65.3262C58.5699 65.3262 58.8803 65.6486 58.8803 66.1741V82.0207C58.8803 82.57 58.546 82.8924 57.9847 82.8924C57.5548 82.8924 57.3518 82.7849 57.0652 82.3789L47.1656 68.3236H47.082V82.0445C47.082 82.57 46.7715 82.8924 46.27 82.8924ZM66.9927 82.7252C66.4912 82.7252 66.1807 82.4028 66.1807 81.8774V66.3413C66.1807 65.8158 66.4912 65.4934 66.9927 65.4934H75.9609C76.4266 65.4934 76.7491 65.7919 76.7491 66.2338C76.7491 66.6637 76.4266 66.9742 75.9609 66.9742H67.8047V73.1719H75.531C75.9967 73.1719 76.3072 73.4704 76.3072 73.9003C76.3072 74.3302 75.9967 74.6288 75.531 74.6288H67.8047V81.2445H75.9609C76.4266 81.2445 76.7491 81.5549 76.7491 81.9848C76.7491 82.4267 76.4266 82.7252 75.9609 82.7252H66.9927ZM89.1127 82.8924C88.6111 82.8924 88.2887 82.57 88.2887 82.0445V75.2736L82.5209 66.592C82.3895 66.389 82.3537 66.2338 82.3537 66.0427C82.3537 65.6367 82.7 65.3262 83.1418 65.3262C83.4762 65.3262 83.6673 65.4456 83.8703 65.7561L89.0768 73.6734H89.1365L94.3431 65.7561C94.5461 65.4456 94.7372 65.3262 95.0715 65.3262C95.5134 65.3262 95.8597 65.6367 95.8597 66.0427C95.8597 66.2338 95.8119 66.389 95.6806 66.592L89.9247 75.2736V82.0445C89.9247 82.57 89.6023 82.8924 89.1127 82.8924Z" fill="#1D1D1D"/>
<path d="M0.764266 82.8924C0.2866 82.8924 0 82.5939 0 82.0923V66.3293C0 65.7203 0.406017 65.3262 1.01504 65.3262C1.56436 65.3262 1.88678 65.5889 2.13756 66.1741L8.26363 80.5757H8.33528L14.4375 66.1741C14.6882 65.5889 15.0346 65.3262 15.5839 65.3262C16.1929 65.3262 16.5989 65.7203 16.5989 66.3293V82.0923C16.5989 82.5939 16.3123 82.8924 15.8346 82.8924C15.357 82.8924 15.0704 82.5939 15.0704 82.0923V68.5863H14.9987L9.29061 81.961C9.07566 82.4625 8.77712 82.6775 8.29945 82.6775C7.82179 82.6775 7.5113 82.4625 7.3083 81.9848L1.60018 68.5863H1.52853V82.0923C1.52853 82.5939 1.22999 82.8924 0.764266 82.8924ZM31.0284 82.9999C26.2279 82.9999 23.2066 79.5726 23.2066 74.1153C23.2066 68.6579 26.2279 65.2188 31.0284 65.2188C35.829 65.2188 38.8621 68.6579 38.8621 74.1153C38.8621 79.5726 35.8409 82.9999 31.0284 82.9999ZM31.0284 81.4833C34.802 81.4833 37.1903 78.6292 37.1903 74.1153C37.1903 69.5894 34.802 66.7353 31.0284 66.7353C27.2549 66.7353 24.8785 69.5894 24.8785 74.1153C24.8785 78.6292 27.2549 81.4833 31.0284 81.4833ZM46.27 82.8924C45.7803 82.8924 45.4699 82.57 45.4699 82.0445V66.2696C45.4699 65.6964 45.8401 65.3262 46.4013 65.3262C46.8312 65.3262 47.0581 65.4576 47.3447 65.8755L57.1846 79.8831H57.2682V66.1741C57.2682 65.6486 57.5787 65.3262 58.0803 65.3262C58.5699 65.3262 58.8803 65.6486 58.8803 66.1741V82.0207C58.8803 82.57 58.546 82.8924 57.9847 82.8924C57.5548 82.8924 57.3518 82.7849 57.0652 82.3789L47.1656 68.3236H47.082V82.0445C47.082 82.57 46.7715 82.8924 46.27 82.8924ZM66.9927 82.7252C66.4912 82.7252 66.1807 82.4028 66.1807 81.8774V66.3413C66.1807 65.8158 66.4912 65.4934 66.9927 65.4934H75.9609C76.4266 65.4934 76.7491 65.7919 76.7491 66.2338C76.7491 66.6637 76.4266 66.9742 75.9609 66.9742H67.8047V73.1719H75.531C75.9967 73.1719 76.3072 73.4704 76.3072 73.9003C76.3072 74.3302 75.9967 74.6288 75.531 74.6288H67.8047V81.2445H75.9609C76.4266 81.2445 76.7491 81.5549 76.7491 81.9848C76.7491 82.4267 76.4266 82.7252 75.9609 82.7252H66.9927ZM89.1127 82.8924C88.6111 82.8924 88.2887 82.57 88.2887 82.0445V75.2736L82.5209 66.592C82.3895 66.389 82.3537 66.2338 82.3537 66.0427C82.3537 65.6367 82.7 65.3262 83.1418 65.3262C83.4762 65.3262 83.6673 65.4456 83.8703 65.7561L89.0768 73.6734H89.1365L94.3431 65.7561C94.5461 65.4456 94.7372 65.3262 95.0715 65.3262C95.5134 65.3262 95.8597 65.6367 95.8597 66.0427C95.8597 66.2338 95.8119 66.389 95.6806 66.592L89.9247 75.2736V82.0445C89.9247 82.57 89.6023 82.8924 89.1127 82.8924Z" fill="url(#paint1_linear_2_6)"/>
</g>
<defs>
<linearGradient id="paint0_linear_2_6" x1="14.8236" y1="2.34111" x2="75.8444" y2="48.1447" gradientUnits="userSpaceOnUse">
<stop stop-color="#00DBDE"/>
<stop offset="1" stop-color="#F407FE"/>
</linearGradient>
<linearGradient id="paint1_linear_2_6" x1="-5.19434" y1="73.6708" x2="107.679" y2="94.6119" gradientUnits="userSpaceOnUse">
<stop stop-color="#C432F8"/>
<stop offset="1" stop-color="#42A2E7"/>
</linearGradient>
<clipPath id="clip0_2_6">
<rect width="96" height="83" fill="white"/>
</clipPath>
</defs>
</svg>
