<svg width="18" height="17" viewBox="0 0 18 17" fill="none" xmlns="http://www.w3.org/2000/svg">
<g clip-path="url(#clip0_11_132)">
<path d="M9 3C5.56091 3 2.44216 5.10432 0.140841 8.52231C-0.0469469 8.80233 -0.0469469 9.19355 0.140841 9.47358C2.44216 12.8957 5.56091 15 9 15C12.4391 15 15.5578 12.8957 17.8592 9.47769C18.0469 9.19767 18.0469 8.80645 17.8592 8.52642C15.5578 5.10432 12.4391 3 9 3ZM9.2467 13.2251C6.96379 13.3857 5.07855 11.2814 5.22215 8.72409C5.33998 6.61565 6.86806 4.90666 8.7533 4.77488C11.0362 4.61428 12.9214 6.7186 12.7778 9.27591C12.6563 11.3802 11.1283 13.0892 9.2467 13.2251ZM9.13256 11.2732C7.90273 11.3596 6.88647 10.2272 6.96747 8.85175C7.03007 7.71517 7.85486 6.79684 8.87113 6.72272C10.101 6.63624 11.1172 7.7687 11.0362 9.14413C10.9699 10.2848 10.1451 11.2032 9.13256 11.2732Z" fill="#292929"/>
<path d="M1.57129 1.57031L15.9036 15.9026" stroke="#292929" stroke-width="1.5" stroke-linecap="square"/>
</g>
<defs>
<clipPath id="clip0_11_132">
<rect width="18" height="17" fill="white"/>
</clipPath>
</defs>
</svg>
