<svg width="26" height="21" viewBox="0 0 26 21" fill="none" xmlns="http://www.w3.org/2000/svg">
<g clip-path="url(#clip0_19_718)">
<path d="M0.486328 10.8125C0.486328 11.0722 0.595703 11.3046 0.800781 11.496L10.002 20.7246C10.207 20.916 10.4258 21.0117 10.6719 21.0117C11.1914 21.0117 11.5879 20.6289 11.5879 20.1093C11.5879 19.8632 11.4922 19.6171 11.3418 19.4531L7.24023 15.3242L3.20703 11.5781L6.37891 11.7285H24.9727C25.4922 11.7285 25.875 11.3457 25.875 10.8125C25.875 10.2792 25.4922 9.89649 24.9727 9.89649H6.37891L3.20703 10.0468L7.24023 6.30078L11.3418 2.17188C11.5059 1.99414 11.5879 1.76172 11.5879 1.51563C11.5879 0.996094 11.1914 0.613281 10.6719 0.613281C10.4258 0.613281 10.1934 0.708985 9.93359 0.96875L0.800781 10.1289C0.595703 10.3203 0.486328 10.5527 0.486328 10.8125Z" fill="white"/>
</g>
<defs>
<clipPath id="clip0_19_718">
<rect width="26" height="21" fill="white"/>
</clipPath>
</defs>
</svg>
