<svg width="318" height="371" viewBox="0 0 318 371" fill="none" xmlns="http://www.w3.org/2000/svg">
<path d="M177.278 -76.7139C206.44 -108.534 221.021 -124.444 237.018 -133.463C269.104 -151.554 307.896 -153.245 341.434 -138.015C358.156 -130.421 374.066 -115.84 405.886 -86.6784L442.953 -52.708C476.401 -22.0541 493.125 -6.72712 502.34 10.2496C519.291 41.4751 520.916 78.7671 506.747 111.349C499.043 129.063 483.716 145.787 453.063 179.235L387.816 250.429C336.567 306.35 244.525 289.726 216.076 219.411L214.951 216.632C203.712 188.852 180.272 167.822 151.441 159.649C81.9369 139.948 57.5413 53.9367 106.351 0.677553L177.278 -76.7139Z" fill="#B52FF8"/>
<path d="M177.426 -109.019C185.753 -117.759 189.917 -122.129 193.753 -125.502C235.747 -162.417 298.16 -163.928 341.889 -129.086C345.885 -125.903 350.255 -121.74 358.994 -113.413L415.46 -59.6155C423.267 -52.1779 427.17 -48.4592 430.214 -45.0614C468.075 -2.80494 469.611 60.7013 433.839 104.74C430.963 108.281 427.244 112.184 419.806 119.99L374.212 167.846C329.832 214.427 251.927 197.863 230.338 137.255C221.302 111.886 200.948 92.1855 175.298 83.9807L173.408 83.3763C109.877 63.0541 89.5035 -16.7354 135.514 -65.0284L177.426 -109.019Z" fill="#40CEF2"/>
</svg>
