<svg width="40" height="33" viewBox="0 0 40 33" fill="none" xmlns="http://www.w3.org/2000/svg">
<path d="M27.2954 25.0467C34.1696 25.0467 39.7422 19.4398 39.7422 12.5233C39.7422 5.60689 34.1696 0 27.2954 0C20.4212 0 14.8486 5.60689 14.8486 12.5233C14.8486 19.4398 20.4212 25.0467 27.2954 25.0467Z" fill="#F99600"/>
<path d="M13.2925 25.0467C20.1667 25.0467 25.7393 19.4398 25.7393 12.5233C25.7393 5.60689 20.1667 0 13.2925 0C6.41832 0 0.845703 5.60689 0.845703 12.5233C0.845703 19.4398 6.41832 25.0467 13.2925 25.0467Z" fill="#EC000A"/>
<path fill-rule="evenodd" clip-rule="evenodd" d="M20.2941 22.8794C17.0069 20.6253 14.8486 16.8281 14.8486 12.5237C14.8486 8.21932 17.0069 4.42213 20.2941 2.16797C23.5812 4.42213 25.7396 8.21932 25.7396 12.5237C25.7396 16.8281 23.5812 20.6253 20.2941 22.8794Z" fill="#FF5300"/>
<path d="M3.57538 26.6512L3.59277 27.0686C3.86867 26.744 4.24077 26.5817 4.7091 26.5817C5.23538 26.5817 5.59358 26.7834 5.7837 27.1868C5.90889 27.006 6.07118 26.8599 6.27057 26.7486C6.47227 26.6373 6.70991 26.5817 6.98349 26.5817C7.80885 26.5817 8.22849 27.0187 8.2424 27.8928V30.4141H7.59903V27.931C7.59903 27.6621 7.53759 27.4615 7.41472 27.3294C7.29184 27.1949 7.0855 27.1277 6.79569 27.1277C6.55689 27.1277 6.35867 27.1995 6.20101 27.3433C6.04336 27.4847 5.95178 27.676 5.92628 27.9171V30.4141H5.27944V27.9484C5.27944 27.4013 5.01166 27.1277 4.4761 27.1277C4.05414 27.1277 3.76549 27.3074 3.61016 27.6667V30.4141H2.96679V26.6512H3.57538ZM11.5392 30.4141C11.5021 30.3399 11.472 30.2077 11.4488 30.0176C11.1497 30.3283 10.7927 30.4836 10.3777 30.4836C10.0067 30.4836 9.70186 30.3793 9.46306 30.1706C9.22658 29.9596 9.10834 29.693 9.10834 29.3708C9.10834 28.9789 9.25672 28.6752 9.55348 28.4596C9.85255 28.2417 10.2722 28.1327 10.8124 28.1327H11.4384V27.8371C11.4384 27.6122 11.3711 27.4337 11.2367 27.3016C11.1022 27.1671 10.904 27.0999 10.642 27.0999C10.4125 27.0999 10.22 27.1578 10.0647 27.2737C9.90936 27.3897 9.83169 27.5299 9.83169 27.6945H9.18484C9.18484 27.5067 9.25092 27.3259 9.38307 27.152C9.51754 26.9758 9.69838 26.8367 9.92559 26.7347C10.1551 26.6327 10.4067 26.5817 10.6802 26.5817C11.1138 26.5817 11.4534 26.6907 11.6992 26.9086C11.9449 27.1242 12.0725 27.4221 12.0817 27.8023V29.5342C12.0817 29.8797 12.1258 30.1544 12.2139 30.3584V30.4141H11.5392ZM10.4716 29.9237C10.6733 29.9237 10.8646 29.8715 11.0454 29.7672C11.2262 29.6629 11.3572 29.5273 11.4384 29.3603V28.5883H10.9341C10.1458 28.5883 9.7517 28.819 9.7517 29.2803C9.7517 29.4821 9.81894 29.6397 9.95341 29.7533C10.0879 29.8669 10.2606 29.9237 10.4716 29.9237ZM15.2812 29.416C15.2812 29.2421 15.2151 29.1076 15.083 29.0126C14.9531 28.9152 14.7248 28.8317 14.3979 28.7622C14.0733 28.6926 13.8148 28.6092 13.6223 28.5118C13.4322 28.4144 13.2908 28.2985 13.1981 28.164C13.1076 28.0295 13.0624 27.8696 13.0624 27.6841C13.0624 27.3757 13.1923 27.1149 13.4519 26.9016C13.7139 26.6883 14.0478 26.5817 14.4535 26.5817C14.8801 26.5817 15.2255 26.6918 15.4898 26.9121C15.7565 27.1323 15.8898 27.414 15.8898 27.7571H15.2429C15.2429 27.5809 15.1676 27.4291 15.0169 27.3016C14.8685 27.174 14.6807 27.1103 14.4535 27.1103C14.2193 27.1103 14.0362 27.1613 13.904 27.2633C13.7719 27.3653 13.7058 27.4986 13.7058 27.6632C13.7058 27.8186 13.7672 27.9357 13.8901 28.0145C14.013 28.0933 14.2344 28.1687 14.5543 28.2405C14.8766 28.3124 15.1374 28.3982 15.3368 28.4979C15.5362 28.5976 15.6834 28.7181 15.7785 28.8595C15.8759 28.9987 15.9245 29.1691 15.9245 29.3708C15.9245 29.7069 15.7901 29.977 15.5211 30.1811C15.2522 30.3828 14.9033 30.4836 14.4744 30.4836C14.173 30.4836 13.9063 30.4303 13.6745 30.3236C13.4427 30.217 13.2607 30.0686 13.1285 29.8785C12.9987 29.6861 12.9338 29.4786 12.9338 29.256H13.5771C13.5887 29.4716 13.6745 29.6432 13.8345 29.7707C13.9968 29.8959 14.2101 29.9585 14.4744 29.9585C14.7178 29.9585 14.9125 29.9098 15.0586 29.8124C15.207 29.7127 15.2812 29.5806 15.2812 29.416ZM17.6356 25.7401V26.6512H18.338V27.1485H17.6356V29.4821C17.6356 29.6327 17.6669 29.7464 17.7294 29.8229C17.792 29.8971 17.8987 29.9341 18.0494 29.9341C18.1236 29.9341 18.2256 29.9202 18.3554 29.8924V30.4141C18.1862 30.4604 18.0216 30.4836 17.8616 30.4836C17.5741 30.4836 17.3573 30.3967 17.2113 30.2228C17.0652 30.0489 16.9922 29.802 16.9922 29.4821V27.1485H16.3071V26.6512H16.9922V25.7401H17.6356ZM20.6542 30.4836C20.1441 30.4836 19.7291 30.3167 19.4092 29.9828C19.0892 29.6467 18.9292 29.198 18.9292 28.637V28.5187C18.9292 28.1455 19 27.8128 19.1414 27.5207C19.2851 27.2262 19.4845 26.9967 19.7395 26.8321C19.9969 26.6651 20.2751 26.5817 20.5742 26.5817C21.0634 26.5817 21.4436 26.7428 21.7148 27.0651C21.9861 27.3873 22.1217 27.8487 22.1217 28.4492V28.717H19.5726C19.5819 29.0879 19.6897 29.3882 19.896 29.6177C20.1047 29.8449 20.369 29.9585 20.6889 29.9585C20.9161 29.9585 21.1086 29.9121 21.2662 29.8194C21.4239 29.7266 21.5618 29.6038 21.6801 29.4508L22.073 29.7568C21.7577 30.2413 21.2848 30.4836 20.6542 30.4836ZM20.5742 27.1103C20.3145 27.1103 20.0966 27.2053 19.9204 27.3955C19.7442 27.5832 19.6352 27.8476 19.5935 28.1884H21.4784V28.1397C21.4598 27.8128 21.3717 27.5601 21.2141 27.3815C21.0564 27.2007 20.8431 27.1103 20.5742 27.1103ZM24.6882 27.2285C24.5909 27.2123 24.4854 27.2042 24.3718 27.2042C23.9498 27.2042 23.6635 27.3839 23.5128 27.7432V30.4141H22.8694V26.6512H23.4954L23.5058 27.0859C23.7168 26.7498 24.0159 26.5817 24.4031 26.5817C24.5283 26.5817 24.6233 26.5979 24.6882 26.6304V27.2285ZM26.7227 29.9585C26.9522 29.9585 27.1527 29.8889 27.3243 29.7498C27.4959 29.6107 27.5909 29.4368 27.6095 29.2282H28.2181C28.2065 29.4438 28.1323 29.649 27.9955 29.8437C27.8587 30.0385 27.6755 30.1938 27.446 30.3097C27.2188 30.4257 26.9777 30.4836 26.7227 30.4836C26.2103 30.4836 25.8023 30.3132 25.4985 29.9724C25.1971 29.6293 25.0464 29.1609 25.0464 28.5674V28.4596C25.0464 28.0933 25.1137 27.7676 25.2481 27.4824C25.3826 27.1972 25.575 26.9758 25.8254 26.8182C26.0781 26.6605 26.3761 26.5817 26.7192 26.5817C27.1411 26.5817 27.4912 26.708 27.7694 26.9607C28.05 27.2135 28.1995 27.5415 28.2181 27.9449H27.6095C27.5909 27.7015 27.4982 27.5021 27.3313 27.3468C27.1667 27.1891 26.9626 27.1103 26.7192 27.1103C26.3923 27.1103 26.1384 27.2285 25.9576 27.465C25.7791 27.6992 25.6898 28.0388 25.6898 28.484V28.6057C25.6898 29.0392 25.7791 29.3731 25.9576 29.6072C26.1361 29.8414 26.3911 29.9585 26.7227 29.9585ZM31.2645 30.4141C31.2274 30.3399 31.1973 30.2077 31.1741 30.0176C30.875 30.3283 30.518 30.4836 30.103 30.4836C29.732 30.4836 29.4271 30.3793 29.1883 30.1706C28.9518 29.9596 28.8336 29.693 28.8336 29.3708C28.8336 28.9789 28.982 28.6752 29.2787 28.4596C29.5778 28.2417 29.9975 28.1327 30.5377 28.1327H31.1636V27.8371C31.1636 27.6122 31.0964 27.4337 30.9619 27.3016C30.8275 27.1671 30.6292 27.0999 30.3673 27.0999C30.1377 27.0999 29.9453 27.1578 29.79 27.2737C29.6346 27.3897 29.557 27.5299 29.557 27.6945H28.9101C28.9101 27.5067 28.9762 27.3259 29.1083 27.152C29.2428 26.9758 29.4237 26.8367 29.6509 26.7347C29.8804 26.6327 30.1319 26.5817 30.4055 26.5817C30.8391 26.5817 31.1787 26.6907 31.4245 26.9086C31.6702 27.1242 31.7977 27.4221 31.807 27.8023V29.5342C31.807 29.8797 31.8511 30.1544 31.9392 30.3584V30.4141H31.2645ZM30.1969 29.9237C30.3986 29.9237 30.5898 29.8715 30.7707 29.7672C30.9515 29.6629 31.0825 29.5273 31.1636 29.3603V28.5883H30.6594C29.8711 28.5883 29.477 28.819 29.477 29.2803C29.477 29.4821 29.5442 29.6397 29.6787 29.7533C29.8131 29.8669 29.9859 29.9237 30.1969 29.9237ZM34.6343 27.2285C34.537 27.2123 34.4315 27.2042 34.3179 27.2042C33.8959 27.2042 33.6096 27.3839 33.4589 27.7432V30.4141H32.8155V26.6512H33.4415L33.4519 27.0859C33.6629 26.7498 33.962 26.5817 34.3492 26.5817C34.4744 26.5817 34.5694 26.5979 34.6343 26.6304V27.2285ZM35.003 28.5014C35.003 27.9241 35.1398 27.4604 35.4133 27.1103C35.6869 26.7579 36.0451 26.5817 36.4879 26.5817C36.9284 26.5817 37.2774 26.7324 37.5347 27.0338V25.0724H38.1781V30.4141H37.5869L37.5556 30.0107C37.2982 30.326 36.94 30.4836 36.481 30.4836C36.0451 30.4836 35.6892 30.3051 35.4133 29.9481C35.1398 29.591 35.003 29.125 35.003 28.55V28.5014ZM35.6463 28.5744C35.6463 29.001 35.7344 29.3348 35.9106 29.5759C36.0868 29.8171 36.3303 29.9376 36.641 29.9376C37.049 29.9376 37.3469 29.7545 37.5347 29.3882V27.6598C37.3423 27.305 37.0467 27.1277 36.6479 27.1277C36.3326 27.1277 36.0868 27.2494 35.9106 27.4928C35.7344 27.7363 35.6463 28.0968 35.6463 28.5744Z" fill="white"/>
</svg>
