<svg width="250" height="164" viewBox="0 0 250 164" fill="none" xmlns="http://www.w3.org/2000/svg">
<path d="M0 4.5C0 2.01472 2.01472 0 4.5 0C6.98528 0 9 2.01472 9 4.5V120.53H0V4.5Z" fill="#2D99FF"/>
<path d="M13 147.645C13 150.13 15.0147 152.145 17.5 152.145C19.9853 152.145 22 150.13 22 147.645V120.53H13V147.645Z" fill="#A5F3FF"/>
<path d="M38 26.2344C38 23.7491 40.0147 21.7344 42.5 21.7344C44.9853 21.7344 47 23.7491 47 26.2344V120.53H38V26.2344Z" fill="#2D99FF"/>
<path d="M51 138.754C51 141.239 53.0147 143.254 55.5 143.254C57.9853 143.254 60 141.239 60 138.754V120.531H51V138.754Z" fill="#A5F3FF"/>
<path d="M76 37.1016C76 34.6163 78.0147 32.6016 80.5 32.6016C82.9853 32.6016 85 34.6163 85 37.1016V120.529H76V37.1016Z" fill="#2D99FF"/>
<path d="M89 130.848C89 133.333 91.0147 135.348 93.5 135.348C95.9853 135.348 98 133.333 98 130.848V120.528H89V130.848Z" fill="#A5F3FF"/>
<path d="M114 64.7656C114 62.2803 116.015 60.2656 118.5 60.2656C120.985 60.2656 123 62.2803 123 64.7656V120.531H114V64.7656Z" fill="#2D99FF"/>
<path d="M127 122.945C127 125.431 129.015 127.445 131.5 127.445C133.985 127.445 136 125.431 136 122.945V120.53H127V122.945Z" fill="#A5F3FF"/>
<path d="M152 159.5C152 161.985 154.015 164 156.5 164C158.985 164 161 161.985 161 159.5V120.53H152V159.5Z" fill="#2D99FF"/>
<path d="M165 98.3555C165 95.8702 167.015 93.8555 169.5 93.8555C171.985 93.8555 174 95.8702 174 98.3555V120.53H165V98.3555Z" fill="#A5F3FF"/>
<path d="M190 130.848C190 133.333 192.015 135.348 194.5 135.348C196.985 135.348 199 133.333 199 130.848V120.528H190V130.848Z" fill="#2D99FF"/>
<path d="M203 55.8711C203 53.3858 205.015 51.3711 207.5 51.3711C209.985 51.3711 212 53.3858 212 55.8711V120.528H203V55.8711Z" fill="#A5F3FF"/>
<path d="M228 125.91C228 128.395 230.015 130.41 232.5 130.41C234.985 130.41 237 128.395 237 125.91V120.531H228V125.91Z" fill="#2D99FF"/>
<path d="M241 18.332C241 15.8468 243.015 13.832 245.5 13.832C247.985 13.832 250 15.8467 250 18.332V120.531H241V18.332Z" fill="#A5F3FF"/>
</svg>
