<svg width="246" height="203" viewBox="0 0 246 203" fill="none" xmlns="http://www.w3.org/2000/svg">
<g clip-path="url(#clip0_49_799)">
<path d="M46.1836 157.366C46.1836 157.366 137.317 81.3079 189.804 157.366H46.1836Z" fill="#F2F2F2"/>
<path d="M195.728 202.929C219.04 202.929 237.937 199.984 237.937 196.351C237.937 192.719 219.04 189.773 195.728 189.773C172.417 189.773 153.52 192.719 153.52 196.351C153.52 199.984 172.417 202.929 195.728 202.929Z" fill="#F2F2F2"/>
<path d="M202.58 200.465C225.891 200.465 244.789 197.52 244.789 193.887C244.789 190.254 225.891 187.309 202.58 187.309C179.269 187.309 160.371 190.254 160.371 193.887C160.371 197.52 179.269 200.465 202.58 200.465Z" stroke="#3F3D56" stroke-width="0.653417"/>
<path d="M220.53 125.831C222.229 126.448 224.132 125.926 225.277 124.527C226.423 123.128 226.559 121.159 225.619 119.615C224.678 118.072 222.865 117.291 221.097 117.668L221.203 119.859L220.167 117.981C219.15 118.459 218.364 119.321 217.982 120.379C217.847 120.749 217.764 121.136 217.737 121.53C217.603 123.426 218.743 125.182 220.53 125.831Z" fill="#57B894"/>
<path d="M225.658 151.241C225.292 149.378 226.878 147.726 228.444 146.652C230.01 145.579 231.839 144.524 232.374 142.702C233.142 140.084 230.854 137.686 229.074 135.618C227.753 134.083 226.619 132.397 225.695 130.596C225.293 129.888 225.02 129.115 224.887 128.312C224.746 127.152 225.119 125.997 225.495 124.889C226.746 121.201 228.084 117.544 229.509 113.918" stroke="#3F3D56" stroke-width="0.653417"/>
<path fill-rule="evenodd" clip-rule="evenodd" d="M220.705 125.268C222.404 125.886 224.307 125.363 225.452 123.964C226.597 122.566 226.734 120.596 225.793 119.053C224.853 117.51 223.04 116.729 221.272 117.106L221.378 119.296L220.342 117.419C219.325 117.897 218.539 118.759 218.157 119.816C218.021 120.186 217.939 120.574 217.912 120.967C217.778 122.864 218.918 124.619 220.705 125.268Z" stroke="#3F3D56" stroke-width="0.653417"/>
<path d="M225.137 113.159C225.631 111.796 226.786 110.778 228.201 110.46L228.551 112.543L229.201 110.355C231.052 110.383 232.673 111.604 233.21 113.375C233.748 115.147 233.078 117.062 231.555 118.114C230.031 119.165 228.002 119.11 226.537 117.979C225.072 116.848 224.506 114.899 225.137 113.159H225.137Z" fill="#57B894"/>
<path fill-rule="evenodd" clip-rule="evenodd" d="M225.372 112.409C225.866 111.046 227.021 110.029 228.435 109.71L228.786 111.793L229.435 109.605C231.286 109.633 232.907 110.854 233.445 112.625C233.982 114.397 233.313 116.312 231.789 117.364C230.265 118.415 228.237 118.36 226.771 117.229C225.306 116.098 224.74 114.149 225.372 112.409H225.372Z" stroke="#3F3D56" stroke-width="0.653417"/>
<path d="M228.326 135.659C230.36 136.397 232.624 135.491 233.588 133.554C234.551 131.617 233.908 129.265 232.093 128.088L231.594 129.769L231.24 127.662C231.236 127.66 231.233 127.659 231.229 127.658C229.799 127.139 228.202 127.422 227.038 128.401C225.875 129.38 225.321 130.905 225.587 132.402C225.853 133.899 226.897 135.141 228.326 135.659H228.326Z" fill="#57B894"/>
<path fill-rule="evenodd" clip-rule="evenodd" d="M228.529 134.897C230.563 135.635 232.827 134.73 233.791 132.792C234.754 130.855 234.111 128.503 232.296 127.326L231.797 129.007L231.443 126.9C231.439 126.898 231.436 126.897 231.432 126.896C230.003 126.377 228.405 126.661 227.241 127.639C226.078 128.618 225.525 130.143 225.79 131.64C226.056 133.137 227.1 134.379 228.529 134.897L228.529 134.897Z" stroke="#3F3D56" stroke-width="0.653417"/>
<path d="M223.895 142.725C224.244 144.706 225.932 146.172 227.942 146.24C229.952 146.308 231.735 144.958 232.216 143.005C232.696 141.052 231.743 139.029 229.931 138.156C228.119 137.283 225.943 137.799 224.716 139.392L226.612 142.246L224.021 140.731C223.82 141.376 223.777 142.06 223.895 142.725Z" fill="#57B894"/>
<path fill-rule="evenodd" clip-rule="evenodd" d="M224.071 142.162C224.419 144.143 226.107 145.61 228.118 145.678C230.128 145.745 231.911 144.396 232.392 142.443C232.872 140.489 231.919 138.467 230.107 137.594C228.295 136.721 226.119 137.236 224.891 138.83L226.788 141.684L224.197 140.169C223.996 140.814 223.953 141.497 224.071 142.162Z" stroke="#3F3D56" stroke-width="0.653417"/>
<path d="M219.749 153.765C219.749 153.765 223.505 152.293 224.637 151.487C225.769 150.681 230.414 149.718 230.695 151.011C230.976 152.304 236.339 157.44 232.099 157.474C227.859 157.508 222.246 158.17 221.117 157.482C219.987 156.794 219.749 153.765 219.749 153.765Z" fill="#656380"/>
<path opacity="0.2" d="M232.174 157.022C227.934 157.057 222.322 157.718 221.192 157.03C220.332 156.506 219.989 154.625 219.874 153.758C219.795 153.761 219.749 153.763 219.749 153.763C219.749 153.763 219.987 156.792 221.117 157.48C222.246 158.168 227.859 157.507 232.099 157.472C233.323 157.462 233.746 157.027 233.722 156.382C233.552 156.772 233.085 157.015 232.174 157.022Z" fill="black"/>
<path d="M52.2808 114.195H51.3224C47.0459 114.195 43.5791 117.662 43.5791 121.939V149.757C43.5791 154.034 47.0459 157.501 51.3224 157.501H52.2808C56.5573 157.501 60.0241 154.034 60.0241 149.757V121.939C60.0241 117.662 56.5573 114.195 52.2808 114.195Z" fill="#2A46FF"/>
<path d="M83.5269 88.1602H82.5685C78.292 88.1602 74.8252 91.627 74.8252 95.9035V149.76C74.8252 154.037 78.292 157.503 82.5685 157.503H83.5269C87.8034 157.503 91.2702 154.037 91.2702 149.76V95.9035C91.2702 91.627 87.8034 88.1602 83.5269 88.1602Z" fill="#2A46FF"/>
<path d="M114.772 70.0703H113.814C109.537 70.0703 106.07 73.5371 106.07 77.8136V149.76C106.07 154.036 109.537 157.503 113.814 157.503H114.772C119.049 157.503 122.515 154.036 122.515 149.76V77.8136C122.515 73.5371 119.049 70.0703 114.772 70.0703Z" fill="#2A46FF"/>
<path d="M146.018 52.8008H145.06C140.783 52.8008 137.316 56.2676 137.316 60.5441V149.758C137.316 154.034 140.783 157.501 145.06 157.501H146.018C150.295 157.501 153.761 154.034 153.761 149.758V60.5441C153.761 56.2676 150.295 52.8008 146.018 52.8008Z" fill="#2A46FF"/>
<path d="M177.263 22.6523H176.305C172.028 22.6523 168.562 26.1191 168.562 30.3957V149.758C168.562 154.035 172.028 157.502 176.305 157.502H177.263C181.54 157.502 185.007 154.035 185.007 149.758V30.3957C185.007 26.1191 181.54 22.6523 177.263 22.6523Z" fill="#2A46FF"/>
<path d="M54.4742 112.004H53.5158C49.2393 112.004 45.7725 115.471 45.7725 119.747V147.566C45.7725 151.842 49.2393 155.309 53.5158 155.309H54.4742C58.7507 155.309 62.2175 151.842 62.2175 147.566V119.747C62.2175 115.471 58.7507 112.004 54.4742 112.004Z" stroke="#3F3D56" stroke-width="0.653417"/>
<path d="M85.7193 85.9648H84.7609C80.4844 85.9648 77.0176 89.4316 77.0176 93.7082V147.565C77.0176 151.841 80.4844 155.308 84.7609 155.308H85.7193C89.9958 155.308 93.4626 151.841 93.4626 147.565V93.7082C93.4626 89.4316 89.9958 85.9648 85.7193 85.9648Z" stroke="#3F3D56" stroke-width="0.653417"/>
<path d="M116.965 67.875H116.007C111.73 67.875 108.264 71.3418 108.264 75.6183V147.565C108.264 151.841 111.73 155.308 116.007 155.308H116.965C121.242 155.308 124.709 151.841 124.709 147.565V75.6183C124.709 71.3418 121.242 67.875 116.965 67.875Z" stroke="#3F3D56" stroke-width="0.653417"/>
<path d="M148.211 50.6094H147.252C142.976 50.6094 139.509 54.0762 139.509 58.3527V147.566C139.509 151.843 142.976 155.31 147.252 155.31H148.211C152.487 155.31 155.954 151.843 155.954 147.566V58.3527C155.954 54.0762 152.487 50.6094 148.211 50.6094Z" stroke="#3F3D56" stroke-width="0.653417"/>
<path d="M179.457 20.4609H178.498C174.222 20.4609 170.755 23.9277 170.755 28.2043V147.567C170.755 151.844 174.222 155.31 178.498 155.31H179.457C183.733 155.31 187.2 151.844 187.2 147.567V28.2043C187.2 23.9277 183.733 20.4609 179.457 20.4609Z" stroke="#3F3D56" stroke-width="0.653417"/>
<path d="M235.986 157.641H0" stroke="#3F3D56" stroke-width="0.653417"/>
<path d="M221.104 131.348C221.104 131.348 223.684 140.633 220.416 142.009C217.149 143.385 218.181 131.692 218.181 131.692L221.104 131.348Z" fill="#A0616A"/>
<path d="M197.718 190.846C197.718 190.846 195.31 190.674 194.451 191.19C193.93 191.495 193.302 191.557 192.731 191.362C192.731 191.362 188.948 191.018 190.324 192.909C191.699 194.801 193.075 195.489 193.075 196.349C193.075 197.208 198.75 197.208 198.922 196.349C199.093 195.489 199.265 191.018 198.922 190.846C198.578 190.674 197.718 190.846 197.718 190.846Z" fill="#575A89"/>
<path d="M204.081 190.846C204.081 190.846 206.488 190.674 207.348 191.19C207.869 191.495 208.497 191.557 209.068 191.362C209.068 191.362 212.851 191.018 211.475 192.909C210.099 194.801 208.724 195.489 208.724 196.349C208.724 197.208 203.049 197.208 202.877 196.349C202.705 195.489 202.533 191.018 202.877 190.846C203.221 190.674 204.081 190.846 204.081 190.846Z" fill="#575A89"/>
<path d="M190.668 129.456C190.668 129.456 189.464 156.625 190.152 158.001C190.84 159.376 193.247 182.591 192.903 183.966C192.559 185.342 190.84 191.017 192.903 191.876C194.967 192.736 199.437 191.876 199.437 191.876C199.437 191.876 200.641 184.998 200.125 181.387C199.609 177.776 199.437 162.644 199.437 162.644L202.877 146.824L204.08 161.784C204.08 161.784 204.424 182.247 202.017 186.374C199.609 190.501 202.877 192.22 202.877 192.22C202.877 192.22 209.411 193.08 210.099 192.908C210.787 192.736 209.583 186.03 210.099 183.107C210.615 180.183 211.818 163.847 212.85 159.892C213.882 155.937 219.728 133.927 215.43 129.456C211.131 124.985 190.668 129.456 190.668 129.456Z" fill="#3F3D56"/>
<path d="M203.221 74.5995C206.545 74.5995 209.239 71.905 209.239 68.581C209.239 65.2571 206.545 62.5625 203.221 62.5625C199.897 62.5625 197.202 65.2571 197.202 68.581C197.202 71.905 199.897 74.5995 203.221 74.5995Z" fill="#A0616A"/>
<path d="M198.75 71.3362C198.75 71.3362 199.782 79.5901 199.266 79.7621C198.75 79.9341 208.38 79.7621 208.38 79.7621C208.38 79.7621 206.488 74.7753 208.38 70.8203L198.75 71.3362Z" fill="#A0616A"/>
<path d="M198.75 78.0412C198.75 78.0412 202.941 73.9143 207.896 78.0412L208.217 79.2714L205.628 79.245H198.75V78.0412Z" fill="#F2F2F2"/>
<path d="M219.213 130.832C218.816 130.911 217.843 131.073 216.574 131.265C212.349 131.903 204.862 132.87 204.597 132.208C204.253 131.348 203.049 128.253 202.189 129.628C201.33 131.004 201.845 132.208 198.234 132.38C195.777 132.497 192.205 132.135 190.228 131.568C189.299 131.301 188.722 130.99 188.777 130.66C188.949 129.628 190.84 110.025 190.84 108.134C190.84 106.242 191.528 97.1283 191.528 97.1283L186.586 87.4041L186.197 86.6389C186.197 86.6389 186.713 84.7473 188.261 84.4034C189.808 84.0595 197.203 79.7606 197.203 79.7606C197.203 79.7606 198.75 77.3532 201.673 77.5251C204.597 77.6971 205.285 76.4934 209.24 79.7606C209.24 79.7606 214.054 81.8241 215.774 82.8558C217.494 83.8876 219.385 83.8876 219.557 85.6071C219.591 85.9528 219.404 86.6183 219.082 87.4591C217.905 90.5406 214.928 95.9934 214.462 96.8429C214.421 96.9168 214.398 96.9564 214.398 96.9564C214.398 96.9564 214.309 100.048 214.403 103.668V103.676C214.496 107.148 214.758 111.105 215.43 113.292C216.806 117.763 220.933 130.488 219.213 130.832Z" fill="#575A89"/>
<path d="M211.034 66.1141C210.914 65.5663 210.682 65.0489 210.354 64.5941C210.223 63.3365 209.803 62.126 209.128 61.0571C208.863 60.5563 208.488 60.1226 208.03 59.7894C207.505 59.4873 206.906 59.3381 206.301 59.3586C206.192 59.3567 205.994 59.39 205.817 59.3981C205.703 59.3629 205.588 59.3315 205.473 59.3019C205.406 59.1526 205.273 58.7174 205.236 58.7469L204.735 59.1453C204.523 59.1085 204.309 59.0798 204.096 59.057C204.018 58.8349 203.94 58.6128 203.862 58.3906C203.736 58.5893 203.625 58.7975 203.531 59.0133C203.318 59.0028 203.105 58.9992 202.891 59.0023L202.465 58.5929C202.414 58.8262 202.229 59.007 201.995 59.0535C201.799 59.0736 201.604 59.0999 201.409 59.1312C201.393 59.1311 201.377 59.1312 201.362 59.1308C200.312 59.1046 199.183 59.0575 198.305 59.6338C197.894 59.9158 197.56 60.2952 197.332 60.7381C197.224 60.8112 197.117 60.8837 197.012 60.9611C196.66 61.2012 196.355 61.5037 196.112 61.8536C195.935 62.1555 195.801 62.4803 195.714 62.8189C195.379 63.8381 195.223 64.9077 195.255 65.9801C195.291 67.0597 195.698 68.0939 196.408 68.9081C196.858 69.3917 197.431 69.7489 197.881 70.2319C198.81 71.2266 198.984 72.6139 199.777 73.6664C200.617 74.7796 202.15 75.5121 203.495 75.7221C205.13 75.9684 206.795 75.5531 208.122 74.5682C208.437 74.3486 208.705 74.0677 208.91 73.7423C209.377 72.9343 209.179 71.9187 209.352 71.0017C209.678 69.2828 211.318 67.8403 211.034 66.1141Z" fill="#3F3D56"/>
<path d="M188.089 131.863C188.089 131.863 190.668 141.149 187.401 142.525C184.134 143.9 185.165 132.207 185.165 132.207L188.089 131.863Z" fill="#A0616A"/>
<path opacity="0.1" d="M191.182 110.79C191.182 110.79 190.054 127.532 190.228 131.566C189.299 131.299 188.722 130.988 188.777 130.658C188.949 129.626 190.84 110.023 190.84 108.131C190.84 106.24 191.528 97.1261 191.528 97.1261L186.586 87.4019C186.665 86.9204 186.713 86.6367 186.713 86.6367L189.207 91.8814L192.732 92.8272L191.182 110.79Z" fill="black"/>
<path d="M187.401 85.6055L186.197 86.6372C186.197 86.6372 184.65 95.751 184.822 97.9864C184.994 100.222 181.21 134.098 184.134 134.098C187.057 134.098 190.324 133.582 189.808 132.378C189.292 131.174 190.667 110.79 190.667 110.79L192.216 92.8277L187.401 85.6055Z" fill="#575A89"/>
<path opacity="0.1" d="M219.082 87.4577C217.905 90.5392 214.928 95.992 214.462 96.8414C214.476 94.6421 214.484 93.0859 214.484 93.0859L218.095 85.6917L218.869 85.0898C218.869 85.0898 218.952 85.9995 219.082 87.4577Z" fill="black"/>
<path opacity="0.1" d="M219.213 130.831C218.816 130.91 217.843 131.072 216.573 131.265C215.915 126.395 214.154 112.391 214.266 111.072C214.321 110.422 214.367 107.21 214.403 103.676C214.496 107.148 214.758 111.104 215.43 113.292C216.806 117.763 220.933 130.487 219.213 130.831Z" fill="black"/>
<path d="M216.978 84.4023L219.557 85.0902C219.557 85.0902 221.277 104.177 221.449 107.445C221.621 110.712 223.684 130.831 223.34 131.691C222.996 132.55 217.666 133.754 217.494 132.894C217.322 132.035 214.822 112.634 214.954 111.071C215.086 109.508 214.227 93.3441 214.227 93.3441L216.978 84.4023Z" fill="#575A89"/>
<path d="M53.8574 95.4224L85.103 69.3844L116.623 51.5689L147.868 34.3016L179.114 4.15234" stroke="#3F3D56" stroke-width="0.653417"/>
<path d="M53.0354 99.8072C54.7005 99.8072 56.0504 98.4574 56.0504 96.7923C56.0504 95.1272 54.7005 93.7773 53.0354 93.7773C51.3703 93.7773 50.0205 95.1272 50.0205 96.7923C50.0205 98.4574 51.3703 99.8072 53.0354 99.8072Z" fill="#F2F2F2"/>
<path d="M84.2805 73.7681C85.9456 73.7681 87.2955 72.4183 87.2955 70.7532C87.2955 69.0881 85.9456 67.7383 84.2805 67.7383C82.6155 67.7383 81.2656 69.0881 81.2656 70.7532C81.2656 72.4183 82.6155 73.7681 84.2805 73.7681Z" fill="#F2F2F2"/>
<path d="M115.8 55.9517C117.465 55.9517 118.815 54.6019 118.815 52.9368C118.815 51.2717 117.465 49.9219 115.8 49.9219C114.135 49.9219 112.785 51.2717 112.785 52.9368C112.785 54.6019 114.135 55.9517 115.8 55.9517Z" fill="#F2F2F2"/>
<path d="M147.046 38.6861C148.711 38.6861 150.061 37.3363 150.061 35.6712C150.061 34.0061 148.711 32.6562 147.046 32.6562C145.381 32.6562 144.031 34.0061 144.031 35.6712C144.031 37.3363 145.381 38.6861 147.046 38.6861Z" fill="#F2F2F2"/>
<path d="M178.291 8.53766C179.956 8.53766 181.306 7.18784 181.306 5.52274C181.306 3.85764 179.956 2.50781 178.291 2.50781C176.626 2.50781 175.276 3.85764 175.276 5.52274C175.276 7.18784 176.626 8.53766 178.291 8.53766Z" fill="#F2F2F2"/>
<path d="M53.8577 98.4361C55.5228 98.4361 56.8726 97.0863 56.8726 95.4212C56.8726 93.7561 55.5228 92.4062 53.8577 92.4062C52.1926 92.4062 50.8428 93.7561 50.8428 95.4212C50.8428 97.0863 52.1926 98.4361 53.8577 98.4361Z" stroke="#3F3D56" stroke-width="0.653417"/>
<path d="M85.1028 72.397C86.7679 72.397 88.1177 71.0472 88.1177 69.3821C88.1177 67.717 86.7679 66.3672 85.1028 66.3672C83.4377 66.3672 82.0879 67.717 82.0879 69.3821C82.0879 71.0472 83.4377 72.397 85.1028 72.397Z" stroke="#3F3D56" stroke-width="0.653417"/>
<path d="M116.622 54.5845C118.287 54.5845 119.637 53.2347 119.637 51.5696C119.637 49.9045 118.287 48.5547 116.622 48.5547C114.957 48.5547 113.607 49.9045 113.607 51.5696C113.607 53.2347 114.957 54.5845 116.622 54.5845Z" stroke="#3F3D56" stroke-width="0.653417"/>
<path d="M147.868 37.315C149.534 37.315 150.883 35.9652 150.883 34.3001C150.883 32.635 149.534 31.2852 147.868 31.2852C146.203 31.2852 144.854 32.635 144.854 34.3001C144.854 35.9652 146.203 37.315 147.868 37.315Z" stroke="#3F3D56" stroke-width="0.653417"/>
<path d="M179.114 7.16657C180.779 7.16657 182.128 5.81674 182.128 4.15164C182.128 2.48655 180.779 1.13672 179.114 1.13672C177.448 1.13672 176.099 2.48655 176.099 4.15164C176.099 5.81674 177.448 7.16657 179.114 7.16657Z" stroke="#3F3D56" stroke-width="0.653417"/>
</g>
<defs>
<clipPath id="clip0_49_799">
<rect width="246" height="203" fill="white"/>
</clipPath>
</defs>
</svg>
