<svg width="347" height="104" viewBox="0 0 347 104" fill="none" xmlns="http://www.w3.org/2000/svg">
<path d="M41.9453 49.5469V48C42.1224 48.1562 42.3333 48.2969 42.5781 48.4219C42.8281 48.5469 43.0885 48.6536 43.3594 48.7422C43.6354 48.8255 43.9115 48.8906 44.1875 48.9375C44.4635 48.9844 44.7188 49.0078 44.9531 49.0078C45.7604 49.0078 46.362 48.8594 46.7578 48.5625C47.1589 48.2604 47.3594 47.8281 47.3594 47.2656C47.3594 46.9635 47.2917 46.7005 47.1562 46.4766C47.026 46.2526 46.8438 46.0495 46.6094 45.8672C46.375 45.6797 46.0964 45.5026 45.7734 45.3359C45.4557 45.1641 45.112 44.9844 44.7422 44.7969C44.3516 44.599 43.987 44.3984 43.6484 44.1953C43.3099 43.9922 43.0156 43.7682 42.7656 43.5234C42.5156 43.2786 42.3177 43.0026 42.1719 42.6953C42.0312 42.3828 41.9609 42.0182 41.9609 41.6016C41.9609 41.0911 42.0729 40.6484 42.2969 40.2734C42.5208 39.8932 42.8151 39.5807 43.1797 39.3359C43.5443 39.0911 43.9583 38.9089 44.4219 38.7891C44.8906 38.6693 45.3672 38.6094 45.8516 38.6094C46.9557 38.6094 47.7604 38.7422 48.2656 39.0078V40.4844C47.6042 40.026 46.7552 39.7969 45.7188 39.7969C45.4323 39.7969 45.1458 39.8281 44.8594 39.8906C44.5729 39.9479 44.3177 40.0443 44.0938 40.1797C43.8698 40.3151 43.6875 40.4896 43.5469 40.7031C43.4062 40.9167 43.3359 41.1771 43.3359 41.4844C43.3359 41.7708 43.388 42.0182 43.4922 42.2266C43.6016 42.4349 43.7604 42.625 43.9688 42.7969C44.1771 42.9688 44.4297 43.1354 44.7266 43.2969C45.0286 43.4583 45.375 43.6354 45.7656 43.8281C46.1667 44.026 46.5469 44.2344 46.9062 44.4531C47.2656 44.6719 47.5807 44.9141 47.8516 45.1797C48.1224 45.4453 48.3359 45.7396 48.4922 46.0625C48.6536 46.3854 48.7344 46.7552 48.7344 47.1719C48.7344 47.724 48.625 48.1927 48.4062 48.5781C48.1927 48.9583 47.901 49.2682 47.5312 49.5078C47.1667 49.7474 46.7448 49.9193 46.2656 50.0234C45.7865 50.1328 45.2812 50.1875 44.75 50.1875C44.5729 50.1875 44.3542 50.1719 44.0938 50.1406C43.8333 50.1146 43.5677 50.0729 43.2969 50.0156C43.026 49.9635 42.7682 49.8984 42.5234 49.8203C42.2839 49.737 42.0911 49.6458 41.9453 49.5469ZM51.4531 39.9688C51.224 39.9688 51.0286 39.8906 50.8672 39.7344C50.7057 39.5781 50.625 39.3802 50.625 39.1406C50.625 38.901 50.7057 38.7031 50.8672 38.5469C51.0286 38.3854 51.224 38.3047 51.4531 38.3047C51.6875 38.3047 51.8854 38.3854 52.0469 38.5469C52.2135 38.7031 52.2969 38.901 52.2969 39.1406C52.2969 39.3698 52.2135 39.5651 52.0469 39.7266C51.8854 39.888 51.6875 39.9688 51.4531 39.9688ZM52.0781 50H50.7969V42H52.0781V50ZM61.5 49.3594C61.5 52.2969 60.0938 53.7656 57.2812 53.7656C56.2917 53.7656 55.4271 53.5781 54.6875 53.2031V51.9219C55.5885 52.4219 56.4479 52.6719 57.2656 52.6719C59.2344 52.6719 60.2188 51.625 60.2188 49.5312V48.6562H60.1875C59.5781 49.6771 58.6615 50.1875 57.4375 50.1875C56.4427 50.1875 55.6406 49.8333 55.0312 49.125C54.4271 48.4115 54.125 47.4557 54.125 46.2578C54.125 44.8984 54.4505 43.8177 55.1016 43.0156C55.7578 42.2135 56.6536 41.8125 57.7891 41.8125C58.8672 41.8125 59.6667 42.2448 60.1875 43.1094H60.2188V42H61.5V49.3594ZM60.2188 46.3828V45.2031C60.2188 44.5677 60.0026 44.0234 59.5703 43.5703C59.1432 43.1172 58.6094 42.8906 57.9688 42.8906C57.1771 42.8906 56.5573 43.1797 56.1094 43.7578C55.6615 44.3307 55.4375 45.1354 55.4375 46.1719C55.4375 47.0625 55.651 47.776 56.0781 48.3125C56.5104 48.8438 57.0807 49.1094 57.7891 49.1094C58.5078 49.1094 59.0911 48.8542 59.5391 48.3438C59.9922 47.8333 60.2188 47.1797 60.2188 46.3828ZM70.7344 50H69.4531V45.4375C69.4531 43.7396 68.8333 42.8906 67.5938 42.8906C66.9531 42.8906 66.4219 43.1328 66 43.6172C65.5833 44.0964 65.375 44.7031 65.375 45.4375V50H64.0938V42H65.375V43.3281H65.4062C66.0104 42.3177 66.8854 41.8125 68.0312 41.8125C68.9062 41.8125 69.5755 42.0964 70.0391 42.6641C70.5026 43.2266 70.7344 44.0417 70.7344 45.1094V50ZM78.2031 39.9688C77.974 39.9688 77.7786 39.8906 77.6172 39.7344C77.4557 39.5781 77.375 39.3802 77.375 39.1406C77.375 38.901 77.4557 38.7031 77.6172 38.5469C77.7786 38.3854 77.974 38.3047 78.2031 38.3047C78.4375 38.3047 78.6354 38.3854 78.7969 38.5469C78.9635 38.7031 79.0469 38.901 79.0469 39.1406C79.0469 39.3698 78.9635 39.5651 78.7969 39.7266C78.6354 39.888 78.4375 39.9688 78.2031 39.9688ZM78.8281 50H77.5469V42H78.8281V50ZM88.0625 50H86.7812V45.4375C86.7812 43.7396 86.1615 42.8906 84.9219 42.8906C84.2812 42.8906 83.75 43.1328 83.3281 43.6172C82.9115 44.0964 82.7031 44.7031 82.7031 45.4375V50H81.4219V42H82.7031V43.3281H82.7344C83.3385 42.3177 84.2135 41.8125 85.3594 41.8125C86.2344 41.8125 86.9036 42.0964 87.3672 42.6641C87.8307 43.2266 88.0625 44.0417 88.0625 45.1094V50Z" fill="white"/>
<g filter="url(#filter0_d_11_119)">
<rect x="16" y="8" width="315" height="72" rx="28" fill="url(#paint0_linear_11_119)"/>
</g>
<mask id="mask0_11_119" style="mask-type:alpha" maskUnits="userSpaceOnUse" x="16" y="8" width="315" height="72">
<rect x="16" y="8" width="315" height="72" rx="28" fill="url(#paint1_linear_11_119)"/>
</mask>
<g mask="url(#mask0_11_119)">
<circle opacity="0.7" cx="294.689" cy="-8.31047" r="45" transform="rotate(-144.914 294.689 -8.31047)" fill="url(#paint2_linear_11_119)"/>
<circle opacity="0.7" cx="325.683" cy="7.68074" r="38.5" transform="rotate(-7.877 325.683 7.68074)" fill="url(#paint3_linear_11_119)"/>
</g>
<defs>
<filter id="filter0_d_11_119" x="0" y="0" width="347" height="104" filterUnits="userSpaceOnUse" color-interpolation-filters="sRGB">
<feFlood flood-opacity="0" result="BackgroundImageFix"/>
<feColorMatrix in="SourceAlpha" type="matrix" values="0 0 0 0 0 0 0 0 0 0 0 0 0 0 0 0 0 0 127 0" result="hardAlpha"/>
<feOffset dy="8"/>
<feGaussianBlur stdDeviation="8"/>
<feComposite in2="hardAlpha" operator="out"/>
<feColorMatrix type="matrix" values="0 0 0 0 0.105882 0 0 0 0 0.223529 0 0 0 0 1 0 0 0 0.2 0"/>
<feBlend mode="normal" in2="BackgroundImageFix" result="effect1_dropShadow_11_119"/>
<feBlend mode="normal" in="SourceGraphic" in2="effect1_dropShadow_11_119" result="shape"/>
</filter>
<linearGradient id="paint0_linear_11_119" x1="86.5" y1="14.5" x2="264.5" y2="86.5" gradientUnits="userSpaceOnUse">
<stop stop-color="#4960F9"/>
<stop offset="1" stop-color="#1433FF"/>
</linearGradient>
<linearGradient id="paint1_linear_11_119" x1="86.5" y1="14.5" x2="264.5" y2="86.5" gradientUnits="userSpaceOnUse">
<stop stop-color="#4960F9"/>
<stop offset="1" stop-color="#1433FF"/>
</linearGradient>
<linearGradient id="paint2_linear_11_119" x1="324.092" y1="24.1611" x2="267.075" y2="-51.5207" gradientUnits="userSpaceOnUse">
<stop stop-color="#5264F9"/>
<stop offset="1" stop-color="#3AF9EF"/>
</linearGradient>
<linearGradient id="paint3_linear_11_119" x1="318.683" y1="34.6807" x2="389.683" y2="-99.8193" gradientUnits="userSpaceOnUse">
<stop stop-color="#C72FF8"/>
<stop offset="0.103053" stop-color="#C130F1" stop-opacity="0.840886"/>
<stop offset="0.177433" stop-color="#BF30EE" stop-opacity="0.778619"/>
<stop offset="1" stop-color="#A834D0" stop-opacity="0.09"/>
</linearGradient>
</defs>
</svg>
