<svg width="25" height="14" viewBox="0 0 25 14" fill="none" xmlns="http://www.w3.org/2000/svg">
<path d="M1.67969 2.28906H23.7344C24.1211 2.28906 24.4375 1.98438 24.4375 1.59766C24.4375 1.22266 24.1211 0.917969 23.7344 0.917969H1.67969C1.29297 0.917969 0.988281 1.22266 0.988281 1.59766C0.988281 1.98438 1.29297 2.28906 1.67969 2.28906ZM1.67969 7.59766H23.7344C24.1211 7.59766 24.4375 7.29297 24.4375 6.90625C24.4375 6.51953 24.1211 6.21485 23.7344 6.21485H1.67969C1.29297 6.21485 0.988281 6.51953 0.988281 6.90625C0.988281 7.29297 1.29297 7.59766 1.67969 7.59766ZM1.67969 12.8945H23.7344C24.1211 12.8945 24.4375 12.5899 24.4375 12.2031C24.4375 11.8164 24.1211 11.5117 23.7344 11.5117H1.67969C1.29297 11.5117 0.988281 11.8164 0.988281 12.2031C0.988281 12.5899 1.29297 12.8945 1.67969 12.8945Z" fill="white"/>
</svg>
