<svg width="21" height="22" viewBox="0 0 21 22" fill="none" xmlns="http://www.w3.org/2000/svg">
<g clip-path="url(#clip0_47_1753)">
<path d="M9.81738 20.706H4.0885C2.53159 20.706 1.26835 19.4381 1.26835 17.8858V4.07874C1.26835 2.52182 2.53625 1.25858 4.0885 1.25858H9.91061C10.2602 1.25858 10.5399 0.978896 10.5399 0.629291C10.5399 0.279685 10.2602 0 9.91061 0H4.0885C1.83704 0 0.00976562 1.83193 0.00976562 4.07874V17.8858C0.00976562 20.1373 1.8417 21.9646 4.0885 21.9646H9.81738C10.167 21.9646 10.4467 21.6849 10.4467 21.3353C10.4467 20.9857 10.1623 20.706 9.81738 20.706Z" fill="#2B47FC"/>
<path d="M20.1845 10.5403L16.1851 6.54076C15.938 6.29371 15.5418 6.29371 15.2947 6.54076C15.0477 6.78781 15.0477 7.18403 15.2947 7.43109L18.2221 10.3585H5.45449C5.10488 10.3585 4.8252 10.6381 4.8252 10.9877C4.8252 11.3374 5.10488 11.617 5.45449 11.617H18.2221L15.2947 14.5444C15.0477 14.7915 15.0477 15.1877 15.2947 15.4347C15.4159 15.5559 15.5791 15.6212 15.7376 15.6212C15.896 15.6212 16.0592 15.5606 16.1804 15.4347L20.1799 11.4352C20.4316 11.1835 20.4316 10.7826 20.1845 10.5403Z" fill="#2B47FC"/>
</g>
<defs>
<clipPath id="clip0_47_1753">
<rect width="21" height="22" fill="white"/>
</clipPath>
</defs>
</svg>
