<svg width="22" height="21" viewBox="0 0 22 21" fill="none" xmlns="http://www.w3.org/2000/svg">
<path d="M8.97168 15.6739C10.4307 15.6739 11.793 15.1992 12.9004 14.4082L17.0664 18.5742C17.2598 18.7676 17.5147 18.8643 17.7784 18.8643C18.3496 18.8643 18.7627 18.4248 18.7627 17.8623C18.7627 17.5987 18.6748 17.3526 18.4815 17.1592L14.3418 13.0108C15.212 11.8682 15.7305 10.4531 15.7305 8.91504C15.7305 5.19727 12.6895 2.15625 8.97168 2.15625C5.24512 2.15625 2.21289 5.19727 2.21289 8.91504C2.21289 12.6328 5.24512 15.6739 8.97168 15.6739ZM8.97168 14.2149C6.0625 14.2149 3.67187 11.8155 3.67187 8.91504C3.67187 6.01465 6.0625 3.61524 8.97168 3.61524C11.8721 3.61524 14.2715 6.01465 14.2715 8.91504C14.2715 11.8155 11.8721 14.2149 8.97168 14.2149Z" fill="#3D56FA"/>
</svg>
