<svg width="18" height="10" viewBox="0 0 18 10" fill="none" xmlns="http://www.w3.org/2000/svg">
<path d="M9.32872 2.49526C11.7848 2.49534 14.147 3.21357 15.927 4.5015C16.0611 4.60093 16.2753 4.59968 16.4073 4.49868L17.6887 3.51455C17.7555 3.46332 17.7928 3.39394 17.7922 3.32175C17.7917 3.24956 17.7533 3.18051 17.6857 3.12989C13.0137 -0.277671 5.64299 -0.277671 0.970966 3.12989C0.903287 3.18047 0.864897 3.2495 0.864265 3.32169C0.863649 3.39388 0.900867 3.46329 0.967664 3.51455L2.24932 4.49868C2.38125 4.59983 2.5957 4.60108 2.72966 4.5015C4.50992 3.21348 6.87238 2.49525 9.32872 2.49526ZM9.32872 5.69709C10.6782 5.69702 11.9795 6.07876 12.9798 6.76811C13.1151 6.86595 13.3282 6.86383 13.4601 6.76333L14.7399 5.77919C14.8073 5.72757 14.8447 5.65754 14.8438 5.58477C14.8428 5.51201 14.8035 5.44257 14.7348 5.392C11.6887 3.23557 6.97134 3.23557 3.92523 5.392C3.85642 5.44257 3.81719 5.51204 3.81627 5.58483C3.81538 5.65762 3.8529 5.72765 3.92044 5.77919L5.19991 6.76333C5.3318 6.86383 5.54492 6.86595 5.68021 6.76811C6.67985 6.07921 7.98014 5.69751 9.32872 5.69709ZM11.7883 8.04581C11.8567 7.99469 11.8944 7.92433 11.8924 7.85136C11.8905 7.77839 11.849 7.70926 11.7779 7.66031C10.3641 6.75022 8.29334 6.75022 6.87949 7.66031C6.80831 7.70922 6.7668 7.77833 6.76477 7.8513C6.76274 7.92427 6.80037 7.99465 6.86878 8.04581L9.08301 9.74612C9.14791 9.79609 9.2364 9.82422 9.32872 9.82422C9.42104 9.82422 9.5095 9.79609 9.5744 9.74612L11.7883 8.04581Z" fill="black"/>
</svg>
