<svg width="23" height="25" viewBox="0 0 23 25" fill="none" xmlns="http://www.w3.org/2000/svg">
<g clip-path="url(#clip0_47_1152)">
<path fill-rule="evenodd" clip-rule="evenodd" d="M11.4548 12.5C8.56779 12.5 6.22754 10.1598 6.22754 7.27273V6.22727C6.22754 3.34025 8.56779 1 11.4548 1C14.3418 1 16.6821 3.34025 16.6821 6.22727V7.27273C16.6821 10.1598 14.3418 12.5 11.4548 12.5Z" stroke="#3A3A3A" stroke-width="1.05" stroke-linecap="square"/>
<path fill-rule="evenodd" clip-rule="evenodd" d="M21.9091 20.266C21.9091 18.645 20.8459 17.2195 19.2918 16.7574C17.4539 16.2107 14.7415 15.6367 11.4545 15.6367C8.16764 15.6367 5.4552 16.2107 3.6173 16.7574C2.06323 17.2195 1 18.645 1 20.266V24.0004H21.9091V20.266Z" stroke="#3A3A3A" stroke-width="1.05" stroke-linecap="square"/>
</g>
<defs>
<clipPath id="clip0_47_1152">
<rect width="23" height="25" fill="white"/>
</clipPath>
</defs>
</svg>
