<svg width="300" height="403" viewBox="0 0 300 403" fill="none" xmlns="http://www.w3.org/2000/svg">
<g filter="url(#filter0_d_31_292)">
<rect x="42" y="40" width="209" height="305" rx="40" fill="white"/>
<rect x="42" y="40" width="209" height="305" rx="40" fill="url(#paint0_radial_31_292)"/>
<rect x="42" y="40" width="209" height="305" rx="40" fill="url(#paint1_radial_31_292)"/>
<rect x="42" y="40" width="209" height="305" rx="40" fill="url(#paint2_radial_31_292)"/>
</g>
<path d="M216.295 305.047C223.17 305.047 228.742 299.44 228.742 292.523C228.742 285.607 223.17 280 216.295 280C209.421 280 203.849 285.607 203.849 292.523C203.849 299.44 209.421 305.047 216.295 305.047Z" fill="#F99600"/>
<path d="M202.292 305.047C209.167 305.047 214.739 299.44 214.739 292.523C214.739 285.607 209.167 280 202.292 280C195.418 280 189.846 285.607 189.846 292.523C189.846 299.44 195.418 305.047 202.292 305.047Z" fill="#EC000A"/>
<path fill-rule="evenodd" clip-rule="evenodd" d="M209.294 302.879C206.007 300.625 203.849 296.828 203.849 292.524C203.849 288.219 206.007 284.422 209.294 282.168C212.581 284.422 214.74 288.219 214.74 292.524C214.74 296.828 212.581 300.625 209.294 302.879Z" fill="#FF5300"/>
<path d="M192.575 306.651L192.593 307.069C192.869 306.744 193.241 306.582 193.709 306.582C194.235 306.582 194.594 306.783 194.784 307.187C194.909 307.006 195.071 306.86 195.271 306.749C195.472 306.637 195.71 306.582 195.983 306.582C196.809 306.582 197.228 307.019 197.242 307.893V310.414H196.599V307.931C196.599 307.662 196.538 307.462 196.415 307.329C196.292 307.195 196.085 307.128 195.796 307.128C195.557 307.128 195.359 307.2 195.201 307.343C195.043 307.485 194.952 307.676 194.926 307.917V310.414H194.279V307.948C194.279 307.401 194.012 307.128 193.476 307.128C193.054 307.128 192.765 307.307 192.61 307.667V310.414H191.967V306.651H192.575ZM200.539 310.414C200.502 310.34 200.472 310.208 200.449 310.018C200.15 310.328 199.793 310.484 199.378 310.484C199.007 310.484 198.702 310.379 198.463 310.171C198.227 309.96 198.108 309.693 198.108 309.371C198.108 308.979 198.257 308.675 198.553 308.46C198.853 308.242 199.272 308.133 199.812 308.133H200.438V307.837C200.438 307.612 200.371 307.434 200.237 307.302C200.102 307.167 199.904 307.1 199.642 307.1C199.412 307.1 199.22 307.158 199.065 307.274C198.909 307.39 198.832 307.53 198.832 307.695H198.185C198.185 307.507 198.251 307.326 198.383 307.152C198.518 306.976 198.698 306.837 198.926 306.735C199.155 306.633 199.407 306.582 199.68 306.582C200.114 306.582 200.453 306.691 200.699 306.909C200.945 307.124 201.072 307.422 201.082 307.802V309.534C201.082 309.88 201.126 310.154 201.214 310.358V310.414H200.539ZM199.472 309.924C199.673 309.924 199.865 309.872 200.045 309.767C200.226 309.663 200.357 309.527 200.438 309.36V308.588H199.934C199.146 308.588 198.752 308.819 198.752 309.28C198.752 309.482 198.819 309.64 198.953 309.753C199.088 309.867 199.261 309.924 199.472 309.924ZM204.281 309.416C204.281 309.242 204.215 309.108 204.083 309.013C203.953 308.915 203.725 308.832 203.398 308.762C203.073 308.693 202.815 308.609 202.622 308.512C202.432 308.414 202.291 308.298 202.198 308.164C202.108 308.03 202.062 307.87 202.062 307.684C202.062 307.376 202.192 307.115 202.452 306.902C202.714 306.688 203.048 306.582 203.453 306.582C203.88 306.582 204.226 306.692 204.49 306.912C204.756 307.132 204.89 307.414 204.89 307.757H204.243C204.243 307.581 204.168 307.429 204.017 307.302C203.868 307.174 203.681 307.11 203.453 307.11C203.219 307.11 203.036 307.161 202.904 307.263C202.772 307.365 202.706 307.499 202.706 307.663C202.706 307.819 202.767 307.936 202.89 308.014C203.013 308.093 203.234 308.169 203.554 308.241C203.877 308.312 204.137 308.398 204.337 308.498C204.536 308.598 204.683 308.718 204.778 308.86C204.876 308.999 204.925 309.169 204.925 309.371C204.925 309.707 204.79 309.977 204.521 310.181C204.252 310.383 203.903 310.484 203.474 310.484C203.173 310.484 202.906 310.43 202.675 310.324C202.443 310.217 202.261 310.069 202.129 309.879C201.999 309.686 201.934 309.479 201.934 309.256H202.577C202.589 309.472 202.675 309.643 202.834 309.771C202.997 309.896 203.21 309.958 203.474 309.958C203.718 309.958 203.913 309.91 204.059 309.812C204.207 309.713 204.281 309.581 204.281 309.416ZM206.636 305.74V306.651H207.338V307.149H206.636V309.482C206.636 309.633 206.667 309.746 206.729 309.823C206.792 309.897 206.899 309.934 207.049 309.934C207.124 309.934 207.226 309.92 207.355 309.892V310.414C207.186 310.46 207.022 310.484 206.862 310.484C206.574 310.484 206.357 310.397 206.211 310.223C206.065 310.049 205.992 309.802 205.992 309.482V307.149H205.307V306.651H205.992V305.74H206.636ZM209.654 310.484C209.144 310.484 208.729 310.317 208.409 309.983C208.089 309.647 207.929 309.198 207.929 308.637V308.519C207.929 308.145 208 307.813 208.141 307.521C208.285 307.226 208.485 306.997 208.74 306.832C208.997 306.665 209.275 306.582 209.574 306.582C210.063 306.582 210.444 306.743 210.715 307.065C210.986 307.387 211.122 307.849 211.122 308.449V308.717H208.573C208.582 309.088 208.69 309.388 208.896 309.618C209.105 309.845 209.369 309.958 209.689 309.958C209.916 309.958 210.109 309.912 210.266 309.819C210.424 309.727 210.562 309.604 210.68 309.451L211.073 309.757C210.758 310.241 210.285 310.484 209.654 310.484ZM209.574 307.11C209.315 307.11 209.097 307.205 208.92 307.395C208.744 307.583 208.635 307.848 208.593 308.188H210.478V308.14C210.46 307.813 210.372 307.56 210.214 307.382C210.056 307.201 209.843 307.11 209.574 307.11ZM213.688 307.229C213.591 307.212 213.485 307.204 213.372 307.204C212.95 307.204 212.663 307.384 212.513 307.743V310.414H211.869V306.651H212.495L212.506 307.086C212.717 306.75 213.016 306.582 213.403 306.582C213.528 306.582 213.623 306.598 213.688 306.63V307.229ZM215.723 309.958C215.952 309.958 216.153 309.889 216.324 309.75C216.496 309.611 216.591 309.437 216.609 309.228H217.218C217.206 309.444 217.132 309.649 216.995 309.844C216.859 310.038 216.676 310.194 216.446 310.31C216.219 310.426 215.978 310.484 215.723 310.484C215.21 310.484 214.802 310.313 214.499 309.972C214.197 309.629 214.046 309.161 214.046 308.567V308.46C214.046 308.093 214.114 307.768 214.248 307.482C214.383 307.197 214.575 306.976 214.825 306.818C215.078 306.661 215.376 306.582 215.719 306.582C216.141 306.582 216.491 306.708 216.769 306.961C217.05 307.213 217.2 307.542 217.218 307.945H216.609C216.591 307.701 216.498 307.502 216.331 307.347C216.167 307.189 215.963 307.11 215.719 307.11C215.392 307.11 215.138 307.229 214.958 307.465C214.779 307.699 214.69 308.039 214.69 308.484V308.606C214.69 309.039 214.779 309.373 214.958 309.607C215.136 309.841 215.391 309.958 215.723 309.958ZM220.264 310.414C220.227 310.34 220.197 310.208 220.174 310.018C219.875 310.328 219.518 310.484 219.103 310.484C218.732 310.484 218.427 310.379 218.188 310.171C217.952 309.96 217.834 309.693 217.834 309.371C217.834 308.979 217.982 308.675 218.279 308.46C218.578 308.242 218.997 308.133 219.538 308.133H220.164V307.837C220.164 307.612 220.096 307.434 219.962 307.302C219.827 307.167 219.629 307.1 219.367 307.1C219.138 307.1 218.945 307.158 218.79 307.274C218.635 307.39 218.557 307.53 218.557 307.695H217.91C217.91 307.507 217.976 307.326 218.108 307.152C218.243 306.976 218.424 306.837 218.651 306.735C218.88 306.633 219.132 306.582 219.406 306.582C219.839 306.582 220.179 306.691 220.424 306.909C220.67 307.124 220.798 307.422 220.807 307.802V309.534C220.807 309.88 220.851 310.154 220.939 310.358V310.414H220.264ZM219.197 309.924C219.399 309.924 219.59 309.872 219.771 309.767C219.952 309.663 220.082 309.527 220.164 309.36V308.588H219.659C218.871 308.588 218.477 308.819 218.477 309.28C218.477 309.482 218.544 309.64 218.679 309.753C218.813 309.867 218.986 309.924 219.197 309.924ZM223.634 307.229C223.537 307.212 223.431 307.204 223.318 307.204C222.896 307.204 222.61 307.384 222.459 307.743V310.414H221.816V306.651H222.442L222.452 307.086C222.663 306.75 222.962 306.582 223.349 306.582C223.474 306.582 223.569 306.598 223.634 306.63V307.229ZM224.003 308.501C224.003 307.924 224.14 307.46 224.413 307.11C224.687 306.758 225.045 306.582 225.488 306.582C225.928 306.582 226.277 306.732 226.535 307.034V305.072H227.178V310.414H226.587L226.556 310.011C226.298 310.326 225.94 310.484 225.481 310.484C225.045 310.484 224.689 310.305 224.413 309.948C224.14 309.591 224.003 309.125 224.003 308.55V308.501ZM224.646 308.574C224.646 309.001 224.734 309.335 224.911 309.576C225.087 309.817 225.33 309.938 225.641 309.938C226.049 309.938 226.347 309.754 226.535 309.388V307.66C226.342 307.305 226.047 307.128 225.648 307.128C225.333 307.128 225.087 307.249 224.911 307.493C224.734 307.736 224.646 308.097 224.646 308.574Z" fill="white"/>
<path d="M80.64 96.08C80.64 97.392 80.16 98.52 79.2 99.464C78.24 100.392 76.856 100.968 75.048 101.192V103.88H72.648V101.264C71.464 101.2 70.336 100.992 69.264 100.64C68.192 100.288 67.328 99.856 66.672 99.344L67.992 96.416C68.6 96.864 69.312 97.24 70.128 97.544C70.944 97.848 71.784 98.04 72.648 98.12V94.112C71.512 93.84 70.552 93.536 69.768 93.2C68.984 92.864 68.328 92.376 67.8 91.736C67.272 91.08 67.008 90.216 67.008 89.144C67.008 87.816 67.488 86.68 68.448 85.736C69.424 84.776 70.824 84.192 72.648 83.984V81.32H75.048V83.936C77.016 84.096 78.64 84.584 79.92 85.4L78.72 88.352C77.52 87.664 76.296 87.248 75.048 87.104V91.184C76.168 91.44 77.112 91.736 77.88 92.072C78.664 92.392 79.32 92.88 79.848 93.536C80.376 94.176 80.64 95.024 80.64 96.08ZM70.872 88.952C70.872 89.352 71.024 89.68 71.328 89.936C71.632 90.192 72.072 90.408 72.648 90.584V87.176C72.04 87.32 71.592 87.552 71.304 87.872C71.016 88.176 70.872 88.536 70.872 88.952ZM75.048 98.024C75.624 97.896 76.056 97.688 76.344 97.4C76.632 97.112 76.776 96.768 76.776 96.368C76.776 95.968 76.624 95.64 76.32 95.384C76.032 95.128 75.608 94.904 75.048 94.712V98.024ZM97.8591 97.472H95.1231V101H91.3311V97.472H82.2831V94.856L90.2031 84.2H94.2831L86.9391 94.304H91.4511V91.16H95.1231V94.304H97.8591V97.472ZM104.735 90.512C107.103 90.512 108.847 90.984 109.967 91.928C111.103 92.872 111.671 94.136 111.671 95.72C111.671 96.744 111.415 97.68 110.903 98.528C110.391 99.36 109.607 100.032 108.551 100.544C107.511 101.04 106.223 101.288 104.687 101.288C103.503 101.288 102.335 101.136 101.183 100.832C100.047 100.512 99.0791 100.064 98.2791 99.488L99.8151 96.512C100.455 96.992 101.191 97.368 102.023 97.64C102.855 97.896 103.711 98.024 104.591 98.024C105.567 98.024 106.335 97.832 106.895 97.448C107.455 97.064 107.735 96.528 107.735 95.84C107.735 95.12 107.439 94.576 106.847 94.208C106.271 93.84 105.263 93.656 103.823 93.656H99.5271L100.391 84.2H110.639V87.32H103.631L103.367 90.512H104.735ZM120.449 101.288C119.057 101.288 117.817 100.944 116.729 100.256C115.641 99.568 114.785 98.576 114.161 97.28C113.553 95.968 113.249 94.408 113.249 92.6C113.249 90.792 113.553 89.24 114.161 87.944C114.785 86.632 115.641 85.632 116.729 84.944C117.817 84.256 119.057 83.912 120.449 83.912C121.841 83.912 123.081 84.256 124.169 84.944C125.257 85.632 126.105 86.632 126.713 87.944C127.337 89.24 127.649 90.792 127.649 92.6C127.649 94.408 127.337 95.968 126.713 97.28C126.105 98.576 125.257 99.568 124.169 100.256C123.081 100.944 121.841 101.288 120.449 101.288ZM120.449 98C121.473 98 122.273 97.56 122.849 96.68C123.441 95.8 123.737 94.44 123.737 92.6C123.737 90.76 123.441 89.4 122.849 88.52C122.273 87.64 121.473 87.2 120.449 87.2C119.441 87.2 118.641 87.64 118.049 88.52C117.473 89.4 117.185 90.76 117.185 92.6C117.185 94.44 117.473 95.8 118.049 96.68C118.641 97.56 119.441 98 120.449 98ZM136.738 101.288C135.346 101.288 134.106 100.944 133.018 100.256C131.93 99.568 131.074 98.576 130.45 97.28C129.842 95.968 129.538 94.408 129.538 92.6C129.538 90.792 129.842 89.24 130.45 87.944C131.074 86.632 131.93 85.632 133.018 84.944C134.106 84.256 135.346 83.912 136.738 83.912C138.13 83.912 139.37 84.256 140.458 84.944C141.546 85.632 142.394 86.632 143.002 87.944C143.626 89.24 143.938 90.792 143.938 92.6C143.938 94.408 143.626 95.968 143.002 97.28C142.394 98.576 141.546 99.568 140.458 100.256C139.37 100.944 138.13 101.288 136.738 101.288ZM136.738 98C137.762 98 138.562 97.56 139.138 96.68C139.73 95.8 140.026 94.44 140.026 92.6C140.026 90.76 139.73 89.4 139.138 88.52C138.562 87.64 137.762 87.2 136.738 87.2C135.73 87.2 134.93 87.64 134.338 88.52C133.762 89.4 133.474 90.76 133.474 92.6C133.474 94.44 133.762 95.8 134.338 96.68C134.93 97.56 135.73 98 136.738 98ZM147.73 101.192C147.074 101.192 146.522 100.968 146.074 100.52C145.626 100.072 145.402 99.512 145.402 98.84C145.402 98.152 145.626 97.6 146.074 97.184C146.522 96.752 147.074 96.536 147.73 96.536C148.386 96.536 148.938 96.752 149.386 97.184C149.834 97.6 150.058 98.152 150.058 98.84C150.058 99.512 149.834 100.072 149.386 100.52C148.938 100.968 148.386 101.192 147.73 101.192ZM158.699 101.288C157.307 101.288 156.067 100.944 154.979 100.256C153.891 99.568 153.035 98.576 152.411 97.28C151.803 95.968 151.499 94.408 151.499 92.6C151.499 90.792 151.803 89.24 152.411 87.944C153.035 86.632 153.891 85.632 154.979 84.944C156.067 84.256 157.307 83.912 158.699 83.912C160.091 83.912 161.331 84.256 162.419 84.944C163.507 85.632 164.355 86.632 164.963 87.944C165.587 89.24 165.899 90.792 165.899 92.6C165.899 94.408 165.587 95.968 164.963 97.28C164.355 98.576 163.507 99.568 162.419 100.256C161.331 100.944 160.091 101.288 158.699 101.288ZM158.699 98C159.723 98 160.523 97.56 161.099 96.68C161.691 95.8 161.987 94.44 161.987 92.6C161.987 90.76 161.691 89.4 161.099 88.52C160.523 87.64 159.723 87.2 158.699 87.2C157.691 87.2 156.891 87.64 156.299 88.52C155.723 89.4 155.435 90.76 155.435 92.6C155.435 94.44 155.723 95.8 156.299 96.68C156.891 97.56 157.691 98 158.699 98ZM174.988 101.288C173.596 101.288 172.356 100.944 171.268 100.256C170.18 99.568 169.324 98.576 168.7 97.28C168.092 95.968 167.788 94.408 167.788 92.6C167.788 90.792 168.092 89.24 168.7 87.944C169.324 86.632 170.18 85.632 171.268 84.944C172.356 84.256 173.596 83.912 174.988 83.912C176.38 83.912 177.62 84.256 178.708 84.944C179.796 85.632 180.644 86.632 181.252 87.944C181.876 89.24 182.188 90.792 182.188 92.6C182.188 94.408 181.876 95.968 181.252 97.28C180.644 98.576 179.796 99.568 178.708 100.256C177.62 100.944 176.38 101.288 174.988 101.288ZM174.988 98C176.012 98 176.812 97.56 177.388 96.68C177.98 95.8 178.276 94.44 178.276 92.6C178.276 90.76 177.98 89.4 177.388 88.52C176.812 87.64 176.012 87.2 174.988 87.2C173.98 87.2 173.18 87.64 172.588 88.52C172.012 89.4 171.724 90.76 171.724 92.6C171.724 94.44 172.012 95.8 172.588 96.68C173.18 97.56 173.98 98 174.988 98Z" fill="white"/>
<path d="M73.524 127.216C72.24 127.216 71.076 126.94 70.032 126.388C69 125.824 68.184 125.05 67.584 124.066C66.996 123.07 66.702 121.948 66.702 120.7C66.702 119.452 66.996 118.336 67.584 117.352C68.184 116.356 69 115.582 70.032 115.03C71.076 114.466 72.246 114.184 73.542 114.184C74.634 114.184 75.618 114.376 76.494 114.76C77.382 115.144 78.126 115.696 78.726 116.416L76.854 118.144C76.002 117.16 74.946 116.668 73.686 116.668C72.906 116.668 72.21 116.842 71.598 117.19C70.986 117.526 70.506 118 70.158 118.612C69.822 119.224 69.654 119.92 69.654 120.7C69.654 121.48 69.822 122.176 70.158 122.788C70.506 123.4 70.986 123.88 71.598 124.228C72.21 124.564 72.906 124.732 73.686 124.732C74.946 124.732 76.002 124.234 76.854 123.238L78.726 124.966C78.126 125.698 77.382 126.256 76.494 126.64C75.606 127.024 74.616 127.216 73.524 127.216ZM84.7712 127.144C83.7512 127.144 82.8332 126.934 82.0172 126.514C81.2132 126.082 80.5832 125.488 80.1272 124.732C79.6712 123.976 79.4432 123.118 79.4432 122.158C79.4432 121.198 79.6712 120.34 80.1272 119.584C80.5832 118.828 81.2132 118.24 82.0172 117.82C82.8332 117.388 83.7512 117.172 84.7712 117.172C85.7912 117.172 86.7032 117.388 87.5072 117.82C88.3112 118.24 88.9412 118.828 89.3972 119.584C89.8532 120.34 90.0812 121.198 90.0812 122.158C90.0812 123.118 89.8532 123.976 89.3972 124.732C88.9412 125.488 88.3112 126.082 87.5072 126.514C86.7032 126.934 85.7912 127.144 84.7712 127.144ZM84.7712 124.84C85.4912 124.84 86.0792 124.6 86.5352 124.12C87.0032 123.628 87.2372 122.974 87.2372 122.158C87.2372 121.342 87.0032 120.694 86.5352 120.214C86.0792 119.722 85.4912 119.476 84.7712 119.476C84.0512 119.476 83.4572 119.722 82.9892 120.214C82.5212 120.694 82.2872 121.342 82.2872 122.158C82.2872 122.974 82.5212 123.628 82.9892 124.12C83.4572 124.6 84.0512 124.84 84.7712 124.84ZM104.36 117.172C105.572 117.172 106.532 117.532 107.24 118.252C107.96 118.96 108.32 120.028 108.32 121.456V127H105.512V121.888C105.512 121.12 105.35 120.55 105.026 120.178C104.714 119.794 104.264 119.602 103.676 119.602C103.016 119.602 102.494 119.818 102.11 120.25C101.726 120.67 101.534 121.3 101.534 122.14V127H98.7261V121.888C98.7261 120.364 98.1141 119.602 96.8901 119.602C96.2421 119.602 95.7261 119.818 95.3421 120.25C94.9581 120.67 94.7661 121.3 94.7661 122.14V127H91.9581V117.316H94.6401V118.432C95.0001 118.024 95.4381 117.712 95.9541 117.496C96.4821 117.28 97.0581 117.172 97.6821 117.172C98.3661 117.172 98.9841 117.31 99.5361 117.586C100.088 117.85 100.532 118.24 100.868 118.756C101.264 118.252 101.762 117.862 102.362 117.586C102.974 117.31 103.64 117.172 104.36 117.172ZM116.561 117.172C117.461 117.172 118.277 117.382 119.009 117.802C119.753 118.21 120.335 118.792 120.755 119.548C121.175 120.292 121.385 121.162 121.385 122.158C121.385 123.154 121.175 124.03 120.755 124.786C120.335 125.53 119.753 126.112 119.009 126.532C118.277 126.94 117.461 127.144 116.561 127.144C115.325 127.144 114.353 126.754 113.645 125.974V130.492H110.837V117.316H113.519V118.432C114.215 117.592 115.229 117.172 116.561 117.172ZM116.075 124.84C116.795 124.84 117.383 124.6 117.839 124.12C118.307 123.628 118.541 122.974 118.541 122.158C118.541 121.342 118.307 120.694 117.839 120.214C117.383 119.722 116.795 119.476 116.075 119.476C115.355 119.476 114.761 119.722 114.293 120.214C113.837 120.694 113.609 121.342 113.609 122.158C113.609 122.974 113.837 123.628 114.293 124.12C114.761 124.6 115.355 124.84 116.075 124.84ZM127.013 117.172C128.513 117.172 129.665 117.532 130.469 118.252C131.273 118.96 131.675 120.034 131.675 121.474V127H129.047V125.794C128.519 126.694 127.535 127.144 126.095 127.144C125.351 127.144 124.703 127.018 124.151 126.766C123.611 126.514 123.197 126.166 122.909 125.722C122.621 125.278 122.477 124.774 122.477 124.21C122.477 123.31 122.813 122.602 123.485 122.086C124.169 121.57 125.219 121.312 126.635 121.312H128.867C128.867 120.7 128.681 120.232 128.309 119.908C127.937 119.572 127.379 119.404 126.635 119.404C126.119 119.404 125.609 119.488 125.105 119.656C124.613 119.812 124.193 120.028 123.845 120.304L122.837 118.342C123.365 117.97 123.995 117.682 124.727 117.478C125.471 117.274 126.233 117.172 127.013 117.172ZM126.797 125.254C127.277 125.254 127.703 125.146 128.075 124.93C128.447 124.702 128.711 124.372 128.867 123.94V122.95H126.941C125.789 122.95 125.213 123.328 125.213 124.084C125.213 124.444 125.351 124.732 125.627 124.948C125.915 125.152 126.305 125.254 126.797 125.254ZM140.102 117.172C141.302 117.172 142.268 117.532 143 118.252C143.744 118.972 144.116 120.04 144.116 121.456V127H141.308V121.888C141.308 121.12 141.14 120.55 140.804 120.178C140.468 119.794 139.982 119.602 139.346 119.602C138.638 119.602 138.074 119.824 137.654 120.268C137.234 120.7 137.024 121.348 137.024 122.212V127H134.216V117.316H136.898V118.45C137.27 118.042 137.732 117.73 138.284 117.514C138.836 117.286 139.442 117.172 140.102 117.172ZM156.097 117.316L151.723 127.594C151.279 128.71 150.727 129.496 150.067 129.952C149.419 130.408 148.633 130.636 147.709 130.636C147.205 130.636 146.707 130.558 146.215 130.402C145.723 130.246 145.321 130.03 145.009 129.754L146.035 127.756C146.251 127.948 146.497 128.098 146.773 128.206C147.061 128.314 147.343 128.368 147.619 128.368C148.003 128.368 148.315 128.272 148.555 128.08C148.795 127.9 149.011 127.594 149.203 127.162L149.239 127.072L145.045 117.316H147.943L150.661 123.886L153.397 117.316H156.097Z" fill="white"/>
<path d="M70.634 270.084C69.878 270.084 69.2013 269.883 68.604 269.482C68.016 269.081 67.554 268.507 67.218 267.76C66.8913 267.004 66.728 266.117 66.728 265.1C66.728 264.083 66.8913 263.201 67.218 262.454C67.554 261.698 68.016 261.119 68.604 260.718C69.2013 260.317 69.878 260.116 70.634 260.116C71.39 260.116 72.062 260.317 72.65 260.718C73.2473 261.119 73.714 261.698 74.05 262.454C74.386 263.201 74.554 264.083 74.554 265.1C74.554 266.117 74.386 267.004 74.05 267.76C73.714 268.507 73.2473 269.081 72.65 269.482C72.062 269.883 71.39 270.084 70.634 270.084ZM70.634 269.16C71.2033 269.16 71.7027 269.001 72.132 268.684C72.5707 268.367 72.9113 267.905 73.154 267.298C73.3967 266.691 73.518 265.959 73.518 265.1C73.518 264.241 73.3967 263.509 73.154 262.902C72.9113 262.295 72.5707 261.833 72.132 261.516C71.7027 261.199 71.2033 261.04 70.634 261.04C70.0647 261.04 69.5607 261.199 69.122 261.516C68.6927 261.833 68.3567 262.295 68.114 262.902C67.8713 263.509 67.75 264.241 67.75 265.1C67.75 265.959 67.8713 266.691 68.114 267.298C68.3567 267.905 68.6927 268.367 69.122 268.684C69.5607 269.001 70.0647 269.16 70.634 269.16ZM78.6862 260.2V270H77.6782V261.096H75.3682V260.2H78.6862ZM84.5708 258.212H85.4808L80.8608 271.4H79.9508L84.5708 258.212ZM92.4102 269.104V270H85.5362V269.286L89.6102 265.296C90.1236 264.792 90.4689 264.358 90.6462 263.994C90.8329 263.621 90.9262 263.247 90.9262 262.874C90.9262 262.295 90.7256 261.847 90.3242 261.53C89.9322 261.203 89.3676 261.04 88.6302 261.04C87.4822 261.04 86.5909 261.404 85.9562 262.132L85.2422 261.516C85.6249 261.068 86.1102 260.723 86.6982 260.48C87.2956 260.237 87.9676 260.116 88.7142 260.116C89.7129 260.116 90.5016 260.354 91.0802 260.83C91.6682 261.297 91.9622 261.941 91.9622 262.762C91.9622 263.266 91.8502 263.751 91.6262 264.218C91.4022 264.685 90.9776 265.221 90.3522 265.828L87.0202 269.104H92.4102ZM97.5266 270.084C96.7706 270.084 96.0939 269.883 95.4966 269.482C94.9086 269.081 94.4466 268.507 94.1106 267.76C93.7839 267.004 93.6206 266.117 93.6206 265.1C93.6206 264.083 93.7839 263.201 94.1106 262.454C94.4466 261.698 94.9086 261.119 95.4966 260.718C96.0939 260.317 96.7706 260.116 97.5266 260.116C98.2826 260.116 98.9546 260.317 99.5426 260.718C100.14 261.119 100.607 261.698 100.943 262.454C101.279 263.201 101.447 264.083 101.447 265.1C101.447 266.117 101.279 267.004 100.943 267.76C100.607 268.507 100.14 269.081 99.5426 269.482C98.9546 269.883 98.2826 270.084 97.5266 270.084ZM97.5266 269.16C98.0959 269.16 98.5952 269.001 99.0246 268.684C99.4632 268.367 99.8039 267.905 100.047 267.298C100.289 266.691 100.411 265.959 100.411 265.1C100.411 264.241 100.289 263.509 100.047 262.902C99.8039 262.295 99.4632 261.833 99.0246 261.516C98.5952 261.199 98.0959 261.04 97.5266 261.04C96.9572 261.04 96.4532 261.199 96.0146 261.516C95.5852 261.833 95.2492 262.295 95.0066 262.902C94.7639 263.509 94.6426 264.241 94.6426 265.1C94.6426 265.959 94.7639 266.691 95.0066 267.298C95.2492 267.905 95.5852 268.367 96.0146 268.684C96.4532 269.001 96.9572 269.16 97.5266 269.16ZM109.555 269.104V270H102.681V269.286L106.755 265.296C107.268 264.792 107.613 264.358 107.791 263.994C107.977 263.621 108.071 263.247 108.071 262.874C108.071 262.295 107.87 261.847 107.469 261.53C107.077 261.203 106.512 261.04 105.775 261.04C104.627 261.04 103.735 261.404 103.101 262.132L102.387 261.516C102.769 261.068 103.255 260.723 103.843 260.48C104.44 260.237 105.112 260.116 105.859 260.116C106.857 260.116 107.646 260.354 108.225 260.83C108.813 261.297 109.107 261.941 109.107 262.762C109.107 263.266 108.995 263.751 108.771 264.218C108.547 264.685 108.122 265.221 107.497 265.828L104.165 269.104H109.555ZM114.671 270.084C113.915 270.084 113.238 269.883 112.641 269.482C112.053 269.081 111.591 268.507 111.255 267.76C110.928 267.004 110.765 266.117 110.765 265.1C110.765 264.083 110.928 263.201 111.255 262.454C111.591 261.698 112.053 261.119 112.641 260.718C113.238 260.317 113.915 260.116 114.671 260.116C115.427 260.116 116.099 260.317 116.687 260.718C117.284 261.119 117.751 261.698 118.087 262.454C118.423 263.201 118.591 264.083 118.591 265.1C118.591 266.117 118.423 267.004 118.087 267.76C117.751 268.507 117.284 269.081 116.687 269.482C116.099 269.883 115.427 270.084 114.671 270.084ZM114.671 269.16C115.24 269.16 115.74 269.001 116.169 268.684C116.608 268.367 116.948 267.905 117.191 267.298C117.434 266.691 117.555 265.959 117.555 265.1C117.555 264.241 117.434 263.509 117.191 262.902C116.948 262.295 116.608 261.833 116.169 261.516C115.74 261.199 115.24 261.04 114.671 261.04C114.102 261.04 113.598 261.199 113.159 261.516C112.73 261.833 112.394 262.295 112.151 262.902C111.908 263.509 111.787 264.241 111.787 265.1C111.787 265.959 111.908 266.691 112.151 267.298C112.394 267.905 112.73 268.367 113.159 268.684C113.598 269.001 114.102 269.16 114.671 269.16Z" fill="white"/>
<path d="M70.36 293.146L72.096 294.126L71.774 294.714L70.024 293.692V295.68H69.38L69.394 293.692L67.644 294.714L67.308 294.126L69.058 293.146L67.308 292.166L67.644 291.564L69.394 292.6L69.38 290.612H70.024V292.6L71.774 291.564L72.096 292.166L70.36 293.146ZM76.0338 293.146L77.7698 294.126L77.4478 294.714L75.6978 293.692V295.68H75.0538L75.0678 293.692L73.3178 294.714L72.9818 294.126L74.7318 293.146L72.9818 292.166L73.3178 291.564L75.0678 292.6L75.0538 290.612H75.6978V292.6L77.4478 291.564L77.7698 292.166L76.0338 293.146ZM81.7077 293.146L83.4437 294.126L83.1217 294.714L81.3717 293.692V295.68H80.7277L80.7417 293.692L78.9917 294.714L78.6557 294.126L80.4057 293.146L78.6557 292.166L78.9917 291.564L80.7417 292.6L80.7277 290.612H81.3717V292.6L83.1217 291.564L83.4437 292.166L81.7077 293.146ZM87.3815 293.146L89.1175 294.126L88.7955 294.714L87.0455 293.692V295.68H86.4015L86.4155 293.692L84.6655 294.714L84.3295 294.126L86.0795 293.146L84.3295 292.166L84.6655 291.564L86.4155 292.6L86.4015 290.612H87.0455V292.6L88.7955 291.564L89.1175 292.166L87.3815 293.146ZM96.4459 293.146L98.1819 294.126L97.8599 294.714L96.1099 293.692V295.68H95.4659L95.4799 293.692L93.7299 294.714L93.3939 294.126L95.1439 293.146L93.3939 292.166L93.7299 291.564L95.4799 292.6L95.4659 290.612H96.1099V292.6L97.8599 291.564L98.1819 292.166L96.4459 293.146ZM102.12 293.146L103.856 294.126L103.534 294.714L101.784 293.692V295.68H101.14L101.154 293.692L99.4038 294.714L99.0678 294.126L100.818 293.146L99.0678 292.166L99.4038 291.564L101.154 292.6L101.14 290.612H101.784V292.6L103.534 291.564L103.856 292.166L102.12 293.146ZM107.794 293.146L109.53 294.126L109.208 294.714L107.458 293.692V295.68H106.814L106.828 293.692L105.078 294.714L104.742 294.126L106.492 293.146L104.742 292.166L105.078 291.564L106.828 292.6L106.814 290.612H107.458V292.6L109.208 291.564L109.53 292.166L107.794 293.146ZM113.467 293.146L115.203 294.126L114.881 294.714L113.131 293.692V295.68H112.487L112.501 293.692L110.751 294.714L110.415 294.126L112.165 293.146L110.415 292.166L110.751 291.564L112.501 292.6L112.487 290.612H113.131V292.6L114.881 291.564L115.203 292.166L113.467 293.146ZM122.532 293.146L124.268 294.126L123.946 294.714L122.196 293.692V295.68H121.552L121.566 293.692L119.816 294.714L119.48 294.126L121.23 293.146L119.48 292.166L119.816 291.564L121.566 292.6L121.552 290.612H122.196V292.6L123.946 291.564L124.268 292.166L122.532 293.146ZM128.206 293.146L129.942 294.126L129.62 294.714L127.87 293.692V295.68H127.226L127.24 293.692L125.49 294.714L125.154 294.126L126.904 293.146L125.154 292.166L125.49 291.564L127.24 292.6L127.226 290.612H127.87V292.6L129.62 291.564L129.942 292.166L128.206 293.146ZM133.88 293.146L135.616 294.126L135.294 294.714L133.544 293.692V295.68H132.9L132.914 293.692L131.164 294.714L130.828 294.126L132.578 293.146L130.828 292.166L131.164 291.564L132.914 292.6L132.9 290.612H133.544V292.6L135.294 291.564L135.616 292.166L133.88 293.146ZM139.553 293.146L141.289 294.126L140.967 294.714L139.217 293.692V295.68H138.573L138.587 293.692L136.837 294.714L136.501 294.126L138.251 293.146L136.501 292.166L136.837 291.564L138.587 292.6L138.573 290.612H139.217V292.6L140.967 291.564L141.289 292.166L139.553 293.146ZM152.678 300.104V301H145.804V300.286L149.878 296.296C150.391 295.792 150.736 295.358 150.914 294.994C151.1 294.621 151.194 294.247 151.194 293.874C151.194 293.295 150.993 292.847 150.592 292.53C150.2 292.203 149.635 292.04 148.898 292.04C147.75 292.04 146.858 292.404 146.224 293.132L145.51 292.516C145.892 292.068 146.378 291.723 146.966 291.48C147.563 291.237 148.235 291.116 148.982 291.116C149.98 291.116 150.769 291.354 151.348 291.83C151.936 292.297 152.23 292.941 152.23 293.762C152.23 294.266 152.118 294.751 151.894 295.218C151.67 295.685 151.245 296.221 150.62 296.828L147.288 300.104H152.678ZM156.659 291.2V301H155.651V292.096H153.341V291.2H156.659ZM162.333 295.4C163.36 295.456 164.139 295.736 164.671 296.24C165.213 296.735 165.483 297.383 165.483 298.186C165.483 298.746 165.348 299.245 165.077 299.684C164.807 300.113 164.405 300.454 163.873 300.706C163.341 300.958 162.693 301.084 161.927 301.084C161.218 301.084 160.546 300.972 159.911 300.748C159.286 300.515 158.782 300.207 158.399 299.824L158.889 299.026C159.216 299.362 159.65 299.637 160.191 299.852C160.733 300.057 161.311 300.16 161.927 300.16C162.73 300.16 163.351 299.987 163.789 299.642C164.228 299.287 164.447 298.802 164.447 298.186C164.447 297.579 164.228 297.103 163.789 296.758C163.351 296.413 162.688 296.24 161.801 296.24H161.101V295.498L163.817 292.096H158.805V291.2H165.105V291.914L162.333 295.4ZM175.234 298.424H173.274V301H172.266V298.424H166.736V297.696L171.93 291.2H173.05L168.038 297.528H172.294V295.26H173.274V297.528H175.234V298.424Z" fill="white"/>
<defs>
<filter id="filter0_d_31_292" x="-7" y="0" width="307" height="403" filterUnits="userSpaceOnUse" color-interpolation-filters="sRGB">
<feFlood flood-opacity="0" result="BackgroundImageFix"/>
<feColorMatrix in="SourceAlpha" type="matrix" values="0 0 0 0 0 0 0 0 0 0 0 0 0 0 0 0 0 0 127 0" result="hardAlpha"/>
<feOffset dy="9"/>
<feGaussianBlur stdDeviation="24.5"/>
<feComposite in2="hardAlpha" operator="out"/>
<feColorMatrix type="matrix" values="0 0 0 0 0.34902 0 0 0 0 0.533333 0 0 0 0 0.972549 0 0 0 0.25 0"/>
<feBlend mode="normal" in2="BackgroundImageFix" result="effect1_dropShadow_31_292"/>
<feBlend mode="normal" in="SourceGraphic" in2="effect1_dropShadow_31_292" result="shape"/>
</filter>
<radialGradient id="paint0_radial_31_292" cx="0" cy="0" r="1" gradientUnits="userSpaceOnUse" gradientTransform="translate(-32 304) rotate(-26.1062) scale(390.877 267.847)">
<stop stop-color="#40D3F2"/>
<stop offset="1" stop-color="#40D3F2" stop-opacity="0"/>
</radialGradient>
<radialGradient id="paint1_radial_31_292" cx="0" cy="0" r="1" gradientUnits="userSpaceOnUse" gradientTransform="translate(139 63) rotate(-24.6345) scale(199.123 136.448)">
<stop stop-color="#E100FF"/>
<stop offset="1" stop-color="#E100FF" stop-opacity="0"/>
</radialGradient>
<radialGradient id="paint2_radial_31_292" cx="0" cy="0" r="1" gradientUnits="userSpaceOnUse" gradientTransform="translate(172 230) rotate(60.9111) scale(162.496 111.35)">
<stop stop-color="#2B47FC"/>
<stop offset="1" stop-color="#2B47FC" stop-opacity="0"/>
</radialGradient>
</defs>
</svg>
