<svg width="234" height="243" viewBox="0 0 234 243" fill="none" xmlns="http://www.w3.org/2000/svg">
<g clip-path="url(#clip0_14_238)">
<path fill-rule="evenodd" clip-rule="evenodd" d="M117 221.705C169.831 221.705 212.659 179.138 212.659 126.63C212.659 74.1212 169.831 31.5547 117 31.5547C64.1689 31.5547 21.3408 74.1212 21.3408 126.63C21.3408 179.138 64.1689 221.705 117 221.705Z" stroke="#3AD29F" stroke-width="0.613889" stroke-dasharray="3.68 3.68"/>
<path fill-rule="evenodd" clip-rule="evenodd" d="M117 241.872C181.038 241.872 232.951 190.276 232.951 126.629C232.951 62.9825 181.038 11.3867 117 11.3867C52.9627 11.3867 1.0498 62.9825 1.0498 126.629C1.0498 190.276 52.9627 241.872 117 241.872Z" stroke="#3AD29F" stroke-width="0.613889" stroke-dasharray="3.68 3.68"/>
<path d="M194.603 163.344C194.607 149.927 184.336 138.712 170.896 137.455C157.455 136.199 145.261 145.315 142.748 158.498L62.3584 156.331L63.2409 170.057C63.2409 170.057 51.7779 196.345 112.024 203.349V229.919H181.672V185.743C189.675 181.085 194.596 172.562 194.603 163.344Z" fill="url(#paint0_linear_14_238)"/>
<path d="M66.0013 170.632C66.0013 170.632 55.0246 195.806 112.72 202.522V227.978H179.42V160.564L65.1445 157.484L66.0013 170.632Z" fill="#BE7C5E"/>
<path d="M99.3369 65.5788C95.7163 71.2571 88.1614 72.9634 82.4274 69.3978L46.6147 45.9428C40.9015 42.3443 39.1848 34.8356 42.7722 29.1366C46.3923 23.4661 53.9375 21.7607 59.6688 25.3176L95.4815 48.7726C101.199 52.3669 102.922 59.8765 99.3369 65.5788Z" fill="url(#paint1_linear_14_238)"/>
<path d="M97.3531 64.3009C93.9877 69.579 86.9654 71.1651 81.6354 67.851L48.335 46.0317C43.0245 42.6869 41.4286 35.7074 44.7631 30.41C48.1285 25.1319 55.1508 23.5458 60.4808 26.8599L93.7748 48.6663C99.0954 52.0096 100.695 58.9991 97.3531 64.3009Z" fill="#BE7C5E"/>
<path d="M166.759 189.096C180.593 189.096 191.808 177.95 191.808 164.2C191.808 150.451 180.593 139.305 166.759 139.305C152.926 139.305 141.711 150.451 141.711 164.2C141.711 177.95 152.926 189.096 166.759 189.096Z" fill="#BE7C5E"/>
<path d="M162.25 0H66.2942C64.1151 0 62.3486 1.75569 62.3486 3.92145V182.374C62.3486 184.54 64.1151 186.296 66.2942 186.296H162.25C164.429 186.296 166.195 184.54 166.195 182.374V3.92145C166.195 1.75569 164.429 0 162.25 0Z" fill="url(#paint2_linear_14_238)"/>
<path d="M160.395 2.51953H68.1432C65.7169 2.51953 63.75 4.47444 63.75 6.88594V179.417C63.75 181.828 65.7169 183.783 68.1432 183.783H160.395C162.821 183.783 164.788 181.828 164.788 179.417V6.88594C164.788 4.47444 162.821 2.51953 160.395 2.51953Z" fill="white"/>
<path d="M139.653 7.06641C139.049 11.0384 135.62 13.9788 131.578 13.9906H96.6836C92.643 13.9772 89.2159 11.0373 88.6121 7.06641H70.1244C69.1065 7.06641 68.1299 7.46687 67.4098 8.18196C66.6898 8.89706 66.2852 9.86729 66.2852 10.879V175.42C66.2852 176.431 66.6881 177.402 67.4076 178.118C68.1271 178.833 69.1033 179.235 70.1212 179.235H158.418C159.436 179.235 160.412 178.835 161.132 178.12C161.852 177.405 162.257 176.435 162.257 175.423V10.8822C162.257 9.87049 161.854 8.89992 161.134 8.18423C160.415 7.46853 159.439 7.06641 158.421 7.06641H139.653Z" fill="#2F56F8"/>
<path d="M125.027 9.23047H103.798C103.443 9.23047 103.154 9.51711 103.154 9.87071V9.98915C103.154 10.3427 103.443 10.6294 103.798 10.6294H125.027C125.383 10.6294 125.671 10.3427 125.671 9.98915V9.87071C125.671 9.51711 125.383 9.23047 125.027 9.23047Z" fill="#DBDBDB"/>
<path d="M130.454 10.8358C131.033 10.8358 131.503 10.3689 131.503 9.79292C131.503 9.21693 131.033 8.75 130.454 8.75C129.874 8.75 129.404 9.21693 129.404 9.79292C129.404 10.3689 129.874 10.8358 130.454 10.8358Z" fill="#DBDBDB"/>
<path d="M182.951 168.594C175.681 170.265 170.692 165.553 169.011 158.331L152.308 96.6857C150.646 89.4358 155.185 82.2126 162.469 80.5166C169.764 78.8647 177.032 83.3766 178.738 90.6163L192.369 153.852C194.05 161.077 190.217 166.923 182.951 168.594Z" fill="url(#paint3_linear_14_238)"/>
<path d="M176.864 92.1249C175.447 86.0287 169.326 82.2286 163.192 83.6371C157.058 85.0457 153.235 91.1295 154.652 97.2257L170.011 163.296C171.429 169.392 177.55 173.192 183.683 171.783C189.817 170.375 193.641 164.291 192.223 158.195L176.864 92.1249Z" fill="#BE7C5E"/>
<path d="M191.701 219.648H96.3643V241.737H191.701V219.648Z" fill="url(#paint4_linear_14_238)"/>
<path d="M189.125 222.211H98.9414V239.497H189.125V222.211Z" fill="#4D8AF0"/>
<path d="M85.4366 131.71C81.86 137.321 74.3955 139.008 68.73 135.485L44.7121 120.039C39.0668 116.484 37.3701 109.065 40.9147 103.434C44.4913 97.8236 51.9559 96.1373 57.6213 99.6603L81.6392 115.106C87.2845 118.661 88.9812 126.08 85.4366 131.71Z" fill="url(#paint5_linear_14_238)"/>
<path d="M79.4065 164.405C75.7981 170.067 68.2656 171.769 62.5486 168.214L47.6715 157.433C41.9744 153.846 40.2618 146.36 43.8387 140.678C47.4471 135.015 54.9796 133.313 60.6966 136.868L75.5737 147.653C81.2689 151.239 82.9812 158.723 79.4065 164.405Z" fill="url(#paint6_linear_14_238)"/>
<g opacity="0.5">
<path opacity="0.5" d="M114.269 121.942C130.268 121.942 143.237 109.052 143.237 93.1508C143.237 77.2497 130.268 64.3594 114.269 64.3594C98.2704 64.3594 85.3008 77.2497 85.3008 93.1508C85.3008 109.052 98.2704 121.942 114.269 121.942Z" fill="url(#paint7_linear_14_238)"/>
</g>
<path d="M114.269 120.251C129.327 120.251 141.534 108.118 141.534 93.1527C141.534 78.1869 129.327 66.0547 114.269 66.0547C99.2116 66.0547 87.0049 78.1869 87.0049 93.1527C87.0049 108.118 99.2116 120.251 114.269 120.251Z" fill="#69F0AE"/>
<path d="M102.436 89.5337L112.659 98.8491L127.143 77.6797L132.258 81.9148L112.659 107.319L98.1748 91.2303L102.436 89.5337Z" fill="white"/>
<path d="M78.2055 163.599C74.8401 168.877 67.8178 170.463 62.4878 167.149L48.6123 157.11C43.3018 153.765 41.706 146.786 45.0404 141.488C48.4058 136.21 55.4282 134.624 60.7582 137.938L74.6304 147.996C79.9303 151.339 81.5263 158.304 78.2055 163.599Z" fill="#BE7C5E"/>
<path d="M84.1151 130.863C80.7497 136.141 73.7274 137.727 68.3973 134.413L45.7998 119.879C40.4893 116.535 38.8935 109.555 42.2279 104.258C45.5933 98.9795 52.6157 97.3934 57.9457 100.708L80.5432 115.241C85.8537 118.586 87.4496 125.565 84.1151 130.863Z" fill="#BE7C5E"/>
<path d="M91.6459 99.1678C88.0517 104.803 80.5535 106.497 74.8621 102.958L44.425 83.2612C38.755 79.6889 37.0513 72.2365 40.6115 66.5798C44.2057 60.9444 51.7039 59.2511 57.3954 62.7896L87.8324 82.4865C93.5025 86.0588 95.2062 93.5112 91.6459 99.1678Z" fill="url(#paint8_linear_14_238)"/>
<path d="M90.0293 98.1449C86.6639 103.423 79.6415 105.009 74.3115 101.695L45.8037 83.2466C40.4932 79.9017 38.8974 72.9223 42.2318 67.6248C45.5972 62.3467 52.6196 60.7606 57.9496 64.0747L86.4541 82.5231C91.7658 85.8669 93.3631 92.8466 90.0293 98.1449Z" fill="#BE7C5E"/>
</g>
<defs>
<linearGradient id="paint0_linear_14_238" x1="128.486" y1="229.935" x2="128.486" y2="137.344" gradientUnits="userSpaceOnUse">
<stop stop-color="#808080" stop-opacity="0.25"/>
<stop offset="0.54" stop-color="#808080" stop-opacity="0.12"/>
<stop offset="1" stop-color="#808080" stop-opacity="0.1"/>
</linearGradient>
<linearGradient id="paint1_linear_14_238" x1="71.0513" y1="71.2641" x2="71.0513" y2="23.4577" gradientUnits="userSpaceOnUse">
<stop stop-color="#808080" stop-opacity="0.25"/>
<stop offset="0.54" stop-color="#808080" stop-opacity="0.12"/>
<stop offset="1" stop-color="#808080" stop-opacity="0.1"/>
</linearGradient>
<linearGradient id="paint2_linear_14_238" x1="114.272" y1="186.293" x2="114.272" y2="-0.00319798" gradientUnits="userSpaceOnUse">
<stop stop-color="#808080" stop-opacity="0.25"/>
<stop offset="0.54" stop-color="#808080" stop-opacity="0.12"/>
<stop offset="1" stop-color="#808080" stop-opacity="0.1"/>
</linearGradient>
<linearGradient id="paint3_linear_14_238" x1="172.361" y1="168.927" x2="172.361" y2="80.1708" gradientUnits="userSpaceOnUse">
<stop stop-color="#808080" stop-opacity="0.25"/>
<stop offset="0.54" stop-color="#808080" stop-opacity="0.12"/>
<stop offset="1" stop-color="#808080" stop-opacity="0.1"/>
</linearGradient>
<linearGradient id="paint4_linear_14_238" x1="144.039" y1="241.73" x2="144.039" y2="219.642" gradientUnits="userSpaceOnUse">
<stop stop-color="#808080" stop-opacity="0.25"/>
<stop offset="0.54" stop-color="#808080" stop-opacity="0.12"/>
<stop offset="1" stop-color="#808080" stop-opacity="0.1"/>
</linearGradient>
<linearGradient id="paint5_linear_14_238" x1="63.1708" y1="137.325" x2="63.1708" y2="97.8228" gradientUnits="userSpaceOnUse">
<stop stop-color="#808080" stop-opacity="0.25"/>
<stop offset="0.54" stop-color="#808080" stop-opacity="0.12"/>
<stop offset="1" stop-color="#808080" stop-opacity="0.1"/>
</linearGradient>
<linearGradient id="paint6_linear_14_238" x1="61.6242" y1="170.071" x2="61.6242" y2="135.008" gradientUnits="userSpaceOnUse">
<stop stop-color="#808080" stop-opacity="0.25"/>
<stop offset="0.54" stop-color="#808080" stop-opacity="0.12"/>
<stop offset="1" stop-color="#808080" stop-opacity="0.1"/>
</linearGradient>
<linearGradient id="paint7_linear_14_238" x1="114.269" y1="121.942" x2="114.269" y2="64.3562" gradientUnits="userSpaceOnUse">
<stop stop-color="#808080" stop-opacity="0.25"/>
<stop offset="0.54" stop-color="#808080" stop-opacity="0.12"/>
<stop offset="1" stop-color="#808080" stop-opacity="0.1"/>
</linearGradient>
<linearGradient id="paint8_linear_14_238" x1="66.1271" y1="104.818" x2="66.1271" y2="60.9522" gradientUnits="userSpaceOnUse">
<stop stop-color="#808080" stop-opacity="0.25"/>
<stop offset="0.54" stop-color="#808080" stop-opacity="0.12"/>
<stop offset="1" stop-color="#808080" stop-opacity="0.1"/>
</linearGradient>
<clipPath id="clip0_14_238">
<rect width="234" height="243" fill="white"/>
</clipPath>
</defs>
</svg>
