<svg width="280" height="202" viewBox="0 0 280 202" fill="none" xmlns="http://www.w3.org/2000/svg">
<g clip-path="url(#clip0_49_349)">
<path d="M140 201.065C217.32 201.065 280 193.446 280 184.048C280 174.65 217.32 167.031 140 167.031C62.6801 167.031 0 174.65 0 184.048C0 193.446 62.6801 201.065 140 201.065Z" fill="#F5F6FA"/>
<path d="M239.549 192.388C239.549 192.388 246.85 183.097 246.26 173.878C245.988 170.013 246.976 166.164 249.078 162.909C250.087 161.371 251.236 159.93 252.509 158.602" stroke="#535461" stroke-width="1.49333"/>
<path d="M252.171 152.789C251.657 154.08 252.5 158.754 252.5 158.754C252.5 158.754 256.329 155.944 256.844 154.654C257.358 153.364 256.729 151.901 255.439 151.387C254.15 150.872 252.687 151.5 252.171 152.789Z" fill="#2A46FF"/>
<path d="M245.458 158.397C245.727 159.76 248.975 163.225 248.975 163.225C248.975 163.225 250.663 158.786 250.393 157.423C250.219 156.541 249.588 155.819 248.738 155.529C247.887 155.239 246.946 155.425 246.27 156.016C245.593 156.608 245.284 157.516 245.458 158.397Z" fill="#2A46FF"/>
<path d="M240.754 170.678C241.674 171.719 246.227 173.07 246.227 173.07C246.227 173.07 245.443 168.386 244.522 167.346C243.927 166.672 243.018 166.368 242.137 166.547C241.256 166.725 240.537 167.361 240.252 168.213C239.967 169.065 240.158 170.005 240.754 170.678Z" fill="#2A46FF"/>
<path d="M239.287 180.77C240.018 181.952 244.277 184.053 244.277 184.053C244.277 184.053 244.295 179.303 243.564 178.122C243.091 177.358 242.246 176.903 241.348 176.931C240.449 176.958 239.634 177.463 239.208 178.255C238.783 179.047 238.813 180.006 239.287 180.77Z" fill="#2A46FF"/>
<path d="M253.781 165.431C252.497 165.961 247.813 165.172 247.813 165.172C247.813 165.172 250.578 161.31 251.863 160.781C253.147 160.251 254.617 160.862 255.147 162.147C255.677 163.431 255.065 164.901 253.781 165.431Z" fill="#2A46FF"/>
<path d="M251.916 177.213C250.532 177.334 246.299 175.18 246.299 175.18C246.299 175.18 250.092 172.323 251.476 172.201C252.372 172.122 253.242 172.527 253.758 173.263C254.274 174 254.358 174.955 253.978 175.77C253.598 176.585 252.811 177.135 251.916 177.213Z" fill="#2A46FF"/>
<path d="M248.531 188.417C247.187 188.771 242.651 187.363 242.651 187.363C242.651 187.363 245.908 183.906 247.251 183.552C248.595 183.199 249.97 184.001 250.324 185.345C250.677 186.688 249.874 188.064 248.531 188.417Z" fill="#2A46FF"/>
<path opacity="0.25" d="M252.171 152.789C251.657 154.08 252.5 158.754 252.5 158.754C252.5 158.754 256.329 155.944 256.844 154.654C257.358 153.364 256.729 151.901 255.439 151.387C254.15 150.872 252.687 151.5 252.171 152.789Z" fill="black"/>
<path opacity="0.25" d="M245.458 158.397C245.727 159.76 248.975 163.225 248.975 163.225C248.975 163.225 250.663 158.786 250.393 157.423C250.219 156.541 249.588 155.819 248.738 155.529C247.887 155.239 246.946 155.425 246.27 156.016C245.593 156.608 245.284 157.516 245.458 158.397Z" fill="black"/>
<path opacity="0.25" d="M240.754 170.678C241.674 171.719 246.227 173.07 246.227 173.07C246.227 173.07 245.443 168.386 244.522 167.346C243.927 166.672 243.018 166.368 242.137 166.547C241.256 166.725 240.537 167.361 240.252 168.213C239.967 169.065 240.158 170.005 240.754 170.678Z" fill="black"/>
<path opacity="0.25" d="M239.287 180.77C240.018 181.952 244.277 184.053 244.277 184.053C244.277 184.053 244.295 179.303 243.564 178.122C243.091 177.358 242.246 176.903 241.348 176.931C240.449 176.958 239.634 177.463 239.208 178.255C238.783 179.047 238.813 180.006 239.287 180.77Z" fill="black"/>
<path opacity="0.25" d="M253.781 165.431C252.497 165.961 247.813 165.172 247.813 165.172C247.813 165.172 250.578 161.31 251.863 160.781C253.147 160.251 254.617 160.862 255.147 162.147C255.677 163.431 255.065 164.901 253.781 165.431Z" fill="black"/>
<path opacity="0.25" d="M251.916 177.213C250.532 177.334 246.299 175.18 246.299 175.18C246.299 175.18 250.092 172.323 251.476 172.201C252.372 172.122 253.242 172.527 253.758 173.263C254.274 174 254.358 174.955 253.978 175.77C253.598 176.585 252.811 177.135 251.916 177.213Z" fill="black"/>
<path opacity="0.25" d="M248.531 188.417C247.187 188.771 242.651 187.363 242.651 187.363C242.651 187.363 245.908 183.906 247.251 183.552C248.595 183.199 249.97 184.001 250.324 185.345C250.677 186.688 249.874 188.064 248.531 188.417Z" fill="black"/>
<path d="M239.611 192C239.611 192 250.052 186.464 253.247 177.797C254.565 174.154 257.028 171.035 260.268 168.911C261.814 167.914 263.449 167.062 265.15 166.363" stroke="#535461" stroke-width="1.49333"/>
<path d="M267.197 160.916C266.203 161.887 265.08 166.501 265.08 166.501C265.08 166.501 269.719 165.485 270.713 164.514C271.706 163.543 271.725 161.95 270.754 160.956C269.783 159.963 268.19 159.945 267.197 160.916Z" fill="#2A46FF"/>
<path d="M258.787 163.32C258.481 164.675 260.046 169.159 260.046 169.159C260.046 169.159 263.388 165.784 263.694 164.429C263.892 163.553 263.607 162.637 262.947 162.027C262.287 161.417 261.352 161.206 260.494 161.473C259.636 161.739 258.985 162.444 258.787 163.32Z" fill="#2A46FF"/>
<path d="M249.509 172.643C249.929 173.967 253.544 177.047 253.544 177.047C253.544 177.047 254.725 172.447 254.305 171.123C254.033 170.266 253.326 169.619 252.448 169.426C251.57 169.233 250.656 169.523 250.05 170.186C249.444 170.849 249.238 171.786 249.509 172.643Z" fill="#2A46FF"/>
<path d="M244.078 181.273C244.268 182.649 247.311 186.297 247.311 186.297C247.311 186.297 249.252 181.962 249.062 180.586C248.939 179.696 248.351 178.938 247.518 178.6C246.686 178.261 245.736 178.392 245.027 178.943C244.317 179.495 243.956 180.383 244.078 181.273Z" fill="#2A46FF"/>
<path d="M263.545 173.123C262.156 173.087 258.194 170.468 258.194 170.468C258.194 170.468 262.287 168.058 263.676 168.094C265.064 168.13 266.161 169.285 266.125 170.674C266.089 172.063 264.934 173.159 263.545 173.123Z" fill="#2A46FF"/>
<path d="M257.065 183.139C255.751 182.689 252.754 179.005 252.754 179.005C252.754 179.005 257.38 177.93 258.694 178.38C260.009 178.83 260.709 180.26 260.26 181.574C259.81 182.888 258.379 183.589 257.065 183.139V183.139Z" fill="#2A46FF"/>
<path d="M249.431 192.012C248.06 191.791 244.483 188.666 244.483 188.666C244.483 188.666 248.861 186.824 250.233 187.046C251.604 187.267 252.537 188.558 252.315 189.93C252.094 191.301 250.803 192.234 249.431 192.012Z" fill="#2A46FF"/>
<path d="M159.57 23.8119C145.736 23.3316 132.56 18.8656 119.978 13.9794C107.397 9.0933 94.9344 3.67986 81.4317 1.09077C72.7471 -0.574484 62.8154 -0.810095 55.8177 3.84624C49.0838 8.32702 46.908 16.0618 45.7382 23.2387C44.858 28.6383 44.3406 34.3213 46.7521 39.3763C48.4264 42.8858 51.3993 45.8358 53.4551 49.1974C60.6084 60.8943 55.5524 75.3179 47.8002 86.7389C44.1638 92.0963 39.946 97.2073 37.1399 102.91C34.3339 108.613 33.0358 115.148 35.4908 120.966C37.9242 126.732 43.7232 131.063 50.0049 134.11C62.7633 140.297 77.7976 142.068 92.4582 143.071C124.911 145.291 157.537 144.33 190.076 143.367C202.118 143.011 214.213 142.65 226.059 140.788C232.637 139.754 239.429 138.112 244.205 134.15C250.268 129.121 251.771 120.604 247.708 114.297C240.893 103.719 222.052 101.091 217.289 89.7384C214.667 83.4893 217.36 76.5286 221.17 70.733C229.343 58.3003 243.043 47.393 243.765 33.1822C244.26 23.422 237.674 13.6474 227.491 9.02946C216.817 4.18893 202.017 4.79782 194.142 12.8105C186.034 21.0613 171.784 24.236 159.57 23.8119Z" fill="#F5F6FA"/>
<path d="M135.884 176.414C141.078 176.414 145.29 171.944 145.29 166.429C145.29 160.915 141.078 156.445 135.884 156.445C130.689 156.445 126.478 160.915 126.478 166.429C126.478 171.944 130.689 176.414 135.884 176.414Z" fill="#FBD56F"/>
<path opacity="0.1" d="M135.884 176.414C141.078 176.414 145.29 171.944 145.29 166.429C145.29 160.915 141.078 156.445 135.884 156.445C130.689 156.445 126.478 160.915 126.478 166.429C126.478 171.944 130.689 176.414 135.884 176.414Z" fill="black"/>
<path d="M137.507 176.414C142.701 176.414 146.913 172.044 146.913 166.652C146.913 161.261 142.701 156.891 137.507 156.891C132.312 156.891 128.101 161.261 128.101 166.652C128.101 172.044 132.312 176.414 137.507 176.414Z" fill="#FBD56F"/>
<path d="M141.317 175.498L140.338 174.954C140.338 174.954 139.88 176.863 140.03 178.224C140.06 178.507 140.264 178.741 140.54 178.81C142.79 179.369 153.518 181.75 160.895 178.396C161.112 178.297 161.261 178.09 161.287 177.852C161.377 177.016 161.057 175.29 160.929 174.954C160.654 174.23 141.317 175.498 141.317 175.498Z" fill="#FBD56F"/>
<path opacity="0.1" d="M141.317 175.498L140.338 174.954C140.338 174.954 139.88 176.863 140.03 178.224C140.06 178.507 140.264 178.741 140.54 178.81C142.79 179.369 153.518 181.75 160.895 178.396C161.112 178.297 161.261 178.09 161.287 177.852C161.377 177.016 161.057 175.29 160.929 174.954C160.654 174.23 141.317 175.498 141.317 175.498Z" fill="black"/>
<path d="M150.633 177.274C156.319 177.274 160.929 176.235 160.929 174.954C160.929 173.672 156.319 172.633 150.633 172.633C144.947 172.633 140.338 173.672 140.338 174.954C140.338 176.235 144.947 177.274 150.633 177.274Z" fill="#FBD56F"/>
<path d="M145.25 172.076L144.272 171.532C144.272 171.532 143.814 173.441 143.964 174.802C143.994 175.085 144.197 175.319 144.473 175.388C146.724 175.947 157.451 178.328 164.828 174.974C165.046 174.875 165.195 174.668 165.22 174.43C165.311 173.594 164.991 171.868 164.863 171.532C164.587 170.808 145.25 172.076 145.25 172.076Z" fill="#FBD56F"/>
<path opacity="0.1" d="M145.25 172.076L144.272 171.532C144.272 171.532 143.814 173.441 143.964 174.802C143.994 175.085 144.197 175.319 144.473 175.388C146.724 175.947 157.451 178.328 164.828 174.974C165.046 174.875 165.195 174.668 165.22 174.43C165.311 173.594 164.991 171.868 164.863 171.532C164.587 170.808 145.25 172.076 145.25 172.076Z" fill="black"/>
<path d="M154.567 173.852C160.253 173.852 164.862 172.813 164.862 171.532C164.862 170.25 160.253 169.211 154.567 169.211C148.881 169.211 144.271 170.25 144.271 171.532C144.271 172.813 148.881 173.852 154.567 173.852Z" fill="#FBD56F"/>
<path d="M148.728 167.576L147.749 167.032C147.749 167.032 147.292 168.941 147.441 170.302C147.471 170.585 147.675 170.819 147.951 170.888C150.201 171.447 160.929 173.828 168.306 170.474C168.523 170.375 168.672 170.168 168.698 169.93C168.788 169.094 168.468 167.368 168.34 167.032C168.065 166.308 148.728 167.576 148.728 167.576Z" fill="#FBD56F"/>
<path opacity="0.1" d="M148.728 167.576L147.749 167.032C147.749 167.032 147.292 168.941 147.441 170.302C147.471 170.585 147.675 170.819 147.951 170.888C150.201 171.447 160.929 173.828 168.306 170.474C168.523 170.375 168.672 170.168 168.698 169.93C168.788 169.094 168.468 167.368 168.34 167.032C168.065 166.308 148.728 167.576 148.728 167.576Z" fill="black"/>
<path d="M158.044 169.352C163.731 169.352 168.34 168.313 168.34 167.032C168.34 165.75 163.731 164.711 158.044 164.711C152.358 164.711 147.749 165.75 147.749 167.032C147.749 168.313 152.358 169.352 158.044 169.352Z" fill="#FBD56F"/>
<path d="M144.876 162.889L143.898 162.344C143.898 162.344 143.44 164.254 143.59 165.615C143.62 165.898 143.823 166.131 144.099 166.201C146.35 166.759 157.077 169.141 164.454 165.787C164.672 165.687 164.821 165.481 164.846 165.243C164.937 164.406 164.616 162.68 164.489 162.344C164.213 161.621 144.876 162.889 144.876 162.889Z" fill="#FBD56F"/>
<path opacity="0.1" d="M144.876 162.889L143.898 162.344C143.898 162.344 143.44 164.254 143.59 165.615C143.62 165.898 143.823 166.131 144.099 166.201C146.35 166.759 157.077 169.141 164.454 165.787C164.672 165.687 164.821 165.481 164.846 165.243C164.937 164.406 164.616 162.68 164.489 162.344C164.213 161.621 144.876 162.889 144.876 162.889Z" fill="black"/>
<path d="M154.194 164.665C159.88 164.665 164.489 163.626 164.489 162.344C164.489 161.062 159.88 160.023 154.194 160.023C148.508 160.023 143.898 161.062 143.898 162.344C143.898 163.626 148.508 164.665 154.194 164.665Z" fill="#FBD56F"/>
<path d="M153.539 159.131L152.561 158.586C152.561 158.586 152.103 160.496 152.253 161.857C152.283 162.14 152.486 162.374 152.762 162.443C155.013 163.002 165.74 165.383 173.117 162.029C173.335 161.93 173.484 161.723 173.509 161.485C173.6 160.649 173.28 158.923 173.152 158.586C172.877 157.863 153.539 159.131 153.539 159.131Z" fill="#FBD56F"/>
<path opacity="0.1" d="M153.539 159.131L152.561 158.586C152.561 158.586 152.103 160.496 152.253 161.857C152.283 162.14 152.486 162.374 152.762 162.443C155.013 163.002 165.74 165.383 173.117 162.029C173.335 161.93 173.484 161.723 173.509 161.485C173.6 160.649 173.28 158.923 173.152 158.586C172.877 157.863 153.539 159.131 153.539 159.131Z" fill="black"/>
<path d="M162.857 160.907C168.543 160.907 173.152 159.868 173.152 158.586C173.152 157.305 168.543 156.266 162.857 156.266C157.171 156.266 152.562 157.305 152.562 158.586C152.562 159.868 157.171 160.907 162.857 160.907Z" fill="#FBD56F"/>
<path d="M147.687 156.604L146.708 156.059C146.708 156.059 146.251 157.969 146.4 159.33C146.43 159.612 146.634 159.846 146.91 159.915C149.16 160.474 159.888 162.856 167.265 159.502C167.482 159.402 167.631 159.195 167.657 158.958C167.747 158.121 167.427 156.395 167.299 156.059C167.024 155.335 147.687 156.604 147.687 156.604Z" fill="#FBD56F"/>
<path opacity="0.1" d="M147.687 156.604L146.708 156.059C146.708 156.059 146.251 157.969 146.4 159.33C146.43 159.612 146.634 159.846 146.91 159.915C149.16 160.474 159.888 162.856 167.265 159.502C167.482 159.402 167.631 159.195 167.657 158.958C167.747 158.121 167.427 156.395 167.299 156.059C167.024 155.335 147.687 156.604 147.687 156.604Z" fill="black"/>
<path d="M157.003 158.38C162.69 158.38 167.299 157.341 167.299 156.059C167.299 154.777 162.69 153.738 157.003 153.738C151.317 153.738 146.708 154.777 146.708 156.059C146.708 157.341 151.317 158.38 157.003 158.38Z" fill="#FBD56F"/>
<path d="M151.594 151.725L150.615 151.18C150.615 151.18 150.158 153.09 150.307 154.451C150.338 154.734 150.541 154.967 150.817 155.036C153.068 155.595 163.795 157.977 171.172 154.623C171.39 154.523 171.539 154.317 171.564 154.079C171.655 153.242 171.334 151.516 171.206 151.18C170.931 150.456 151.594 151.725 151.594 151.725Z" fill="#FBD56F"/>
<path opacity="0.1" d="M151.594 151.725L150.615 151.18C150.615 151.18 150.158 153.09 150.307 154.451C150.338 154.734 150.541 154.967 150.817 155.036C153.068 155.595 163.795 157.977 171.172 154.623C171.39 154.523 171.539 154.317 171.564 154.079C171.655 153.242 171.334 151.516 171.206 151.18C170.931 150.456 151.594 151.725 151.594 151.725Z" fill="black"/>
<path d="M160.912 153.501C166.598 153.501 171.207 152.462 171.207 151.18C171.207 149.898 166.598 148.859 160.912 148.859C155.226 148.859 150.616 149.898 150.616 151.18C150.616 152.462 155.226 153.501 160.912 153.501Z" fill="#FBD56F"/>
<path d="M153.522 145.936L152.543 145.391C152.543 145.391 152.086 147.301 152.235 148.662C152.265 148.944 152.469 149.178 152.745 149.247C154.995 149.806 165.723 152.188 173.1 148.834C173.317 148.734 173.466 148.527 173.492 148.29C173.582 147.453 173.262 145.727 173.134 145.391C172.859 144.667 153.522 145.936 153.522 145.936Z" fill="#FBD56F"/>
<path opacity="0.1" d="M153.522 145.936L152.543 145.391C152.543 145.391 152.086 147.301 152.235 148.662C152.265 148.944 152.469 149.178 152.745 149.247C154.995 149.806 165.723 152.188 173.1 148.834C173.317 148.734 173.466 148.527 173.492 148.29C173.582 147.453 173.262 145.727 173.134 145.391C172.859 144.667 153.522 145.936 153.522 145.936Z" fill="black"/>
<path d="M162.838 147.712C168.524 147.712 173.134 146.673 173.134 145.391C173.134 144.109 168.524 143.07 162.838 143.07C157.152 143.07 152.543 144.109 152.543 145.391C152.543 146.673 157.152 147.712 162.838 147.712Z" fill="#FBD56F"/>
<path d="M170.901 176.842L169.923 176.297C169.923 176.297 169.465 178.207 169.615 179.568C169.645 179.851 169.849 180.085 170.124 180.154C172.375 180.713 183.103 183.094 190.48 179.74C190.697 179.64 190.846 179.434 190.872 179.196C190.962 178.359 190.642 176.634 190.514 176.297C190.239 175.574 170.901 176.842 170.901 176.842Z" fill="#FBD56F"/>
<path opacity="0.1" d="M170.901 176.842L169.923 176.297C169.923 176.297 169.465 178.207 169.615 179.568C169.645 179.851 169.849 180.085 170.124 180.154C172.375 180.713 183.103 183.094 190.48 179.74C190.697 179.64 190.846 179.434 190.872 179.196C190.962 178.359 190.642 176.634 190.514 176.297C190.239 175.574 170.901 176.842 170.901 176.842Z" fill="black"/>
<path d="M180.218 178.618C185.904 178.618 190.514 177.579 190.514 176.297C190.514 175.016 185.904 173.977 180.218 173.977C174.532 173.977 169.923 175.016 169.923 176.297C169.923 177.579 174.532 178.618 180.218 178.618Z" fill="#FBD56F"/>
<path d="M174.379 172.342L173.401 171.797C173.401 171.797 172.943 173.707 173.093 175.068C173.123 175.351 173.326 175.585 173.602 175.654C175.853 176.213 186.58 178.594 193.957 175.24C194.175 175.14 194.324 174.934 194.349 174.696C194.44 173.859 194.119 172.134 193.992 171.797C193.716 171.074 174.379 172.342 174.379 172.342Z" fill="#FBD56F"/>
<path opacity="0.1" d="M174.379 172.342L173.401 171.797C173.401 171.797 172.943 173.707 173.093 175.068C173.123 175.351 173.326 175.585 173.602 175.654C175.853 176.213 186.58 178.594 193.957 175.24C194.175 175.14 194.324 174.934 194.349 174.696C194.44 173.859 194.119 172.134 193.992 171.797C193.716 171.074 174.379 172.342 174.379 172.342Z" fill="black"/>
<path d="M183.696 174.118C189.382 174.118 193.991 173.079 193.991 171.797C193.991 170.516 189.382 169.477 183.696 169.477C178.01 169.477 173.4 170.516 173.4 171.797C173.4 173.079 178.01 174.118 183.696 174.118Z" fill="#FBD56F"/>
<path d="M170.528 167.659L169.55 167.114C169.55 167.114 169.092 169.023 169.242 170.384C169.272 170.667 169.476 170.901 169.751 170.97C172.002 171.529 182.73 173.91 190.107 170.556C190.324 170.457 190.473 170.25 190.499 170.012C190.589 169.176 190.269 167.45 190.141 167.114C189.866 166.39 170.528 167.659 170.528 167.659Z" fill="#FBD56F"/>
<path opacity="0.1" d="M170.528 167.659L169.55 167.114C169.55 167.114 169.092 169.023 169.242 170.384C169.272 170.667 169.476 170.901 169.751 170.97C172.002 171.529 182.73 173.91 190.107 170.556C190.324 170.457 190.473 170.25 190.499 170.012C190.589 169.176 190.269 167.45 190.141 167.114C189.866 166.39 170.528 167.659 170.528 167.659Z" fill="black"/>
<path d="M179.845 169.434C185.531 169.434 190.141 168.395 190.141 167.114C190.141 165.832 185.531 164.793 179.845 164.793C174.159 164.793 169.55 165.832 169.55 167.114C169.55 168.395 174.159 169.434 179.845 169.434Z" fill="#FBD56F"/>
<path d="M179.191 163.897L178.213 163.352C178.213 163.352 177.755 165.262 177.905 166.623C177.935 166.905 178.139 167.139 178.415 167.208C180.665 167.767 191.393 170.149 198.77 166.794C198.987 166.695 199.136 166.488 199.162 166.251C199.252 165.414 198.932 163.688 198.804 163.352C198.529 162.628 179.191 163.897 179.191 163.897Z" fill="#FBD56F"/>
<path opacity="0.1" d="M179.191 163.897L178.213 163.352C178.213 163.352 177.755 165.262 177.905 166.623C177.935 166.905 178.139 167.139 178.415 167.208C180.665 167.767 191.393 170.149 198.77 166.794C198.987 166.695 199.136 166.488 199.162 166.251C199.252 165.414 198.932 163.688 198.804 163.352C198.529 162.628 179.191 163.897 179.191 163.897Z" fill="black"/>
<path d="M188.508 165.673C194.194 165.673 198.804 164.634 198.804 163.352C198.804 162.07 194.194 161.031 188.508 161.031C182.822 161.031 178.213 162.07 178.213 163.352C178.213 164.634 182.822 165.673 188.508 165.673Z" fill="#FBD56F"/>
<path d="M173.338 161.369L172.36 160.825C172.36 160.825 171.902 162.734 172.052 164.095C172.082 164.378 172.285 164.612 172.561 164.681C174.812 165.24 185.539 167.621 192.916 164.267C193.134 164.168 193.283 163.961 193.308 163.723C193.399 162.887 193.078 161.161 192.951 160.825C192.675 160.101 173.338 161.369 173.338 161.369Z" fill="#FBD56F"/>
<path opacity="0.1" d="M173.338 161.369L172.36 160.825C172.36 160.825 171.902 162.734 172.052 164.095C172.082 164.378 172.285 164.612 172.561 164.681C174.812 165.24 185.539 167.621 192.916 164.267C193.134 164.168 193.283 163.961 193.308 163.723C193.399 162.887 193.078 161.161 192.951 160.825C192.675 160.101 173.338 161.369 173.338 161.369Z" fill="black"/>
<path d="M182.655 163.145C188.341 163.145 192.95 162.106 192.95 160.825C192.95 159.543 188.341 158.504 182.655 158.504C176.969 158.504 172.359 159.543 172.359 160.825C172.359 162.106 176.969 163.145 182.655 163.145Z" fill="#FBD56F"/>
<path d="M177.246 156.494L176.268 155.95C176.268 155.95 175.81 157.859 175.96 159.22C175.99 159.503 176.193 159.737 176.469 159.806C178.72 160.365 189.448 162.746 196.824 159.392C197.042 159.293 197.191 159.086 197.216 158.848C197.307 158.012 196.987 156.286 196.859 155.95C196.584 155.226 177.246 156.494 177.246 156.494Z" fill="#FBD56F"/>
<path opacity="0.1" d="M177.246 156.494L176.268 155.95C176.268 155.95 175.81 157.859 175.96 159.22C175.99 159.503 176.193 159.737 176.469 159.806C178.72 160.365 189.448 162.746 196.824 159.392C197.042 159.293 197.191 159.086 197.216 158.848C197.307 158.012 196.987 156.286 196.859 155.95C196.584 155.226 177.246 156.494 177.246 156.494Z" fill="black"/>
<path d="M186.563 158.27C192.249 158.27 196.859 157.231 196.859 155.95C196.859 154.668 192.249 153.629 186.563 153.629C180.877 153.629 176.268 154.668 176.268 155.95C176.268 157.231 180.877 158.27 186.563 158.27Z" fill="#FBD56F"/>
<path d="M179.174 150.701L178.196 150.157C178.196 150.157 177.738 152.066 177.887 153.427C177.918 153.71 178.121 153.944 178.397 154.013C180.648 154.572 191.375 156.953 198.752 153.599C198.97 153.5 199.119 153.293 199.144 153.055C199.235 152.219 198.914 150.493 198.786 150.157C198.511 149.433 179.174 150.701 179.174 150.701Z" fill="#FBD56F"/>
<path opacity="0.1" d="M179.174 150.701L178.196 150.157C178.196 150.157 177.738 152.066 177.887 153.427C177.918 153.71 178.121 153.944 178.397 154.013C180.648 154.572 191.375 156.953 198.752 153.599C198.97 153.5 199.119 153.293 199.144 153.055C199.235 152.219 198.914 150.493 198.786 150.157C198.511 149.433 179.174 150.701 179.174 150.701Z" fill="black"/>
<path d="M188.491 152.477C194.177 152.477 198.786 151.438 198.786 150.157C198.786 148.875 194.177 147.836 188.491 147.836C182.805 147.836 178.195 148.875 178.195 150.157C178.195 151.438 182.805 152.477 188.491 152.477Z" fill="#FBD56F"/>
<path d="M241.228 190.5C239.795 190.45 239.744 189.894 237.901 188.934C236.861 188.393 235.282 186.82 234.105 185.555C234.01 185.453 233.919 185.354 233.831 185.258C234.142 185.251 234.318 185.248 234.318 185.248C234.318 185.248 233.858 181.207 234.267 180.248C234.677 179.288 234.37 173.581 234.37 173.581C234.37 173.581 234.626 169.237 234.165 168.227C233.704 167.217 234.318 160.752 234.318 160.752C234.318 160.752 234.728 156.914 234.83 149.086C234.933 141.257 230.326 141.005 230.326 141.005C230.326 141.005 229.712 140.957 228.78 140.868C228.69 140.86 228.595 140.851 228.5 140.842C229.104 139.577 229.456 138.631 229.456 138.631C229.456 138.631 228.688 131.308 228.484 130.045C228.279 128.783 227.051 123.58 227.051 123.58C227.051 123.58 226.18 121.358 225.669 119.793C225.157 118.227 223.621 116.409 223.621 116.409C223.621 116.409 220.858 110.954 220.09 110.146C219.734 109.771 219.234 109.299 218.801 108.9C218.723 108.828 218.648 108.759 218.576 108.693C218.692 108.124 218.753 107.545 218.759 106.964C218.759 106.964 215.893 104.136 215.688 103.429C215.483 102.722 212.771 100.095 212.771 100.095C212.771 100.095 211.235 97.2671 209.495 97.2166C208.673 97.17 207.848 97.195 207.03 97.2913C207.388 95.9685 207.81 94.5826 208.19 93.3934C208.232 93.2608 208.274 93.1317 208.315 93.0044C209.705 92.0639 210.797 90.744 211.459 89.2014C211.495 89.1193 211.528 89.0364 211.561 88.9536C211.579 88.954 211.598 88.957 211.616 88.9568C211.688 88.9559 211.76 88.9494 211.831 88.9373C212.404 88.8389 212.889 88.1919 212.625 87.6814C212.66 87.7401 212.724 87.7752 212.792 87.7731C212.983 87.7667 213.216 87.4905 213.261 87.2475C213.268 87.2054 213.273 87.1627 213.279 87.1204C213.287 87.0676 213.296 87.015 213.302 86.962C213.308 86.9122 213.312 86.8623 213.316 86.8124C213.32 86.7608 213.324 86.7094 213.327 86.6577C213.329 86.6094 213.331 86.5611 213.332 86.5127C213.333 86.457 213.332 86.4015 213.331 86.3458C213.331 86.3013 213.33 86.2568 213.328 86.2123C213.325 86.1446 213.319 86.0771 213.313 86.0096C213.31 85.9819 213.31 85.954 213.307 85.9263L213.306 85.9303C213.276 85.6544 213.221 85.3817 213.141 85.1159C212.858 84.1771 212.265 83.2461 212.494 82.293C212.496 82.2828 212.501 82.2734 212.503 82.2632L212.504 82.2651C212.694 81.5255 213.334 80.9881 213.726 80.3273C213.763 80.2643 213.796 80.1993 213.828 80.1341C213.834 80.1221 213.841 80.1107 213.847 80.0987C213.871 80.0495 213.891 79.9991 213.911 79.9489C213.925 79.9166 213.939 79.8848 213.952 79.8522C213.968 79.8082 213.982 79.7633 213.996 79.7186C214.009 79.6779 214.023 79.6375 214.035 79.5963C214.046 79.5567 214.054 79.5166 214.064 79.4766C214.075 79.4284 214.087 79.3803 214.096 79.3316C214.103 79.2967 214.108 79.2616 214.113 79.2265C214.122 79.1713 214.13 79.1161 214.136 79.0605C214.139 79.0304 214.141 79.0003 214.143 78.9701C214.148 78.9081 214.152 78.846 214.153 78.7837C214.154 78.7588 214.154 78.7339 214.154 78.7089C214.155 78.6409 214.153 78.5728 214.149 78.5047C214.148 78.4843 214.147 78.4639 214.145 78.4435C214.14 78.3709 214.133 78.2986 214.123 78.2264C214.122 78.216 214.121 78.2055 214.12 78.195L214.119 78.1979C214.033 77.5632 213.78 76.9628 213.386 76.4571C212.478 75.3756 211.113 74.7852 209.702 74.8637C209.318 74.9071 208.93 74.9142 208.544 74.885C207.901 74.7908 207.358 74.3827 206.846 73.9882C205.417 72.8875 203.988 71.7867 202.559 70.686C202.081 70.2704 201.532 69.9441 200.938 69.7226C200.332 69.5371 199.606 69.6011 199.158 70.0437C198.355 70.8359 198.865 72.199 198.543 73.2731C198.264 74.2034 197.365 74.8339 196.435 75.1481C195.505 75.4623 194.51 75.5313 193.554 75.7588C193.269 75.8049 193.003 75.9273 192.783 76.1131C192.535 76.4136 192.415 76.7989 192.448 77.1868C192.442 78.1381 192.67 79.0761 193.113 79.918C193.294 80.261 193.513 80.6075 193.705 80.959C193.721 80.988 193.736 81.0171 193.752 81.0462C193.773 81.0865 193.795 81.1268 193.815 81.1673C193.849 81.233 193.88 81.2988 193.911 81.3649C193.924 81.3934 193.935 81.422 193.948 81.4506C193.968 81.4974 193.987 81.5442 194.005 81.5912C194.016 81.6211 194.027 81.651 194.038 81.681C194.057 81.7363 194.075 81.7917 194.09 81.8472C194.193 82.1739 194.202 82.5225 194.118 82.8543C193.971 83.3972 193.547 83.8154 193.173 84.2395C192.868 84.5709 192.651 84.9734 192.542 85.4103L192.54 85.42C192.519 85.5215 192.515 85.6259 192.528 85.7287C192.53 85.7415 192.532 85.7544 192.534 85.7668C192.539 85.7897 192.545 85.8123 192.553 85.8344C192.559 85.8504 192.565 85.8661 192.573 85.8814C192.581 85.8994 192.59 85.9169 192.6 85.9337C192.618 85.9619 192.64 85.9877 192.665 86.0105C192.676 86.02 192.688 86.0289 192.701 86.0372C192.721 86.0525 192.743 86.066 192.766 86.0775C192.78 86.0844 192.795 86.091 192.81 86.0968C192.844 86.1095 192.879 86.119 192.915 86.1254C192.925 86.1273 192.933 86.1304 192.944 86.1319C192.999 86.139 193.054 86.1413 193.109 86.1389C193.125 86.1384 193.142 86.1364 193.158 86.1352C193.211 86.1313 193.264 86.1246 193.316 86.1153C193.335 86.112 193.353 86.109 193.373 86.1049C193.449 86.0893 193.528 86.0701 193.615 86.0431C193.902 85.9562 194.182 85.8457 194.451 85.7125C194.451 85.7433 194.449 85.7736 194.449 85.8044C194.449 85.8575 194.449 85.913 194.454 85.9661C194.468 86.9565 194.655 87.9369 195.007 88.863C195.555 90.3062 196.476 91.5786 197.676 92.5508C197.661 92.6381 197.645 92.7257 197.627 92.8136C197.38 94.0247 196.864 95.2399 196.546 95.1459C196.234 95.0765 195.916 95.0416 195.597 95.0419C195.5 95.039 195.407 95.0377 195.318 95.0372L195.318 95.0369C195.028 95.0034 194.737 95.0034 194.448 95.0369C194.318 95.0457 194.189 95.0278 194.067 94.9843C193.24 94.7237 192.361 94.6744 191.51 94.8409C189.74 95.2035 187.048 95.8672 186.31 96.6611C185.183 97.8732 183.546 99.0349 181.703 104.085C181.703 104.085 180.782 107.166 180.065 107.57C180.223 107.488 180.385 107.415 180.552 107.352C180.456 107.519 180.325 107.662 180.168 107.772C180.427 107.64 180.697 107.527 180.974 107.436C180.414 110.727 181.242 120.139 181.242 120.139C181.242 120.139 180.577 121.762 181.447 122.722C181.964 123.292 182.245 124.181 182.389 124.811C182.349 124.874 182.307 124.939 182.263 125.007V125.008C181.802 125.722 181.186 126.653 180.782 127.166C180.065 128.075 180.27 130.954 180.27 130.954C180.27 130.954 180.116 132.318 179.605 132.823C179.093 133.328 179.195 135.197 179.195 135.197L177.864 140.096C177.864 140.096 176.636 141.207 176.636 141.712C176.636 142.217 175.664 143.631 175.664 143.631C175.664 143.631 174.179 146.055 175.664 145.702C176.205 145.543 176.712 145.288 177.162 144.948L177.161 144.985C177.159 145.073 177.157 145.164 177.156 145.255C177.114 147.896 177.402 151.611 179.349 151.611C182.368 151.611 190.148 155.197 190.148 155.197C191.735 156.409 193.884 156.005 193.884 156.005C193.884 156.005 190.097 159.793 190.199 161.359C190.302 162.924 188.05 165.5 188.05 165.5L181.089 179.086C181.128 180.033 181.296 180.969 181.588 181.871C181.555 181.899 181.52 181.927 181.488 181.957C178.813 184.4 178.581 189.238 178.581 189.238L177.967 191.712L187.282 195.803C187.282 195.803 199.361 196.056 201.459 195.5C203.558 194.945 203.097 192.621 200.333 192.167C197.57 191.712 196.904 190.5 195.983 189.945C195.362 189.57 193.155 187.148 191.785 185.612C191.764 185.589 191.745 185.567 191.725 185.544L192.042 183.783C192.656 183.48 193.577 180.45 193.577 180.45C193.577 180.45 193.577 179.237 194.192 178.884C194.806 178.53 196.085 174.894 196.085 174.894C196.085 174.894 198.849 170.298 198.696 169.692C198.542 169.086 200.692 166.005 200.692 166.005C200.692 166.005 204.326 162.47 204.172 161.838C204.019 161.207 207.09 157.975 207.09 157.975C208.199 157.128 209.124 156.063 209.807 154.845C210.084 154.801 210.381 154.753 210.694 154.701C214.713 154.042 221.391 152.851 222.137 152.52C223.161 152.066 222.956 154.086 222.547 155.803C222.137 157.52 221.83 165.752 222.291 166.813C222.751 167.874 222.547 169.591 222.547 169.591L221.932 178.833L222.342 180.803C222.342 180.803 220.96 181.914 221.523 182.571C222.086 183.227 221.574 186.056 221.574 186.056C221.622 186.038 221.68 186.02 221.744 186.003C221.695 186.114 221.648 186.228 221.606 186.348C220.812 188.609 221.267 192.318 221.267 192.318V195.248C221.267 195.248 235.444 195.5 238.567 195.5C241.689 195.5 245.988 193.985 246.244 192.773C246.5 191.561 242.661 190.551 241.228 190.5ZM200.904 137.922L199.976 138C200.283 137.955 200.594 137.929 200.904 137.922ZM206.567 99.1554C206.697 98.5711 206.854 97.9427 207.028 97.2982L206.567 99.1554ZM208.318 139.338C207.432 139.689 206.447 139.69 205.56 139.341L205.554 139.338C205.554 139.338 205.605 135.803 206.015 134.338C206.424 132.873 206.987 130.197 206.987 130.197C206.987 130.197 207.448 126.51 207.908 124.843C208.369 123.176 210.16 113.883 211.082 113.277C212.003 112.671 212.515 113.732 212.515 113.732C212.515 113.732 212.652 113.729 212.883 113.704C212.926 113.8 212.975 113.903 213.03 114.013C214.122 116.22 217.326 120.752 217.326 120.752C218.276 121.338 219.081 122.133 219.68 123.075C220.55 124.54 220.806 127.974 220.806 127.974C220.806 127.974 222.751 135.601 223.673 136.661C224.133 137.192 223.928 137.508 223.609 137.691C222.956 138.048 222.402 138.56 221.994 139.183C221.863 139.391 221.724 139.619 221.583 139.863C221.231 139.781 220.915 139.696 220.653 139.608C218.145 138.765 209.7 138.732 208.318 139.338V139.338Z" fill="url(#paint0_linear_49_349)"/>
<path d="M220.931 192.349V195.254C220.931 195.254 234.804 195.504 237.859 195.504C240.914 195.504 245.121 194.002 245.372 192.8C245.622 191.598 241.866 190.596 240.464 190.546C239.061 190.496 239.011 189.945 237.208 188.993C236.191 188.456 234.645 186.897 233.493 185.642C232.605 184.673 231.95 183.885 231.95 183.885C231.95 183.885 224.487 183.735 222.334 184.937C221.838 185.214 221.495 185.757 221.263 186.428C220.487 188.671 220.931 192.349 220.931 192.349Z" fill="#434175"/>
<path opacity="0.1" d="M221.264 186.428C222.828 185.884 231.988 185.673 233.494 185.642C232.605 184.673 231.95 183.885 231.95 183.885C231.95 183.885 224.488 183.735 222.334 184.937C221.839 185.214 221.496 185.757 221.264 186.428Z" fill="black"/>
<path d="M181.016 140.113C181.016 140.113 181.305 140.288 181.825 140.601C181.919 140.658 182.02 140.72 182.128 140.785C182.458 140.984 182.854 141.221 183.305 141.494C189.6 145.287 206.77 155.57 207.71 155.488C207.956 155.467 208.696 155.356 209.718 155.19C209.988 155.145 210.279 155.098 210.585 155.046C214.518 154.393 221.053 153.212 221.783 152.884C222.785 152.433 222.584 154.436 222.184 156.139C221.783 157.842 221.482 166.005 221.933 167.057C222.384 168.109 222.184 169.812 222.184 169.812L221.583 178.977L221.983 180.93C221.983 180.93 220.631 182.032 221.182 182.683C221.733 183.334 221.232 186.139 221.232 186.139C222.835 185.538 233.703 185.337 233.703 185.337C233.703 185.337 233.252 181.331 233.653 180.379C234.053 179.428 233.753 173.768 233.753 173.768C233.753 173.768 234.003 169.461 233.552 168.459C233.102 167.458 233.703 161.047 233.703 161.047C233.703 161.047 234.103 157.241 234.203 149.478C234.304 141.715 229.796 141.465 229.796 141.465C229.796 141.465 229.195 141.418 228.283 141.33C226.498 141.158 223.523 140.831 221.536 140.399C221.128 140.315 220.726 140.208 220.331 140.08C217.876 139.244 209.613 139.211 208.261 139.812C207.395 140.16 206.429 140.161 205.562 139.815L205.556 139.812L204.504 138.109L194.459 138.966L193.394 139.057L183.505 139.9L182.825 139.958L181.016 140.113Z" fill="#565387"/>
<path opacity="0.1" d="M221.282 147.795C224.2 149.217 226.985 144.175 228.283 141.329C226.498 141.158 223.523 140.83 221.536 140.398C220.229 142.592 218.485 146.431 221.282 147.795Z" fill="black"/>
<path d="M212.518 113.721C212.579 114.065 212.699 114.396 212.872 114.7C213.94 116.889 217.075 121.383 217.075 121.383C218.008 121.967 218.796 122.755 219.379 123.687C220.231 125.139 220.481 128.545 220.481 128.545C220.481 128.545 222.384 136.108 223.286 137.159C223.736 137.685 223.536 137.999 223.224 138.18C222.583 138.536 222.04 139.044 221.643 139.659C220.33 141.771 218.233 145.959 221.182 147.396C225.189 149.349 228.945 139.113 228.945 139.113C228.945 139.113 228.194 131.851 227.993 130.598C227.793 129.346 226.591 124.188 226.591 124.188C226.591 124.188 225.74 121.984 225.239 120.432C224.738 118.879 223.236 117.076 223.236 117.076C223.236 117.076 220.531 111.667 219.78 110.866C219.431 110.494 218.943 110.025 218.519 109.63C218.029 109.172 217.626 108.812 217.626 108.812C217.626 108.812 212.468 112.519 212.518 113.721Z" fill="#D9B5BB"/>
<path d="M178.562 191.748L187.677 195.805C187.677 195.805 199.496 196.056 201.549 195.505C203.603 194.954 203.152 192.65 200.448 192.199C197.743 191.748 197.092 190.546 196.191 189.996C195.583 189.624 193.423 187.222 192.083 185.699C191.438 184.966 190.982 184.436 190.982 184.436C190.982 184.436 189.229 179.779 184.371 180.83C183.485 181.022 182.667 181.452 182.007 182.074C179.39 184.497 179.163 189.294 179.163 189.294L178.562 191.748Z" fill="#434175"/>
<path opacity="0.1" d="M182.129 140.786C182.458 140.985 182.854 141.223 183.306 141.495C189.6 145.288 206.771 155.571 207.71 155.489C207.957 155.468 208.697 155.357 209.718 155.191C209.989 155.147 210.279 155.1 210.586 155.047C210.598 155.028 210.609 155.009 210.62 154.99C211.124 154.109 211.51 153.166 211.767 152.184C212.819 148.177 207.61 145.122 207.61 145.122L206.508 144.266C205.256 142.157 196.241 140.164 196.241 140.164L195.079 139.384L194.459 138.967L194.296 138.858L192.886 137.91L185.824 138.411L183.727 139.759L183.505 139.901L182.727 140.402L182.129 140.786Z" fill="black"/>
<path opacity="0.1" d="M182.008 182.074C183.925 188.705 191.934 186.54 191.934 186.54L192.083 185.699C191.438 184.966 190.983 184.436 190.983 184.436C190.983 184.436 189.23 179.779 184.372 180.83C183.485 181.022 182.668 181.452 182.008 182.074Z" fill="black"/>
<path d="M179.914 151.982C182.869 151.982 190.481 155.538 190.481 155.538C192.034 156.74 194.137 156.339 194.137 156.339C194.137 156.339 190.431 160.096 190.531 161.648C190.632 163.201 188.428 165.755 188.428 165.755L181.617 179.227C182.117 188.793 191.934 186.139 191.934 186.139L192.334 183.885C192.935 183.584 193.837 180.58 193.837 180.58C193.837 180.58 193.837 179.378 194.438 179.027C195.039 178.676 196.291 175.07 196.291 175.07C196.291 175.07 198.995 170.513 198.845 169.912C198.695 169.311 200.798 166.256 200.798 166.256C200.798 166.256 204.354 162.75 204.204 162.124C204.054 161.498 207.059 158.293 207.059 158.293C208.147 157.45 209.052 156.394 209.718 155.19C210.222 154.309 210.608 153.365 210.865 152.383C211.712 149.157 208.499 146.546 207.216 145.654C206.905 145.437 206.708 145.321 206.708 145.321L205.606 144.465C205.037 143.505 202.862 142.571 200.659 141.837C199.07 141.307 197.467 140.881 196.442 140.626C195.764 140.457 195.339 140.363 195.339 140.363L194.177 139.583L193.769 139.308L193.394 139.057L191.984 138.109L188.842 138.332L184.922 138.61L182.825 139.958L181.825 140.601L177.911 143.118C177.911 143.118 177.807 144.081 177.774 145.374C177.772 145.475 177.77 145.576 177.768 145.68C177.727 148.298 178.009 151.982 179.914 151.982Z" fill="#565387"/>
<path d="M194.989 95.8896L196.041 99.6458C196.041 99.6458 197.894 106.107 198.094 106.557C198.295 107.008 203.153 111.566 203.353 111.666C203.553 111.766 206.199 113.268 206.199 113.268C206.199 113.268 206.408 105.005 206.208 102.601C206.19 102.073 206.234 101.544 206.338 101.026C206.658 99.142 207.466 96.3795 208.136 94.2519C208.697 92.469 209.163 91.1318 209.163 91.1318C209.163 91.1318 197.443 90.631 197.844 91.7829C197.995 92.2186 197.946 92.9468 197.8 93.677C197.558 94.878 197.054 96.083 196.742 95.9898C196.437 95.9209 196.126 95.8863 195.814 95.8866C195.381 95.8736 194.989 95.8896 194.989 95.8896Z" fill="#D9B5BB"/>
<path opacity="0.1" d="M197.8 93.677C200.74 96.1309 204.942 96.3646 208.136 94.2519C208.697 92.469 209.163 91.1318 209.163 91.1318C209.163 91.1318 197.443 90.631 197.844 91.7829C197.995 92.2186 197.946 92.9468 197.8 93.677Z" fill="black"/>
<path d="M212.018 86.7267C212.018 87.6457 211.872 88.5588 211.585 89.4316C211.512 89.6568 211.429 89.8783 211.334 90.0952C209.954 93.3647 206.719 95.4618 203.171 95.3878C199.623 95.3138 196.478 93.0837 195.235 89.7596C194.891 88.8403 194.708 87.8685 194.694 86.887C194.689 86.8344 194.689 86.7793 194.689 86.7267C194.689 81.9416 198.569 78.0625 203.354 78.0625C208.139 78.0625 212.018 81.9416 212.018 86.7267Z" fill="#D9B5BB"/>
<path opacity="0.1" d="M194.989 95.8909L196.041 99.6471C196.041 99.6471 197.894 106.108 198.094 106.559C198.295 107.009 203.153 111.567 203.353 111.667C203.553 111.767 206.199 113.27 206.199 113.27C206.199 113.27 206.408 105.006 206.208 102.602C206.19 102.074 206.234 101.546 206.338 101.027L205.657 103.804L205.707 109.363L206.108 109.664L205.206 111.016V110.014C205.206 110.014 202.001 106.909 201.5 105.607C200.999 104.305 199.196 101.947 199.196 101.947C199.196 101.947 197.143 98.4952 197.093 97.8942C197.054 97.4255 196.191 96.3417 195.814 95.8879C195.381 95.8749 194.989 95.8909 194.989 95.8909Z" fill="black"/>
<path opacity="0.1" d="M212.518 113.721C212.579 114.065 212.699 114.396 212.872 114.7C213.966 114.588 217.697 113.892 218.519 109.63C218.029 109.172 217.626 108.812 217.626 108.812C217.626 108.812 212.468 112.519 212.518 113.721Z" fill="black"/>
<path opacity="0.1" d="M177.769 145.68C178.779 144.965 179.741 143.989 180.315 143.719C181.166 143.318 182.468 142.016 182.468 142.016C182.468 142.016 182.799 141.791 183.306 141.494C184.235 140.949 185.759 140.16 186.926 140.063C187.971 139.975 191.445 139.753 194.178 139.583C196.155 139.459 197.744 139.361 197.744 139.361C197.744 139.361 200.999 138.21 202.401 138.961C203.406 139.464 204.464 139.85 205.556 140.113C205.556 140.113 205.557 140.003 205.562 139.815L205.556 139.812L204.505 138.109L193.394 139.057L191.984 138.109L184.922 138.61L182.825 139.958L181.016 140.113C181.016 140.113 181.305 140.288 181.825 140.601L177.911 143.118C177.911 143.118 177.791 144.236 177.769 145.68Z" fill="black"/>
<path d="M176.308 146.121C176.838 145.963 177.335 145.71 177.774 145.374V145.373C178.783 144.658 179.741 143.686 180.314 143.416C181.166 143.016 182.468 141.714 182.468 141.714C182.468 141.714 185.122 139.911 186.925 139.76C187.417 139.719 188.445 139.648 189.68 139.568C190.944 139.484 192.423 139.39 193.768 139.307C194.544 139.258 195.274 139.211 195.891 139.173C196.997 139.105 197.743 139.059 197.743 139.059C197.743 139.059 200.998 137.907 202.401 138.659C203.405 139.162 204.464 139.548 205.556 139.81C205.556 139.81 205.606 136.305 206.007 134.852C206.407 133.4 206.958 130.746 206.958 130.746C206.958 130.746 207.409 127.089 207.86 125.437C208.31 123.784 210.063 114.569 210.965 113.968C211.866 113.367 212.367 114.419 212.367 114.419C212.367 114.419 218.377 114.318 218.477 107.707C218.477 107.707 215.673 104.903 215.472 104.202C215.272 103.501 212.618 100.896 212.618 100.896C212.618 100.896 211.115 98.0916 209.412 98.0415C208.608 97.9952 207.801 98.02 207 98.1156L205.556 104.001L205.606 109.561L206.007 109.861L205.105 111.213V110.212C205.105 110.212 201.9 107.106 201.399 105.804C200.898 104.502 199.095 102.144 199.095 102.144C199.095 102.144 197.042 98.6926 196.992 98.0916C196.942 97.4906 195.539 95.8799 195.539 95.8799C195.257 95.8468 194.971 95.8468 194.688 95.8799C194.562 95.8887 194.435 95.8709 194.315 95.8279C193.507 95.5695 192.646 95.5205 191.813 95.6856C190.081 96.0452 187.447 96.7033 186.725 97.4906C185.623 98.6926 184.02 99.8445 182.217 104.853L191.933 108.359L191.102 109.939L183.369 124.635C183.369 124.635 183.113 125.053 182.765 125.599V125.6C182.315 126.308 181.712 127.232 181.316 127.741C180.615 128.642 180.815 131.497 180.815 131.497C180.815 131.497 180.665 132.849 180.164 133.35C179.663 133.851 179.763 135.704 179.763 135.704L178.461 140.562C178.461 140.562 177.259 141.664 177.259 142.164C177.259 142.665 176.308 144.068 176.308 144.068C176.308 144.068 174.855 146.471 176.308 146.121Z" fill="#434175"/>
<path opacity="0.1" d="M227.593 149.73C227.593 149.73 224.438 150.782 223.586 152.285C222.735 153.787 227.593 149.73 227.593 149.73Z" fill="black"/>
<path opacity="0.1" d="M225.99 146.422C225.889 146.572 221.668 150.808 221.933 151.831C222.198 152.854 225.99 146.422 225.99 146.422Z" fill="black"/>
<path opacity="0.1" d="M202.802 149.43C202.802 149.43 198.094 151.65 197.694 152.618C197.293 153.587 202.802 149.43 202.802 149.43Z" fill="black"/>
<path opacity="0.1" d="M202.501 152.281C202.501 152.281 198.253 154.084 197.672 154.535C197.092 154.986 202.501 152.281 202.501 152.281Z" fill="black"/>
<path opacity="0.1" d="M200.548 156.141C200.548 156.141 198.666 157.543 197.628 156.441C196.591 155.339 200.548 156.141 200.548 156.141Z" fill="black"/>
<path opacity="0.1" d="M207.61 119.578C207.509 119.728 201.249 130.997 199.596 131.848C197.944 132.7 207.61 119.578 207.61 119.578Z" fill="black"/>
<path opacity="0.1" d="M207.309 123.836C207.309 124.086 201.199 137.158 200.197 137.308C199.195 137.458 207.309 123.836 207.309 123.836Z" fill="black"/>
<path opacity="0.1" d="M184.071 132.25C184.071 132.25 181.12 138.552 179.964 138.911C178.808 139.27 184.071 132.25 184.071 132.25Z" fill="black"/>
<path opacity="0.1" d="M183.57 129.445C183.57 129.445 182.553 131.649 181.934 131.649C181.316 131.649 183.57 129.445 183.57 129.445Z" fill="black"/>
<path opacity="0.1" d="M212.018 86.7267C212.018 87.6457 211.872 88.5588 211.585 89.4316C211.512 89.6568 211.429 89.8783 211.334 90.0952C210.889 90.0278 210.47 89.8438 210.12 89.5618C209.748 89.3098 209.437 88.9778 209.21 88.5901C209.04 88.1769 208.892 87.7547 208.767 87.3253C208.36 86.3383 207.451 85.6492 206.39 85.5246C206.678 86.0155 206.22 86.6892 205.657 86.7768C205.093 86.862 204.545 86.5264 204.156 86.1081C203.768 85.6899 203.488 85.1815 203.102 84.7632C202.714 84.345 202.165 84.0094 201.602 84.0945C201.103 84.1697 200.718 84.5503 200.299 84.8334C199.884 85.1164 199.3 85.3067 198.897 85.0037C198.672 84.8359 198.561 84.5503 198.346 84.3675C197.792 83.9042 196.931 84.3825 196.523 84.9811C195.894 85.9078 195.511 86.4688 194.694 86.887C194.689 86.8344 194.689 86.7793 194.689 86.7267C194.689 81.9416 198.569 78.0625 203.354 78.0625C208.139 78.0625 212.018 81.9416 212.018 86.7267Z" fill="black"/>
<path d="M196.524 84.7314C196.931 84.1324 197.792 83.6534 198.347 84.1191C198.563 84.2998 198.673 84.5856 198.897 84.7548C199.3 85.0581 199.884 84.8678 200.301 84.5838C200.717 84.2998 201.104 83.9208 201.602 83.845C202.166 83.7592 202.715 84.0952 203.102 84.5138C203.489 84.9324 203.769 85.4402 204.157 85.8587C204.544 86.2772 205.093 86.6128 205.657 86.5266C206.22 86.4403 206.68 85.766 206.39 85.275C207.45 85.3999 208.359 86.0889 208.766 87.0756C208.891 87.5049 209.039 87.927 209.21 88.3401C209.437 88.7278 209.748 89.0596 210.12 89.311C210.58 89.6478 211.137 89.9319 211.698 89.8342C212.26 89.7365 212.735 89.0933 212.474 88.5867C212.653 88.8591 213.038 88.4796 213.097 88.1586C213.224 87.4546 213.184 86.7307 212.981 86.0448C212.704 85.1139 212.123 84.1907 212.347 83.2456C212.524 82.4973 213.164 81.9601 213.552 81.2963C214.24 80.1197 214.057 78.5346 213.221 77.4585C212.338 76.389 211 75.8025 209.616 75.8785C209.239 75.9215 208.86 75.9286 208.482 75.8996C207.853 75.8062 207.322 75.4015 206.821 75.0103L202.626 71.7357C202.159 71.3243 201.622 71.0006 201.04 70.7803C200.447 70.5965 199.736 70.6599 199.298 71.0988C198.512 71.8843 199.011 73.2361 198.696 74.3012C198.423 75.2237 197.544 75.8489 196.634 76.1605C195.723 76.4721 194.749 76.5405 193.814 76.766C193.535 76.812 193.274 76.9335 193.06 77.1174C192.817 77.4167 192.7 77.7982 192.732 78.1821C192.726 79.1244 192.949 80.0539 193.383 80.8904C193.869 81.8247 194.639 82.785 194.366 83.8022C194.222 84.3405 193.807 84.7552 193.442 85.1758C192.649 86.0876 192.381 87.4349 193.873 86.9642C195.31 86.5109 195.713 85.9234 196.524 84.7314Z" fill="#434175"/>
<g opacity="0.1">
<path opacity="0.1" d="M213.097 87.1669C213.039 87.4879 212.654 87.8674 212.475 87.595C212.736 88.1016 212.26 88.7448 211.699 88.8425C211.138 88.9402 210.581 88.6561 210.121 88.3193C209.749 88.0679 209.438 87.7361 209.211 87.3484C209.04 86.9353 208.892 86.5132 208.767 86.0839C208.36 85.0972 207.451 84.4082 206.391 84.2833C206.681 84.7743 206.221 85.4486 205.658 85.5349C205.094 85.6211 204.545 85.2855 204.157 84.867C203.77 84.4485 203.49 83.9407 203.103 83.5221C202.716 83.1035 202.166 82.7675 201.603 82.8533C201.104 82.9291 200.718 83.3081 200.301 83.5921C199.885 83.8761 199.301 84.0664 198.898 83.7631C198.674 83.5939 198.564 83.3081 198.348 83.1274C197.793 82.6617 196.932 83.1407 196.525 83.7397C195.714 84.9317 195.311 85.5192 193.874 85.9725C193.402 86.1213 193.107 86.0877 192.948 85.9442C192.633 86.6683 192.777 87.3061 193.874 86.9599C195.311 86.5066 195.714 85.919 196.525 84.7271C196.932 84.1281 197.793 83.6491 198.348 84.1148C198.564 84.2955 198.674 84.5813 198.898 84.7505C199.301 85.0538 199.885 84.8635 200.301 84.5795C200.718 84.2955 201.104 83.9165 201.603 83.8407C202.166 83.7549 202.716 84.0909 203.103 84.5095C203.49 84.9281 203.77 85.4359 204.157 85.8544C204.545 86.2729 205.094 86.6085 205.658 86.5223C206.221 86.436 206.681 85.7617 206.391 85.2706C207.451 85.3956 208.36 86.0846 208.767 87.0713C208.892 87.5006 209.04 87.9227 209.211 88.3358C209.438 88.7235 209.749 89.0553 210.121 89.3067C210.581 89.6435 211.138 89.9276 211.699 89.8299C212.26 89.7322 212.736 89.089 212.475 88.5823C212.654 88.8548 213.039 88.4753 213.097 88.1543C213.175 87.722 213.191 87.2808 213.143 86.8442C213.131 86.9522 213.117 87.06 213.097 87.1669Z" fill="black"/>
<path opacity="0.1" d="M194.354 82.8501C194.358 82.8373 194.364 82.8252 194.367 82.8121C194.64 81.795 193.87 80.8347 193.384 79.9004C193.043 79.2416 192.832 78.5235 192.761 77.7852C192.742 77.9158 192.733 78.0475 192.733 78.1795C192.727 79.1218 192.95 80.0513 193.384 80.8878C193.716 81.5265 194.18 82.1773 194.354 82.8501Z" fill="black"/>
<path opacity="0.1" d="M213.553 80.3067C213.165 80.9705 212.525 81.5077 212.348 82.256C212.28 82.5725 212.283 82.9004 212.357 83.2156C212.543 82.4822 213.17 81.9494 213.553 81.2941C213.914 80.6523 214.05 79.9078 213.938 79.1797C213.884 79.5768 213.753 79.9595 213.553 80.3067Z" fill="black"/>
</g>
<path opacity="0.1" d="M182.766 125.601V125.602C182.832 125.879 182.883 126.159 182.919 126.441C182.919 126.441 186.875 135.706 187.376 136.257C187.531 136.426 188.111 137.26 188.842 138.332C189.106 138.72 189.39 139.14 189.68 139.57C191.195 141.818 192.885 144.37 192.885 144.37L196.591 147.626C196.591 147.626 204.654 148.271 207.216 145.654C206.905 145.438 206.708 145.322 206.708 145.322L205.606 144.465C205.037 143.506 202.862 142.571 200.659 141.837C198.63 141.852 196.97 142.016 196.97 142.016L196.442 140.626L195.891 139.176L193.09 131.8C193.09 131.8 191.283 122.484 190.682 122.033C190.081 121.583 190.231 120.18 190.231 120.18C190.231 120.18 191.333 116.224 190.932 115.673C190.531 115.122 191.583 111.065 191.583 111.065C191.479 110.669 191.317 110.291 191.102 109.941L183.37 124.638C183.37 124.638 183.113 125.055 182.766 125.601Z" fill="black"/>
<path d="M191.684 110.764C191.684 110.764 190.632 114.821 191.033 115.372C191.433 115.923 190.332 119.879 190.332 119.879C190.332 119.879 190.181 121.282 190.782 121.732C191.383 122.183 193.19 131.498 193.19 131.498L197.07 141.715C197.07 141.715 209.213 140.513 207.961 144.32C206.709 148.126 196.692 147.325 196.692 147.325L192.986 144.069C192.986 144.069 187.978 136.507 187.477 135.956C186.976 135.405 183.019 126.14 183.019 126.14C183.019 126.14 182.819 124.286 181.968 123.335C181.116 122.383 181.767 120.774 181.767 120.774C181.767 120.774 180.716 108.661 181.817 107.208C182.919 105.756 190.532 106.407 191.684 110.764Z" fill="#D9B5BB"/>
<path opacity="0.1" d="M185.473 103.151L182.317 105.054C182.317 105.054 181.416 108.109 180.715 108.51C180.715 108.51 187.025 105.004 191.783 113.067C191.783 113.067 191.633 112.015 192.284 111.515C192.935 111.014 192.785 108.86 192.785 108.86C192.958 108.52 193.109 108.169 193.236 107.808C193.686 106.707 191.332 100.396 185.473 103.151Z" fill="black"/>
<path d="M185.373 102.952L182.218 104.855C182.218 104.855 181.316 107.91 180.615 108.31C180.615 108.31 186.926 104.805 191.684 112.868C191.684 112.868 191.533 111.816 192.184 111.315C192.835 110.815 192.685 108.661 192.685 108.661C192.858 108.321 193.009 107.969 193.136 107.609C193.587 106.507 191.233 100.197 185.373 102.952Z" fill="#434175"/>
<path d="M157.251 190.66C162.446 190.66 166.657 186.19 166.657 180.676C166.657 175.161 162.446 170.691 157.251 170.691C152.056 170.691 147.845 175.161 147.845 180.676C147.845 186.19 152.056 190.66 157.251 190.66Z" fill="#FBD56F"/>
<path opacity="0.1" d="M157.251 190.66C162.446 190.66 166.657 186.19 166.657 180.676C166.657 175.161 162.446 170.691 157.251 170.691C152.056 170.691 147.845 175.161 147.845 180.676C147.845 186.19 152.056 190.66 157.251 190.66Z" fill="black"/>
<path d="M158.874 190.66C164.069 190.66 168.28 186.29 168.28 180.899C168.28 175.507 164.069 171.137 158.874 171.137C153.679 171.137 149.468 175.507 149.468 180.899C149.468 186.29 153.679 190.66 158.874 190.66Z" fill="#FBD56F"/>
<path d="M22.5762 186.162C28.9921 186.162 34.1933 185.283 34.1933 184.198C34.1933 183.114 28.9921 182.234 22.5762 182.234C16.1602 182.234 10.959 183.114 10.959 184.198C10.959 185.283 16.1602 186.162 22.5762 186.162Z" fill="#2A46FF"/>
<path d="M27.3793 180.985C27.8768 180.522 28.3435 179.977 28.4869 179.313C28.6302 178.649 28.3473 177.853 27.7129 177.611C27.0021 177.339 26.2426 177.832 25.6667 178.329C25.0908 178.827 24.4308 179.395 23.6772 179.289C24.4658 178.574 24.8214 177.498 24.6139 176.454C24.5808 176.242 24.4907 176.043 24.3534 175.879C23.9588 175.457 23.2435 175.638 22.771 175.97C21.2686 177.027 20.8493 179.068 20.8411 180.905C20.6896 180.242 20.8172 179.552 20.8135 178.872C20.8098 178.193 20.6235 177.439 20.0501 177.074C19.693 176.882 19.2913 176.787 18.8859 176.8C18.2105 176.776 17.4583 176.843 16.997 177.337C16.4239 177.951 16.5726 178.981 17.0711 179.657C17.5697 180.332 18.3281 180.756 19.0261 181.222C19.5861 181.556 20.0636 182.011 20.4232 182.555C20.4655 182.631 20.5002 182.71 20.5268 182.793H24.7609C25.7113 182.311 26.5922 181.703 27.3793 180.985Z" fill="#2A46FF"/>
<path d="M127.634 171.391C128.151 172.1 128.574 172.873 128.893 173.691C128.977 173.902 129.059 174.124 129.137 174.357C130.389 178.098 128.406 182.583 127.839 182.099C127.272 181.616 125.505 180.718 125.163 181.979C124.822 183.241 123.56 184.53 123.56 184.53C121.261 186.843 119.179 184.344 117.813 181.763C117.367 180.911 116.97 180.034 116.625 179.137C116.322 178.344 116.147 177.796 116.147 177.796L125.724 169.637C125.724 169.637 126.65 170.062 127.634 171.391Z" fill="#2A46FF"/>
<path d="M112.54 176.61C113.057 177.319 113.481 178.092 113.799 178.909C113.883 179.121 113.966 179.343 114.043 179.576C115.295 183.317 113.312 187.802 112.745 187.318C112.178 186.834 110.411 185.937 110.07 187.198C109.728 188.46 108.466 189.749 108.466 189.749C106.167 192.062 104.086 189.563 102.72 186.981C102.273 186.13 101.877 185.253 101.531 184.355C101.228 183.563 101.054 183.015 101.054 183.015L110.63 174.855C110.63 174.855 111.556 175.28 112.54 176.61Z" fill="#2A46FF"/>
<path d="M82.2353 183.816C82.1815 184.692 82.0141 185.557 81.7373 186.39C81.6672 186.606 81.5888 186.83 81.5 187.059C80.0765 190.737 75.6871 192.925 75.5594 192.191C75.4316 191.456 74.6444 189.638 73.5763 190.391C72.5082 191.144 70.7138 191.331 70.7138 191.331C67.4679 191.644 67.4602 188.393 68.0561 185.533C68.256 184.593 68.5101 183.664 68.817 182.753C69.0894 181.949 69.305 181.416 69.305 181.416L81.8848 181.246C81.8848 181.246 82.3262 182.164 82.2353 183.816Z" fill="#2A46FF"/>
<path d="M65.9814 179.718C65.9276 180.594 65.7602 181.459 65.4834 182.292C65.4133 182.508 65.3349 182.732 65.2461 182.961C63.8226 186.64 59.4332 188.827 59.3055 188.093C59.1778 187.359 58.3905 185.54 57.3224 186.293C56.2543 187.046 54.4599 187.234 54.4599 187.234C51.214 187.547 51.2063 184.295 51.8022 181.436C52.0021 180.495 52.2562 179.567 52.5631 178.656C52.8355 177.852 53.0511 177.319 53.0511 177.319L65.6309 177.148C65.6309 177.148 66.0723 178.066 65.9814 179.718Z" fill="#2A46FF"/>
<path opacity="0.2" d="M127.634 171.391C128.151 172.1 128.574 172.873 128.893 173.691C128.977 173.902 129.059 174.124 129.137 174.357C130.389 178.098 128.406 182.583 127.839 182.099C127.272 181.616 125.505 180.718 125.163 181.979C124.822 183.241 123.56 184.53 123.56 184.53C121.261 186.843 119.179 184.344 117.813 181.763C117.367 180.911 116.97 180.034 116.625 179.137C116.322 178.344 116.147 177.796 116.147 177.796L125.724 169.637C125.724 169.637 126.65 170.062 127.634 171.391Z" fill="black"/>
<path opacity="0.2" d="M112.54 176.61C113.057 177.319 113.481 178.092 113.799 178.909C113.883 179.121 113.966 179.343 114.043 179.576C115.295 183.317 113.312 187.802 112.745 187.318C112.178 186.834 110.411 185.937 110.07 187.198C109.728 188.46 108.466 189.749 108.466 189.749C106.167 192.062 104.086 189.563 102.72 186.981C102.273 186.13 101.877 185.253 101.531 184.355C101.228 183.563 101.054 183.015 101.054 183.015L110.63 174.855C110.63 174.855 111.556 175.28 112.54 176.61Z" fill="black"/>
<path opacity="0.2" d="M82.2353 183.816C82.1815 184.692 82.0141 185.557 81.7373 186.39C81.6672 186.606 81.5888 186.83 81.5 187.059C80.0765 190.737 75.6871 192.925 75.5594 192.191C75.4316 191.456 74.6444 189.638 73.5763 190.391C72.5082 191.144 70.7138 191.331 70.7138 191.331C67.4679 191.644 67.4602 188.393 68.0561 185.533C68.256 184.593 68.5101 183.664 68.817 182.753C69.0894 181.949 69.305 181.416 69.305 181.416L81.8848 181.246C81.8848 181.246 82.3262 182.164 82.2353 183.816Z" fill="black"/>
<path opacity="0.2" d="M65.9814 179.718C65.9276 180.594 65.7602 181.459 65.4834 182.292C65.4133 182.508 65.3349 182.732 65.2461 182.961C63.8226 186.64 59.4332 188.827 59.3055 188.093C59.1778 187.359 58.3905 185.54 57.3224 186.293C56.2543 187.046 54.4599 187.234 54.4599 187.234C51.214 187.547 51.2063 184.295 51.8022 181.436C52.0021 180.495 52.2562 179.567 52.5631 178.656C52.8355 177.852 53.0511 177.319 53.0511 177.319L65.6309 177.148C65.6309 177.148 66.0723 178.066 65.9814 179.718Z" fill="black"/>
<path d="M153.177 124.588C153.177 158.187 141.811 185.425 89.3581 185.425C54.1118 185.425 26.8434 176.668 25.5391 124.588C24.6978 90.9985 54.1118 63.75 89.3581 63.75C124.604 63.75 153.177 90.9879 153.177 124.588Z" fill="#2A46FF"/>
<path opacity="0.2" d="M77.5113 64.7898C77.6734 64.7637 77.9939 64.719 78.4598 64.6836L77.4219 64.8066C77.4368 64.8028 77.4554 64.7991 77.4778 64.7954C77.489 64.7935 77.4983 64.7917 77.5113 64.7898Z" fill="black"/>
<path opacity="0.2" d="M124.669 89.6478L120.011 91.3248C117.636 88.1403 115.081 85.0944 112.358 82.202C109.386 79.0321 106.143 76.1273 102.667 73.5207C90.7397 64.6811 81.5143 64.4556 78.4678 64.683L85.4702 63.8594C92.0883 64.9981 98.4527 67.2987 104.269 70.6549C108.339 73.0007 112.129 75.8006 115.567 79.0008C121.663 84.6597 124.669 89.6478 124.669 89.6478Z" fill="black"/>
<path opacity="0.2" d="M82.5577 92.8159C82.5577 92.8159 76.4087 72.3193 81.626 66.7293C81.626 66.7293 89.8247 63.9343 95.9737 79.7726L82.5577 92.8159Z" fill="black"/>
<path d="M113.693 73.6743C113.693 73.6743 130 59.8172 137.214 62.3529C137.214 62.3529 143.064 68.7409 131.024 80.7287L113.693 73.6743Z" fill="#2A46FF"/>
<path opacity="0.2" d="M113.693 73.6743C113.693 73.6743 130 59.8172 137.214 62.3529C137.214 62.3529 143.064 68.7409 131.024 80.7287L113.693 73.6743Z" fill="black"/>
<path d="M164.544 140.05C164.544 158.111 151.583 172.379 139.389 172.379C127.194 172.379 120.383 158.111 120.383 140.05C120.383 121.99 130.289 108.055 142.463 107.349C161.749 106.231 164.544 121.99 164.544 140.05Z" fill="#2A46FF"/>
<path opacity="0.2" d="M164.544 140.05C164.544 158.111 151.583 172.379 139.389 172.379C127.194 172.379 120.383 158.111 120.383 140.05C120.383 121.99 130.289 108.055 142.463 107.349C161.749 106.231 164.544 121.99 164.544 140.05Z" fill="black"/>
<path d="M138.643 147.97C140.907 147.97 142.743 145.634 142.743 142.752C142.743 139.871 140.907 137.535 138.643 137.535C136.379 137.535 134.544 139.871 134.544 142.752C134.544 145.634 136.379 147.97 138.643 147.97Z" fill="#2A46FF"/>
<path d="M153.177 143.497C155.441 143.497 157.277 141.161 157.277 138.28C157.277 135.398 155.441 133.062 153.177 133.062C150.913 133.062 149.078 135.398 149.078 138.28C149.078 141.161 150.913 143.497 153.177 143.497Z" fill="#2A46FF"/>
<path d="M116.361 75.6382C116.364 76.8069 116.092 77.9598 115.566 79.0034C114.872 80.3902 113.746 81.5137 112.357 82.2046C109.385 79.0347 106.143 76.13 102.666 73.5234C102.976 72.4589 103.524 71.4788 104.268 70.6576C105.567 69.21 107.418 68.3805 109.363 68.375C113.227 68.375 116.361 71.6265 116.361 75.6382Z" fill="#FAD46F"/>
</g>
<defs>
<linearGradient id="paint0_linear_49_349" x1="210.63" y1="195.86" x2="210.63" y2="69.625" gradientUnits="userSpaceOnUse">
<stop stop-color="#808080" stop-opacity="0.25"/>
<stop offset="0.53514" stop-color="#808080" stop-opacity="0.12"/>
<stop offset="1" stop-color="#808080" stop-opacity="0.1"/>
</linearGradient>
<clipPath id="clip0_49_349">
<rect width="280" height="202" fill="white"/>
</clipPath>
</defs>
</svg>
