<svg width="110" height="110" viewBox="0 0 110 110" fill="none" xmlns="http://www.w3.org/2000/svg">
<g clip-path="url(#clip0_47_1069)">
<path d="M55 110C85.3757 110 110 85.3757 110 55C110 24.6243 85.3757 0 55 0C24.6243 0 0 24.6243 0 55C0 85.3757 24.6243 110 55 110Z" fill="#69F0AE"/>
<path d="M77.5874 38.7531C76.6787 37.8531 75.2055 37.8531 74.2966 38.7531L46.4187 66.3615L35.7028 55.7494C34.7941 54.8494 33.3209 54.8495 32.412 55.7494C31.5033 56.6493 31.5033 58.1082 32.412 59.0082L44.7733 71.2496C45.6817 72.1495 47.156 72.1489 48.064 71.2496L77.5874 42.012C78.4962 41.1121 78.4961 39.6531 77.5874 38.7531Z" fill="white" stroke="white" stroke-width="4.88889"/>
</g>
<defs>
<clipPath id="clip0_47_1069">
<rect width="110" height="110" fill="white"/>
</clipPath>
</defs>
</svg>
