<svg width="28" height="11" viewBox="0 0 28 11" fill="none" xmlns="http://www.w3.org/2000/svg">
<path opacity="0.35" fill-rule="evenodd" clip-rule="evenodd" d="M4.0863 1C2.97316 1 2.533 1.06474 2.07866 1.24982C1.6951 1.40607 1.39737 1.63284 1.19224 1.925C0.949258 2.27107 0.864258 2.60634 0.864258 3.4542V7.23519C0.864258 8.08305 0.949258 8.41833 1.19224 8.76439C1.39737 9.05655 1.6951 9.28332 2.07866 9.43957C2.533 9.62465 2.97316 9.68939 4.0863 9.68939H20.8262C21.9393 9.68939 22.3795 9.62465 22.8338 9.43957C23.2174 9.28332 23.5151 9.05655 23.7203 8.76439C23.9632 8.41833 24.0482 8.08305 24.0482 7.23519V3.4542C24.0482 2.60634 23.9632 2.27107 23.7203 1.925C23.5151 1.63284 23.2174 1.40607 22.8338 1.24982C22.3795 1.06474 21.9393 1 20.8262 1H4.0863Z" stroke="black"/>
<path opacity="0.4" d="M25.7041 3.66406V7.0277C26.5925 6.74282 27.1703 6.08011 27.1703 5.34588C27.1703 4.61166 26.5925 3.94894 25.7041 3.66406Z" fill="black"/>
</svg>
