<svg width="20" height="12" viewBox="0 0 20 12" fill="none" xmlns="http://www.w3.org/2000/svg">
<path d="M1.81395 7.44626H2.91502C3.52312 7.44626 4.01608 7.91432 4.01608 8.49171V10.5826C4.01608 11.16 3.52312 11.6281 2.91502 11.6281H1.81395C1.20585 11.6281 0.712891 11.16 0.712891 10.5826V8.49171C0.712891 7.91432 1.20585 7.44626 1.81395 7.44626ZM6.95224 5.35535H8.0533C8.6614 5.35535 9.15437 5.82341 9.15437 6.4008V10.5826C9.15437 11.16 8.6614 11.6281 8.0533 11.6281H6.95224C6.34414 11.6281 5.85118 11.16 5.85118 10.5826V6.4008C5.85118 5.82341 6.34414 5.35535 6.95224 5.35535ZM12.0906 2.91595H13.1916C13.7997 2.91595 14.2927 3.38402 14.2927 3.96141V10.5826C14.2927 11.16 13.7997 11.6281 13.1916 11.6281H12.0906C11.4825 11.6281 10.9895 11.16 10.9895 10.5826V3.96141C10.9895 3.38402 11.4825 2.91595 12.0906 2.91595ZM17.2288 0.476562H18.3299C18.938 0.476562 19.431 0.944628 19.431 1.52202V10.5826C19.431 11.16 18.938 11.6281 18.3299 11.6281H17.2288C16.6207 11.6281 16.1278 11.16 16.1278 10.5826V1.52202C16.1278 0.944628 16.6207 0.476562 17.2288 0.476562Z" fill="white"/>
</svg>
