<svg width="20" height="10" viewBox="0 0 20 10" fill="none" xmlns="http://www.w3.org/2000/svg">
<path d="M1.68017 6.46543H2.78417C3.3939 6.46543 3.88817 6.84192 3.88817 7.30634V8.98816C3.88817 9.45258 3.3939 9.82907 2.78417 9.82907H1.68017C1.07045 9.82907 0.576172 9.45258 0.576172 8.98816V7.30634C0.576172 6.84192 1.07045 6.46543 1.68017 6.46543ZM6.83216 4.78362H7.93616C8.54588 4.78362 9.04016 5.1601 9.04016 5.62453V8.98816C9.04016 9.45258 8.54588 9.82907 7.93616 9.82907H6.83216C6.22244 9.82907 5.72816 9.45258 5.72816 8.98816V5.62453C5.72816 5.1601 6.22244 4.78362 6.83216 4.78362ZM11.9842 2.82149H13.0882C13.6979 2.82149 14.1922 3.19798 14.1922 3.6624V8.98816C14.1922 9.45258 13.6979 9.82907 13.0882 9.82907H11.9842C11.3745 9.82907 10.8802 9.45258 10.8802 8.98816V3.6624C10.8802 3.19798 11.3745 2.82149 11.9842 2.82149ZM17.1362 0.859375H18.2402C18.8499 0.859375 19.3442 1.23586 19.3442 1.70028V8.98816C19.3442 9.45258 18.8499 9.82907 18.2402 9.82907H17.1362C16.5265 9.82907 16.0322 9.45258 16.0322 8.98816V1.70028C16.0322 1.23586 16.5265 0.859375 17.1362 0.859375Z" fill="black"/>
</svg>
