<svg width="22" height="22" viewBox="0 0 22 22" fill="none" xmlns="http://www.w3.org/2000/svg">
<path d="M13.4674 22C14.1169 22 14.7397 21.7103 15.199 21.1945C15.6582 20.6788 15.9162 19.9793 15.9162 19.25C15.9162 18.5207 15.6582 17.8212 15.199 17.3055C14.7397 16.7897 14.1169 16.5 13.4674 16.5C12.818 16.5 12.1952 16.7897 11.7359 17.3055C11.2767 17.8212 11.0187 18.5207 11.0187 19.25C11.0187 19.9793 11.2767 20.6788 11.7359 21.1945C12.1952 21.7103 12.818 22 13.4674 22ZM4.89692 22C5.54636 22 6.1692 21.7103 6.62842 21.1945C7.08765 20.6788 7.34564 19.9793 7.34564 19.25C7.34564 18.5207 7.08765 17.8212 6.62842 17.3055C6.1692 16.7897 5.54636 16.5 4.89692 16.5C4.24747 16.5 3.62463 16.7897 3.16541 17.3055C2.70618 17.8212 2.44819 18.5207 2.44819 19.25C2.44819 19.9793 2.70618 20.6788 3.16541 21.1945C3.62463 21.7103 4.24747 22 4.89692 22ZM20.8601 2.64412C21.1658 2.63305 21.4556 2.48891 21.6683 2.24219C21.8811 1.99546 22 1.66549 22 1.32206C22 0.978631 21.8811 0.648662 21.6683 0.401936C21.4556 0.15521 21.1658 0.0110712 20.8601 0H19.4509C18.3465 0 17.3915 0.86075 17.1515 2.07075L15.6174 9.8285C15.3774 11.0385 14.4224 11.8993 13.3181 11.8993H4.12067L2.35514 3.9655H13.7968C14.0996 3.94998 14.3854 3.80399 14.5947 3.55788C14.8041 3.31178 14.9209 2.9845 14.9209 2.64412C14.9209 2.30375 14.8041 1.97647 14.5947 1.73037C14.3854 1.48426 14.0996 1.33827 13.7968 1.32275H2.35514C1.99722 1.32263 1.64398 1.41416 1.32229 1.59037C1.00059 1.76659 0.718906 2.02285 0.49864 2.33968C0.278374 2.65651 0.125326 3.02557 0.051136 3.41879C-0.0230541 3.81202 -0.0164375 4.21907 0.0704842 4.609L1.83601 12.54C1.96329 13.1123 2.2573 13.6203 2.67128 13.9833C3.08526 14.3463 3.59544 14.5435 4.12067 14.5434H13.3181C14.3896 14.5435 15.4292 14.1332 16.2651 13.3803C17.101 12.6273 17.6832 11.5766 17.9155 10.4019L19.4509 2.64412H20.8601Z" fill="black"/>
</svg>
