<svg width="28" height="27" viewBox="0 0 28 27" fill="none" xmlns="http://www.w3.org/2000/svg">
<circle cx="13.5037" cy="13.5" r="12.5" fill="white" stroke="#CACDD8" stroke-width="2"/>
<path d="M8.16665 19.9038H8.24136L11.7031 19.5884C12.0823 19.5506 12.437 19.3835 12.7076 19.1152L20.1789 11.6439C20.4689 11.3375 20.6256 10.9287 20.6147 10.507C20.6038 10.0853 20.4262 9.68512 20.1208 9.39415L17.8462 7.11954C17.5493 6.84069 17.1603 6.68069 16.7531 6.66998C16.346 6.65926 15.9491 6.79858 15.638 7.06143L8.16665 14.5328C7.89831 14.8034 7.73124 15.158 7.69346 15.5372L7.3365 18.999C7.32531 19.1206 7.34109 19.2431 7.3827 19.3579C7.42432 19.4727 7.49074 19.5769 7.57724 19.6631C7.65481 19.74 7.7468 19.8009 7.84795 19.8422C7.94909 19.8835 8.05739 19.9045 8.16665 19.9038ZM16.6923 8.28175L18.9586 10.5481L17.2983 12.1668L15.0735 9.94205L16.6923 8.28175ZM9.30395 15.6784L13.9777 11.0378L16.2191 13.2792L11.5703 17.9281L9.07981 18.1605L9.30395 15.6784Z" fill="#A2A6B0"/>
</svg>
