<svg width="19" height="22" viewBox="0 0 19 22" fill="none" xmlns="http://www.w3.org/2000/svg">
<path d="M12.6189 18C12.6189 18.7956 12.3061 19.5587 11.7493 20.1213C11.1925 20.6839 10.4373 21 9.64981 21C8.86236 21 8.10717 20.6839 7.55036 20.1213C6.99355 19.5587 6.68074 18.7956 6.68074 18M10.3634 4.00299L8.91249 3.99999C5.60296 3.99199 2.72989 6.70899 2.70713 9.99999V13.79C2.70713 14.58 2.60816 15.351 2.1816 16.008L1.89756 16.446C1.46507 17.11 1.93022 18 2.70713 18H16.5925C17.3694 18 17.8336 17.11 17.4021 16.446L17.118 16.008C16.6924 15.351 16.5925 14.579 16.5925 13.789V10.001C16.5529 6.70899 13.6729 4.01099 10.3634 4.00299V4.00299Z" stroke="black" stroke-width="2" stroke-linecap="round" stroke-linejoin="round"/>
<path d="M9.64979 1C10.1748 1 10.6782 1.21071 11.0494 1.58579C11.4206 1.96086 11.6292 2.46957 11.6292 3V4H7.67041V3C7.67041 2.46957 7.87895 1.96086 8.25016 1.58579C8.62136 1.21071 9.12483 1 9.64979 1Z" stroke="black" stroke-width="2" stroke-linecap="round" stroke-linejoin="round"/>
</svg>
