<svg width="94" height="94" viewBox="0 0 94 83" fill="none" xmlns="http://www.w3.org/2000/svg">
<path d="M17.5449 64.18C16.8769 64.18 16.2869 64.042 15.7749 63.766C15.2629 63.49 14.8609 63.104 14.5689 62.608C14.2809 62.108 14.1369 61.522 14.1369 60.85V55.366L15.2169 55.36V60.76C15.2169 61.168 15.2849 61.524 15.4209 61.828C15.5609 62.128 15.7449 62.378 15.9729 62.578C16.2009 62.778 16.4509 62.928 16.7229 63.028C16.9989 63.124 17.2729 63.172 17.5449 63.172C17.8209 63.172 18.0969 63.122 18.3729 63.022C18.6489 62.922 18.8989 62.774 19.1229 62.578C19.3509 62.378 19.5329 62.126 19.6689 61.822C19.8049 61.518 19.8729 61.164 19.8729 60.76V55.36H20.9529V60.85C20.9529 61.518 20.8069 62.102 20.5149 62.602C20.2269 63.102 19.8269 63.49 19.3149 63.766C18.8029 64.042 18.2129 64.18 17.5449 64.18ZM25.609 64.18C25.001 64.18 24.489 64.03 24.073 63.73C23.657 63.426 23.341 63.016 23.125 62.5C22.913 61.98 22.807 61.398 22.807 60.754C22.807 60.102 22.913 59.518 23.125 59.002C23.341 58.486 23.657 58.08 24.073 57.784C24.493 57.488 25.007 57.34 25.615 57.34C26.215 57.34 26.731 57.49 27.163 57.79C27.599 58.086 27.933 58.492 28.165 59.008C28.397 59.524 28.513 60.106 28.513 60.754C28.513 61.402 28.397 61.984 28.165 62.5C27.933 63.016 27.599 63.426 27.163 63.73C26.731 64.03 26.213 64.18 25.609 64.18ZM22.627 66.88V57.52H23.581V62.29H23.701V66.88H22.627ZM25.477 63.202C25.905 63.202 26.259 63.094 26.539 62.878C26.819 62.662 27.029 62.37 27.169 62.002C27.309 61.63 27.379 61.214 27.379 60.754C27.379 60.298 27.309 59.886 27.169 59.518C27.033 59.15 26.821 58.858 26.533 58.642C26.249 58.426 25.887 58.318 25.447 58.318C25.027 58.318 24.679 58.422 24.403 58.63C24.127 58.834 23.921 59.12 23.785 59.488C23.649 59.852 23.581 60.274 23.581 60.754C23.581 61.226 23.647 61.648 23.779 62.02C23.915 62.388 24.123 62.678 24.403 62.89C24.683 63.098 25.041 63.202 25.477 63.202ZM29.9483 64V55.18H31.0163V64H29.9483ZM35.5766 64.18C34.9326 64.18 34.3766 64.034 33.9086 63.742C33.4446 63.45 33.0866 63.046 32.8346 62.53C32.5826 62.014 32.4566 61.422 32.4566 60.754C32.4566 60.074 32.5846 59.478 32.8406 58.966C33.0966 58.454 33.4586 58.056 33.9266 57.772C34.3946 57.484 34.9446 57.34 35.5766 57.34C36.2246 57.34 36.7826 57.486 37.2506 57.778C37.7186 58.066 38.0766 58.468 38.3246 58.984C38.5766 59.496 38.7026 60.086 38.7026 60.754C38.7026 61.43 38.5766 62.026 38.3246 62.542C38.0726 63.054 37.7126 63.456 37.2446 63.748C36.7766 64.036 36.2206 64.18 35.5766 64.18ZM35.5766 63.166C36.2486 63.166 36.7486 62.942 37.0766 62.494C37.4046 62.046 37.5686 61.466 37.5686 60.754C37.5686 60.022 37.4026 59.44 37.0706 59.008C36.7386 58.572 36.2406 58.354 35.5766 58.354C35.1246 58.354 34.7526 58.456 34.4606 58.66C34.1686 58.864 33.9506 59.146 33.8066 59.506C33.6626 59.866 33.5906 60.282 33.5906 60.754C33.5906 61.482 33.7586 62.066 34.0946 62.506C34.4306 62.946 34.9246 63.166 35.5766 63.166ZM41.8656 64.18C41.3816 64.18 40.9756 64.092 40.6476 63.916C40.3236 63.736 40.0776 63.5 39.9096 63.208C39.7456 62.916 39.6636 62.596 39.6636 62.248C39.6636 61.908 39.7276 61.614 39.8556 61.366C39.9876 61.114 40.1716 60.906 40.4076 60.742C40.6436 60.574 40.9256 60.442 41.2536 60.346C41.5616 60.262 41.9056 60.19 42.2856 60.13C42.6696 60.066 43.0576 60.008 43.4496 59.956C43.8416 59.904 44.2076 59.854 44.5476 59.806L44.1636 60.028C44.1756 59.452 44.0596 59.026 43.8156 58.75C43.5756 58.474 43.1596 58.336 42.5676 58.336C42.1756 58.336 41.8316 58.426 41.5356 58.606C41.2436 58.782 41.0376 59.07 40.9176 59.47L39.9036 59.164C40.0596 58.596 40.3616 58.15 40.8096 57.826C41.2576 57.502 41.8476 57.34 42.5796 57.34C43.1676 57.34 43.6716 57.446 44.0916 57.658C44.5156 57.866 44.8196 58.182 45.0036 58.606C45.0956 58.806 45.1536 59.024 45.1776 59.26C45.2016 59.492 45.2136 59.736 45.2136 59.992V64H44.2656V62.446L44.4876 62.59C44.2436 63.114 43.9016 63.51 43.4616 63.778C43.0256 64.046 42.4936 64.18 41.8656 64.18ZM42.0276 63.286C42.4116 63.286 42.7436 63.218 43.0236 63.082C43.3076 62.942 43.5356 62.76 43.7076 62.536C43.8796 62.308 43.9916 62.06 44.0436 61.792C44.1036 61.592 44.1356 61.37 44.1396 61.126C44.1476 60.878 44.1516 60.688 44.1516 60.556L44.5236 60.718C44.1756 60.766 43.8336 60.812 43.4976 60.856C43.1616 60.9 42.8436 60.948 42.5436 61C42.2436 61.048 41.9736 61.106 41.7336 61.174C41.5576 61.23 41.3916 61.302 41.2356 61.39C41.0836 61.478 40.9596 61.592 40.8636 61.732C40.7716 61.868 40.7256 62.038 40.7256 62.242C40.7256 62.418 40.7696 62.586 40.8576 62.746C40.9496 62.906 41.0896 63.036 41.2776 63.136C41.4696 63.236 41.7196 63.286 42.0276 63.286ZM49.3176 64.18C48.7136 64.18 48.1956 64.03 47.7636 63.73C47.3316 63.426 46.9976 63.016 46.7616 62.5C46.5296 61.984 46.4136 61.402 46.4136 60.754C46.4136 60.106 46.5296 59.524 46.7616 59.008C46.9976 58.492 47.3316 58.086 47.7636 57.79C48.1956 57.49 48.7116 57.34 49.3116 57.34C49.9236 57.34 50.4376 57.488 50.8536 57.784C51.2696 58.08 51.5836 58.486 51.7956 59.002C52.0116 59.518 52.1196 60.102 52.1196 60.754C52.1196 61.398 52.0116 61.98 51.7956 62.5C51.5836 63.016 51.2696 63.426 50.8536 63.73C50.4376 64.03 49.9256 64.18 49.3176 64.18ZM49.4496 63.202C49.8856 63.202 50.2436 63.098 50.5236 62.89C50.8036 62.678 51.0096 62.388 51.1416 62.02C51.2776 61.648 51.3456 61.226 51.3456 60.754C51.3456 60.274 51.2776 59.852 51.1416 59.488C51.0096 59.12 50.8056 58.834 50.5296 58.63C50.2536 58.422 49.9036 58.318 49.4796 58.318C49.0396 58.318 48.6756 58.426 48.3876 58.642C48.1036 58.858 47.8916 59.15 47.7516 59.518C47.6156 59.886 47.5476 60.298 47.5476 60.754C47.5476 61.214 47.6176 61.63 47.7576 62.002C47.8976 62.37 48.1076 62.662 48.3876 62.878C48.6716 63.094 49.0256 63.202 49.4496 63.202ZM51.3456 64V59.23H51.2256V55.36H52.2996V64H51.3456ZM57.283 66.88L58.537 63.472L58.555 64.48L55.723 57.52H56.845L59.065 63.118H58.681L60.763 57.52H61.849L58.321 66.88H57.283ZM65.3656 64.18C64.7216 64.18 64.1656 64.034 63.6976 63.742C63.2336 63.45 62.8756 63.046 62.6236 62.53C62.3716 62.014 62.2456 61.422 62.2456 60.754C62.2456 60.074 62.3736 59.478 62.6296 58.966C62.8856 58.454 63.2476 58.056 63.7156 57.772C64.1836 57.484 64.7336 57.34 65.3656 57.34C66.0136 57.34 66.5716 57.486 67.0396 57.778C67.5076 58.066 67.8656 58.468 68.1136 58.984C68.3656 59.496 68.4916 60.086 68.4916 60.754C68.4916 61.43 68.3656 62.026 68.1136 62.542C67.8616 63.054 67.5016 63.456 67.0336 63.748C66.5656 64.036 66.0096 64.18 65.3656 64.18ZM65.3656 63.166C66.0376 63.166 66.5376 62.942 66.8656 62.494C67.1936 62.046 67.3576 61.466 67.3576 60.754C67.3576 60.022 67.1916 59.44 66.8596 59.008C66.5276 58.572 66.0296 58.354 65.3656 58.354C64.9136 58.354 64.5416 58.456 64.2496 58.66C63.9576 58.864 63.7396 59.146 63.5956 59.506C63.4516 59.866 63.3796 60.282 63.3796 60.754C63.3796 61.482 63.5476 62.066 63.8836 62.506C64.2196 62.946 64.7136 63.166 65.3656 63.166ZM72.2727 64.168C71.8567 64.168 71.4987 64.102 71.1987 63.97C70.9027 63.838 70.6567 63.662 70.4607 63.442C70.2647 63.222 70.1107 62.978 69.9987 62.71C69.8867 62.442 69.8067 62.168 69.7587 61.888C69.7147 61.608 69.6927 61.346 69.6927 61.102V57.52H70.7727V60.766C70.7727 61.07 70.8007 61.364 70.8567 61.648C70.9127 61.932 71.0067 62.188 71.1387 62.416C71.2747 62.644 71.4547 62.824 71.6787 62.956C71.9067 63.088 72.1907 63.154 72.5307 63.154C72.7987 63.154 73.0427 63.108 73.2627 63.016C73.4827 62.924 73.6707 62.788 73.8267 62.608C73.9827 62.424 74.1027 62.192 74.1867 61.912C74.2707 61.632 74.3127 61.306 74.3127 60.934L75.0147 61.15C75.0147 61.774 74.9007 62.312 74.6727 62.764C74.4487 63.216 74.1307 63.564 73.7187 63.808C73.3107 64.048 72.8287 64.168 72.2727 64.168ZM74.4327 64V62.266H74.3127V57.52H75.3867V64H74.4327ZM77.0666 64V57.52H78.0206V59.086L77.8646 58.882C77.9406 58.682 78.0386 58.498 78.1586 58.33C78.2826 58.162 78.4206 58.024 78.5726 57.916C78.7406 57.78 78.9306 57.676 79.1426 57.604C79.3546 57.532 79.5706 57.49 79.7906 57.478C80.0106 57.462 80.2166 57.476 80.4086 57.52V58.522C80.1846 58.462 79.9386 58.446 79.6706 58.474C79.4026 58.502 79.1546 58.6 78.9266 58.768C78.7186 58.916 78.5566 59.096 78.4406 59.308C78.3286 59.52 78.2506 59.75 78.2066 59.998C78.1626 60.242 78.1406 60.492 78.1406 60.748V64H77.0666ZM34.0523 80.18C33.4443 80.18 32.9323 80.03 32.5163 79.73C32.1003 79.426 31.7843 79.016 31.5683 78.5C31.3563 77.98 31.2503 77.398 31.2503 76.754C31.2503 76.102 31.3563 75.518 31.5683 75.002C31.7843 74.486 32.1003 74.08 32.5163 73.784C32.9363 73.488 33.4503 73.34 34.0583 73.34C34.6583 73.34 35.1743 73.49 35.6063 73.79C36.0423 74.086 36.3763 74.492 36.6083 75.008C36.8403 75.524 36.9563 76.106 36.9563 76.754C36.9563 77.402 36.8403 77.984 36.6083 78.5C36.3763 79.016 36.0423 79.426 35.6063 79.73C35.1743 80.03 34.6563 80.18 34.0523 80.18ZM31.0703 82.88V73.52H32.0243V78.29H32.1443V82.88H31.0703ZM33.9203 79.202C34.3483 79.202 34.7023 79.094 34.9823 78.878C35.2623 78.662 35.4723 78.37 35.6123 78.002C35.7523 77.63 35.8223 77.214 35.8223 76.754C35.8223 76.298 35.7523 75.886 35.6123 75.518C35.4763 75.15 35.2643 74.858 34.9763 74.642C34.6923 74.426 34.3303 74.318 33.8903 74.318C33.4703 74.318 33.1223 74.422 32.8463 74.63C32.5703 74.834 32.3643 75.12 32.2283 75.488C32.0923 75.852 32.0243 76.274 32.0243 76.754C32.0243 77.226 32.0903 77.648 32.2223 78.02C32.3583 78.388 32.5663 78.678 32.8463 78.89C33.1263 79.098 33.4843 79.202 33.9203 79.202ZM42.8856 80V76.754C42.8856 76.446 42.8576 76.15 42.8016 75.866C42.7496 75.582 42.6556 75.328 42.5196 75.104C42.3876 74.876 42.2076 74.696 41.9796 74.564C41.7556 74.432 41.4716 74.366 41.1276 74.366C40.8596 74.366 40.6156 74.412 40.3956 74.504C40.1796 74.592 39.9936 74.728 39.8376 74.912C39.6816 75.096 39.5596 75.328 39.4716 75.608C39.3876 75.884 39.3456 76.21 39.3456 76.586L38.6436 76.37C38.6436 75.742 38.7556 75.204 38.9796 74.756C39.2076 74.304 39.5256 73.958 39.9336 73.718C40.3456 73.474 40.8296 73.352 41.3856 73.352C41.8056 73.352 42.1636 73.418 42.4596 73.55C42.7556 73.682 43.0016 73.858 43.1976 74.078C43.3936 74.294 43.5476 74.538 43.6596 74.81C43.7716 75.078 43.8496 75.352 43.8936 75.632C43.9416 75.908 43.9656 76.17 43.9656 76.418V80H42.8856ZM38.2656 80V71.36H39.2256V76.13H39.3456V80H38.2656ZM48.2855 80.18C47.6415 80.18 47.0855 80.034 46.6175 79.742C46.1535 79.45 45.7955 79.046 45.5435 78.53C45.2915 78.014 45.1655 77.422 45.1655 76.754C45.1655 76.074 45.2935 75.478 45.5495 74.966C45.8055 74.454 46.1675 74.056 46.6355 73.772C47.1035 73.484 47.6535 73.34 48.2855 73.34C48.9335 73.34 49.4915 73.486 49.9595 73.778C50.4275 74.066 50.7855 74.468 51.0335 74.984C51.2855 75.496 51.4115 76.086 51.4115 76.754C51.4115 77.43 51.2855 78.026 51.0335 78.542C50.7815 79.054 50.4215 79.456 49.9535 79.748C49.4855 80.036 48.9295 80.18 48.2855 80.18ZM48.2855 79.166C48.9575 79.166 49.4575 78.942 49.7855 78.494C50.1135 78.046 50.2775 77.466 50.2775 76.754C50.2775 76.022 50.1115 75.44 49.7795 75.008C49.4475 74.572 48.9495 74.354 48.2855 74.354C47.8335 74.354 47.4615 74.456 47.1695 74.66C46.8775 74.864 46.6595 75.146 46.5155 75.506C46.3715 75.866 46.2995 76.282 46.2995 76.754C46.2995 77.482 46.4675 78.066 46.8035 78.506C47.1395 78.946 47.6335 79.166 48.2855 79.166ZM56.3506 80C55.9666 80.076 55.5866 80.106 55.2106 80.09C54.8386 80.078 54.5066 80.004 54.2146 79.868C53.9226 79.728 53.7006 79.512 53.5486 79.22C53.4206 78.964 53.3506 78.706 53.3386 78.446C53.3306 78.182 53.3266 77.884 53.3266 77.552V71.72H54.3946V77.504C54.3946 77.768 54.3966 77.994 54.4006 78.182C54.4086 78.37 54.4506 78.532 54.5266 78.668C54.6706 78.924 54.8986 79.074 55.2106 79.118C55.5266 79.162 55.9066 79.15 56.3506 79.082V80ZM52.0126 74.402V73.52H56.3506V74.402H52.0126ZM60.1566 80.18C59.5126 80.18 58.9566 80.034 58.4886 79.742C58.0246 79.45 57.6666 79.046 57.4146 78.53C57.1626 78.014 57.0366 77.422 57.0366 76.754C57.0366 76.074 57.1646 75.478 57.4206 74.966C57.6766 74.454 58.0386 74.056 58.5066 73.772C58.9746 73.484 59.5246 73.34 60.1566 73.34C60.8046 73.34 61.3626 73.486 61.8306 73.778C62.2986 74.066 62.6566 74.468 62.9046 74.984C63.1566 75.496 63.2826 76.086 63.2826 76.754C63.2826 77.43 63.1566 78.026 62.9046 78.542C62.6526 79.054 62.2926 79.456 61.8246 79.748C61.3566 80.036 60.8006 80.18 60.1566 80.18ZM60.1566 79.166C60.8286 79.166 61.3286 78.942 61.6566 78.494C61.9846 78.046 62.1486 77.466 62.1486 76.754C62.1486 76.022 61.9826 75.44 61.6506 75.008C61.3186 74.572 60.8206 74.354 60.1566 74.354C59.7046 74.354 59.3326 74.456 59.0406 74.66C58.7486 74.864 58.5306 75.146 58.3866 75.506C58.2426 75.866 58.1706 76.282 58.1706 76.754C58.1706 77.482 58.3386 78.066 58.6746 78.506C59.0106 78.946 59.5046 79.166 60.1566 79.166Z" fill="#4C535F"/>
<path fill-rule="evenodd" clip-rule="evenodd" d="M38.9999 7.75839C39.74 7.26392 40.61 7 41.5 7C42.0714 7 42.5346 7.46322 42.5346 8.03464C42.5346 8.60606 42.0714 9.06928 41.5 9.06928C41.0193 9.06928 40.5493 9.21184 40.1496 9.47893C39.7498 9.74602 39.4383 10.1256 39.2543 10.5698C39.0703 11.014 39.0222 11.5027 39.116 11.9742C39.2098 12.4457 39.4413 12.8788 39.7812 13.2188C40.1212 13.5587 40.5543 13.7902 41.0258 13.884C41.4973 13.9778 41.986 13.9297 42.4302 13.7457C42.8744 13.5617 43.254 13.2502 43.5211 12.8504C43.7882 12.4507 43.9307 11.9807 43.9307 11.5C43.9307 10.9286 44.3939 10.4654 44.9654 10.4654C45.5368 10.4654 46 10.9286 46 11.5C46 12.39 45.7361 13.26 45.2416 14.0001C44.7471 14.7401 44.0443 15.3169 43.2221 15.6575C42.3998 15.998 41.495 16.0872 40.6221 15.9135C39.7492 15.7399 38.9474 15.3113 38.318 14.682C37.6887 14.0526 37.2601 13.2508 37.0865 12.3779C36.9128 11.505 37.0019 10.6002 37.3425 9.77792C37.6831 8.95566 38.2599 8.25285 38.9999 7.75839Z" fill="#8D98AA"/>
<path fill-rule="evenodd" clip-rule="evenodd" d="M63.9802 13C64.5434 13 65 13.4661 65 14.041V22.7574C65 27.2164 64.1375 30.6085 61.9439 32.8604C59.7489 35.1136 56.4407 36 52.094 36H41.906C37.5606 36 34.2526 35.114 32.0572 32.861C29.8632 30.6094 29 27.2173 29 22.7574V19.2528C29 18.6779 29.4566 18.2118 30.0198 18.2118C30.5829 18.2118 31.0395 18.6779 31.0395 19.2528V22.7574C31.0395 27.014 31.8759 29.7227 33.5032 31.3928C35.1292 33.0615 37.7643 33.9181 41.906 33.9181H52.094C56.2371 33.9181 58.8721 33.0611 60.4977 31.3923C62.1248 29.7221 62.9605 27.0134 62.9605 22.7574V14.041C62.9605 13.4661 63.4171 13 63.9802 13Z" fill="#8D98AA"/>
<path fill-rule="evenodd" clip-rule="evenodd" d="M32.0997 3.07527C34.3242 0.868234 37.6763 0 42.0827 0H48.9716C49.5396 0 50 0.456808 50 1.02031C50 1.58381 49.5396 2.04062 48.9716 2.04062H42.0827C37.8792 2.04062 35.2042 2.88106 33.5541 4.51821C31.9039 6.15535 31.0568 8.80935 31.0568 12.9797C31.0568 13.5432 30.5964 14 30.0284 14C29.4604 14 29 13.5432 29 12.9797C29 8.60801 29.8751 5.28231 32.0997 3.07527Z" fill="#8D98AA"/>
<path fill-rule="evenodd" clip-rule="evenodd" d="M52 6C52 5.44772 52.4792 5 53.0704 5H62.9296C63.5208 5 64 5.44772 64 6C64 6.55228 63.5208 7 62.9296 7H53.0704C52.4792 7 52 6.55228 52 6Z" fill="#8D98AA"/>
<path fill-rule="evenodd" clip-rule="evenodd" d="M58 0C58.5523 0 59 0.479239 59 1.07041V10.9296C59 11.5208 58.5523 12 58 12C57.4477 12 57 11.5208 57 10.9296V1.07041C57 0.479239 57.4477 0 58 0Z" fill="#8D98AA"/>
<path fill-rule="evenodd" clip-rule="evenodd" d="M57.0496 19.675L49.9723 25.8014L49.9535 25.8173C49.0931 26.5267 48.0135 26.9145 46.8993 26.9145C45.7851 26.9145 44.7055 26.5267 43.8451 25.8173C43.8358 25.8096 43.8267 25.8018 43.8177 25.7939L43.2713 25.3101C42.8139 24.941 42.2519 24.7253 41.6651 24.694C41.0746 24.6624 40.4894 24.8191 39.9934 25.1414L31.5972 30.8241C31.1286 31.1413 30.492 31.0177 30.1755 30.5481C29.859 30.0784 29.9823 29.4405 30.451 29.1233L38.8681 23.4264C39.7295 22.8634 40.7473 22.5897 41.7741 22.6445C42.801 22.6994 43.7839 23.0802 44.5806 23.7318C44.5909 23.7402 44.6011 23.7489 44.6111 23.7578L45.1591 24.2429C45.6508 24.6434 46.2653 24.8622 46.8993 24.8622C47.5351 24.8622 48.1512 24.6422 48.6436 24.2396L55.7209 18.1131L55.7397 18.0972C56.6002 17.3878 57.6797 17 58.7939 17C59.9081 17 60.9877 17.3878 61.8481 18.0972L61.867 18.1132L64.6454 20.5185C65.0734 20.889 65.1206 21.537 64.7509 21.9659C64.3812 22.3947 63.7345 22.4421 63.3066 22.0716L60.5382 19.6749C60.0458 19.2723 59.4297 19.0523 58.7939 19.0523C58.1582 19.0523 57.5421 19.2723 57.0496 19.675Z" fill="#8D98AA"/>
</svg>
