<svg width="75" height="75" viewBox="0 0 75 75" fill="none" xmlns="http://www.w3.org/2000/svg">
<path d="M30.5718 12C33.651 6.66667 41.349 6.66667 44.4282 12L63.0477 44.25C66.1269 49.5833 62.2779 56.25 56.1195 56.25H18.8805C12.7221 56.25 8.87305 49.5833 11.9523 44.25L30.5718 12Z" fill="#D90707"/>
<path d="M39.2102 18.9091L38.8409 39.6335H34.9062L34.5369 18.9091H39.2102ZM36.8807 48.2699C36.0947 48.2699 35.4223 47.9953 34.8636 47.446C34.3049 46.8873 34.0303 46.215 34.0398 45.429C34.0303 44.6525 34.3049 43.9896 34.8636 43.4403C35.4223 42.8816 36.0947 42.6023 36.8807 42.6023C37.6477 42.6023 38.3106 42.8816 38.8693 43.4403C39.428 43.9896 39.7121 44.6525 39.7216 45.429C39.7121 45.9498 39.5748 46.428 39.3097 46.8636C39.054 47.2898 38.7131 47.6307 38.2869 47.8864C37.8608 48.142 37.392 48.2699 36.8807 48.2699Z" fill="white"/>
</svg>
