<svg width="44" height="44" viewBox="0 0 44 44" fill="none" xmlns="http://www.w3.org/2000/svg">
<path d="M24.5 6.76729L24.5007 6.7687L27.7246 13.2165C27.7251 13.2175 27.7256 13.2184 27.726 13.2194C28.0135 13.8048 28.5101 14.3305 29.0483 14.7276C29.5878 15.1257 30.2369 15.4445 30.8782 15.5514L30.8786 15.5515L36.7265 16.5231C38.4672 16.8132 39.2845 17.5433 39.5114 18.2495C39.7379 18.9539 39.5 20.0193 38.2463 21.2645L38.2445 21.2663L33.6978 25.813C33.2004 26.3103 32.8494 26.9977 32.6523 27.686C32.4552 28.3747 32.3899 29.1424 32.543 29.8256L32.543 29.8257L32.5441 29.8306L33.8457 35.4584C34.3444 37.6226 33.9249 38.7392 33.3578 39.1526C32.7894 39.567 31.5933 39.6256 29.6779 38.4942L24.1972 35.2497C24.1971 35.2497 24.197 35.2496 24.1969 35.2496C23.558 34.871 22.7618 34.7049 22.0067 34.7049C21.2509 34.7049 20.4528 34.8713 19.8077 35.2467L19.8077 35.2467L19.8028 35.2496L14.3211 38.4946L14.3204 38.495C12.4179 39.6241 11.2208 39.5632 10.649 39.146C10.0777 38.7291 9.6561 37.6101 10.1539 35.459L10.1539 35.4589L11.4555 29.8306L11.4556 29.8306L11.4567 29.8256C11.6098 29.1424 11.5445 28.3747 11.3473 27.686C11.1503 26.9977 10.7992 26.3103 10.3018 25.813L5.75516 21.2663C4.50983 20.021 4.27002 18.9543 4.49554 18.2481C4.72083 17.5426 5.53324 16.8131 7.27313 16.5231L13.1211 15.5515L13.1237 15.551C13.7567 15.4436 14.4009 15.1239 14.9367 14.7266C15.4716 14.33 15.9679 13.8046 16.2553 13.2195L19.48 6.7701C19.48 6.76991 19.4801 6.76971 19.4802 6.76952C20.306 5.12697 21.261 4.55704 21.9975 4.55704C22.7328 4.55704 23.6833 5.12544 24.5 6.76729Z" fill="#FABF35" stroke="#FABF35" stroke-width="1.5" stroke-linecap="round" stroke-linejoin="round"/>
<path d="M17.8193 21.1174C18.507 21.1174 19.0645 20.5599 19.0645 19.8722C19.0645 19.1844 18.507 18.627 17.8193 18.627C17.1316 18.627 16.5741 19.1844 16.5741 19.8722C16.5741 20.5599 17.1316 21.1174 17.8193 21.1174Z" fill="#BB8300"/>
<path d="M26.2744 21.1174C26.9621 21.1174 27.5196 20.5599 27.5196 19.8722C27.5196 19.1844 26.9621 18.627 26.2744 18.627C25.5867 18.627 25.0292 19.1844 25.0292 19.8722C25.0292 20.5599 25.5867 21.1174 26.2744 21.1174Z" fill="#BB8300"/>
<path d="M26.8643 26.3556C26.8589 26.3781 26.8576 26.3866 26.8554 26.3981L26.8495 26.4293L26.8387 26.4857C26.8311 26.5224 26.823 26.5561 26.8149 26.5907C26.7987 26.6582 26.7791 26.7238 26.7596 26.7888C26.7185 26.9161 26.6702 27.0409 26.615 27.1627C26.5044 27.4055 26.3687 27.636 26.2103 27.8507C25.8871 28.2822 25.4856 28.6491 25.0268 28.9323C24.7995 29.0712 24.5617 29.1923 24.3157 29.2943C24.0736 29.393 23.8247 29.4738 23.5708 29.536C23.0799 29.6554 22.5766 29.7158 22.0714 29.7159C21.5726 29.7211 21.0748 29.6698 20.5875 29.563L20.4011 29.5194C20.3391 29.5052 20.277 29.4848 20.2154 29.4677C20.1538 29.4506 20.0918 29.4335 20.0304 29.411L19.8465 29.3467C19.5999 29.2558 19.3607 29.1458 19.1313 29.0176C18.8987 28.8878 18.6778 28.7384 18.4708 28.5708C18.2636 28.401 18.0727 28.2122 17.9006 28.0069C17.8577 27.9557 17.8174 27.9017 17.7765 27.8496C17.7356 27.7974 17.6973 27.7416 17.6603 27.6861C17.5859 27.5748 17.5177 27.4595 17.4559 27.3408C17.3931 27.2213 17.3379 27.0981 17.2904 26.9718C17.2679 26.9078 17.2443 26.8426 17.2243 26.7749C17.2144 26.7398 17.2047 26.7074 17.1953 26.6694L17.1816 26.6125L17.1742 26.5811C17.1712 26.5687 17.1699 26.5615 17.1629 26.5372C17.1028 26.3675 17.1127 26.1808 17.1902 26.0183C17.2678 25.8558 17.4067 25.7307 17.5765 25.6706C17.7463 25.6105 17.9329 25.6204 18.0955 25.6979C18.258 25.7755 18.383 25.9144 18.4431 26.0842C18.4409 26.0725 18.4445 26.0775 18.4463 26.0777C18.4481 26.0779 18.4512 26.0808 18.4539 26.0831C18.4566 26.0853 18.4654 26.0927 18.4721 26.0993L18.5108 26.1379C18.5384 26.1654 18.5661 26.1939 18.5955 26.2218C18.6529 26.2787 18.7151 26.3342 18.7772 26.3877C18.9013 26.494 19.0325 26.5917 19.17 26.68C19.3054 26.7675 19.4461 26.8464 19.5913 26.9163C19.7372 26.9848 19.8867 27.0454 20.0392 27.0977C20.1941 27.1508 20.3517 27.1959 20.5113 27.2326C20.5929 27.2499 20.6732 27.2691 20.7571 27.2823C20.7986 27.2895 20.8389 27.2985 20.8814 27.3048L21.008 27.3232C21.3572 27.3701 21.7092 27.3921 22.0615 27.3891C22.4078 27.3898 22.7536 27.3634 23.0957 27.31C23.2582 27.2845 23.4193 27.2509 23.5785 27.2092C23.7347 27.1677 23.886 27.1171 24.0351 27.0613C24.332 26.9448 24.6128 26.7908 24.8705 26.6029C25.0028 26.5052 25.1286 26.3991 25.2471 26.2852C25.306 26.227 25.3654 26.1676 25.4207 26.1067L25.4621 26.0617L25.5016 26.0167L25.539 25.9745C25.5457 25.9673 25.5511 25.9619 25.5565 25.9565C25.5586 25.9539 25.5612 25.9517 25.5641 25.95C25.5664 25.95 25.5695 25.9448 25.568 25.9549C25.5943 25.8697 25.6371 25.7905 25.694 25.7219C25.7509 25.6532 25.8208 25.5964 25.8997 25.5548C25.9785 25.5131 26.0648 25.4874 26.1536 25.4791C26.2424 25.4708 26.3319 25.4801 26.4172 25.5064C26.5024 25.5327 26.5816 25.5755 26.6502 25.6324C26.7189 25.6894 26.7756 25.7592 26.8173 25.8381C26.8589 25.9169 26.8847 26.0032 26.893 26.092C26.9013 26.1808 26.892 26.2704 26.8657 26.3556H26.8643Z" fill="#BB8300"/>
</svg>
