<svg width="44" height="44" viewBox="0 0 44 44" fill="none" xmlns="http://www.w3.org/2000/svg">
<path d="M24.5 6.76729L24.5007 6.7687L27.7246 13.2165C27.7251 13.2175 27.7256 13.2186 27.7261 13.2196C28.0136 13.8049 28.5102 14.3306 29.0483 14.7276C29.5878 15.1257 30.2369 15.4445 30.8782 15.5514L30.8786 15.5515L36.7265 16.5231C38.4672 16.8132 39.2845 17.5433 39.5114 18.2495C39.7379 18.9539 39.5 20.0193 38.2463 21.2645L38.2445 21.2663L33.6978 25.813C33.2004 26.3103 32.8494 26.9977 32.6523 27.686C32.4552 28.3747 32.3899 29.1424 32.543 29.8257L32.543 29.8257L32.5441 29.8306L33.8457 35.4584C34.3444 37.6226 33.9249 38.7393 33.3578 39.1527C32.7894 39.567 31.5933 39.6256 29.6779 38.4942L24.1972 35.2497C23.5582 34.8711 22.7619 34.705 22.0067 34.705C21.2509 34.705 20.4528 34.8713 19.8077 35.2467L19.8077 35.2467L19.8028 35.2496L14.3211 38.4946L14.3204 38.495C12.4179 39.6241 11.2208 39.5632 10.649 39.146C10.0777 38.7291 9.6561 37.6101 10.1539 35.459L10.1539 35.4589L11.4555 29.8306L11.4556 29.8306L11.4567 29.8257C11.6098 29.1424 11.5445 28.3747 11.3473 27.686C11.1503 26.9977 10.7992 26.3103 10.3018 25.813L5.75516 21.2663C4.50983 20.021 4.27002 18.9543 4.49554 18.2481C4.72083 17.5426 5.53324 16.8131 7.27313 16.5231L13.1211 15.5515L13.1237 15.551C13.7567 15.4436 14.4009 15.1239 14.9367 14.7266C15.4716 14.33 15.9679 13.8046 16.2553 13.2195L19.48 6.7701C19.4801 6.76989 19.4802 6.76968 19.4803 6.76947C20.306 5.12696 21.261 4.55704 21.9975 4.55704C22.7328 4.55704 23.6833 5.12544 24.5 6.76729Z" fill="#FABF35" stroke="#FABF35" stroke-width="1.5" stroke-linecap="round" stroke-linejoin="round"/>
<path d="M17.9969 20.8886C18.6214 20.8886 19.1275 20.3823 19.1275 19.7578C19.1275 19.1332 18.6214 18.627 17.9969 18.627C17.3725 18.627 16.8663 19.1332 16.8663 19.7578C16.8663 20.3823 17.3725 20.8886 17.9969 20.8886Z" fill="#BB8300"/>
<path d="M25.9125 20.8886C26.5369 20.8886 27.0431 20.3823 27.0431 19.7578C27.0431 19.1332 26.5369 18.627 25.9125 18.627C25.2881 18.627 24.7819 19.1332 24.7819 19.7578C24.7819 20.3823 25.2881 20.8886 25.9125 20.8886Z" fill="#BB8300"/>
<path d="M17.4959 29.715C17.1655 29.7062 16.9717 29.3886 16.9717 28.5331C16.9717 25.692 21.1387 25.6036 21.9485 25.6133C22.7242 25.6026 26.9388 25.6764 26.9388 28.5329C26.9388 29.3621 26.7567 29.686 26.4446 29.7131" fill="#BB8300"/>
</svg>
