<svg width="44" height="44" viewBox="0 0 44 44" fill="none" xmlns="http://www.w3.org/2000/svg">
<path d="M24.5 6.76729L24.5007 6.7687L27.7246 13.2165C27.7251 13.2175 27.7256 13.2186 27.7261 13.2196C28.0136 13.8049 28.5102 14.3306 29.0483 14.7276C29.5878 15.1257 30.2369 15.4445 30.8782 15.5514L30.8786 15.5515L36.7265 16.5231C38.4672 16.8132 39.2845 17.5433 39.5114 18.2495C39.7379 18.9539 39.5 20.0193 38.2463 21.2645L38.2445 21.2663L33.6978 25.813C33.2004 26.3103 32.8494 26.9977 32.6523 27.686C32.4552 28.3747 32.3899 29.1424 32.543 29.8257L32.543 29.8257L32.5441 29.8306L33.8457 35.4584C34.3444 37.6226 33.9249 38.7393 33.3578 39.1527C32.7894 39.567 31.5933 39.6256 29.6779 38.4942L24.1972 35.2497C23.5582 34.8711 22.7619 34.705 22.0067 34.705C21.2509 34.705 20.4528 34.8713 19.8077 35.2467L19.8077 35.2467L19.8028 35.2496L14.3211 38.4946L14.3204 38.495C12.4179 39.6241 11.2208 39.5632 10.649 39.146C10.0777 38.7291 9.6561 37.6101 10.1539 35.459L10.1539 35.4589L11.4555 29.8306L11.4556 29.8306L11.4567 29.8257C11.6098 29.1424 11.5445 28.3747 11.3473 27.686C11.1503 26.9977 10.7992 26.3103 10.3018 25.813L5.75516 21.2663C4.50983 20.021 4.27002 18.9543 4.49554 18.2481C4.72083 17.5426 5.53324 16.8131 7.27313 16.5231L13.1211 15.5515L13.1237 15.551C13.7567 15.4436 14.4009 15.1239 14.9367 14.7266C15.4716 14.33 15.9679 13.8046 16.2553 13.2195L19.48 6.7701C19.4801 6.76989 19.4802 6.76968 19.4803 6.76947C20.306 5.12696 21.261 4.55704 21.9975 4.55704C22.7328 4.55704 23.6833 5.12544 24.5 6.76729Z" fill="#FABF35" stroke="#FABF35" stroke-width="1.5" stroke-linecap="round" stroke-linejoin="round"/>
<path d="M17.232 21.1174C17.9197 21.1174 18.4772 20.5599 18.4772 19.8722C18.4772 19.1844 17.9197 18.627 17.232 18.627C16.5443 18.627 15.9868 19.1844 15.9868 19.8722C15.9868 20.5599 16.5443 21.1174 17.232 21.1174Z" fill="#BB8300"/>
<path d="M26.6964 21.1174C27.3841 21.1174 27.9416 20.5599 27.9416 19.8722C27.9416 19.1844 27.3841 18.627 26.6964 18.627C26.0087 18.627 25.4512 19.1844 25.4512 19.8722C25.4512 20.5599 26.0087 21.1174 26.6964 21.1174Z" fill="#BB8300"/>
<path d="M16.7457 27.9176C16.9667 27.8607 17.1874 27.8169 17.4083 27.7747C17.6293 27.7324 17.85 27.6979 18.071 27.6647C18.5126 27.5993 18.9543 27.5504 19.396 27.5087C20.2795 27.4284 21.1629 27.3911 22.0464 27.3848C22.93 27.3786 23.8133 27.4067 24.6967 27.4767C24.9176 27.4941 25.1383 27.5139 25.3593 27.5384C25.5802 27.5628 25.801 27.5887 26.0219 27.6181C26.2429 27.6476 26.4636 27.6821 26.6845 27.7216C26.9055 27.7611 27.1262 27.8034 27.3472 27.8585C27.5012 27.897 27.638 27.9859 27.7358 28.1111C27.8335 28.2363 27.8866 28.3906 27.8866 28.5494C27.8866 28.7082 27.8335 28.8625 27.7358 28.9877C27.638 29.1129 27.5012 29.2018 27.3472 29.2403C27.1262 29.2954 26.9052 29.3385 26.6845 29.3772C26.4638 29.416 26.2429 29.4495 26.0219 29.4807C25.801 29.5119 25.5802 29.5375 25.3593 29.5604C25.1383 29.5833 24.9176 29.6047 24.6967 29.6224C23.8133 29.6921 22.9298 29.7195 22.0464 29.714C21.1631 29.7084 20.2795 29.6707 19.396 29.5904C18.9543 29.5486 18.5126 29.4995 18.071 29.4344C17.85 29.4009 17.6291 29.3659 17.4083 29.3241C17.1876 29.2824 16.9667 29.2383 16.7457 29.1812C16.6057 29.145 16.4816 29.0633 16.3931 28.9489C16.3045 28.8346 16.2565 28.694 16.2565 28.5494C16.2565 28.4048 16.3045 28.2642 16.3931 28.1499C16.4816 28.0355 16.6057 27.9538 16.7457 27.9176Z" fill="#BB8300"/>
</svg>
