<svg width="44" height="44" viewBox="0 0 44 44" fill="none" xmlns="http://www.w3.org/2000/svg">
<path d="M24.5 6.76729L24.5007 6.7687L27.7246 13.2165C27.7251 13.2175 27.7256 13.2186 27.7261 13.2196C28.0136 13.8049 28.5102 14.3306 29.0483 14.7276C29.5878 15.1257 30.2369 15.4445 30.8782 15.5514L30.8786 15.5515L36.7265 16.5231C38.4672 16.8132 39.2845 17.5433 39.5114 18.2495C39.7379 18.9539 39.5 20.0193 38.2463 21.2645L38.2445 21.2663L33.6978 25.813C33.2004 26.3103 32.8494 26.9977 32.6523 27.686C32.4552 28.3747 32.3899 29.1424 32.543 29.8257L32.543 29.8257L32.5441 29.8306L33.8457 35.4584C34.3444 37.6226 33.9249 38.7393 33.3578 39.1527C32.7894 39.567 31.5933 39.6256 29.6779 38.4942L24.1972 35.2497C23.5582 34.8711 22.7619 34.705 22.0067 34.705C21.2509 34.705 20.4528 34.8713 19.8077 35.2467L19.8077 35.2467L19.8028 35.2496L14.3211 38.4946L14.3204 38.495C12.4179 39.6241 11.2208 39.5632 10.649 39.146C10.0777 38.7291 9.6561 37.6101 10.1539 35.459L10.1539 35.4589L11.4555 29.8306L11.4556 29.8306L11.4567 29.8257C11.6098 29.1424 11.5445 28.3747 11.3473 27.686C11.1503 26.9977 10.7992 26.3103 10.3018 25.813L5.75516 21.2663C4.50983 20.021 4.27002 18.9543 4.49554 18.2481C4.72083 17.5426 5.53324 16.8131 7.27313 16.5231L13.1211 15.5515L13.1237 15.551C13.7567 15.4436 14.4009 15.1239 14.9367 14.7266C15.4716 14.33 15.9679 13.8046 16.2553 13.2195L19.48 6.7701C19.4801 6.76989 19.4802 6.76968 19.4803 6.76947C20.306 5.12696 21.261 4.55704 21.9975 4.55704C22.7328 4.55704 23.6833 5.12544 24.5 6.76729Z" fill="#FABF35" stroke="#FABF35" stroke-width="1.5" stroke-linecap="round" stroke-linejoin="round"/>
<path d="M17.6711 21.1174C18.3588 21.1174 18.9162 20.5599 18.9162 19.8722C18.9162 19.1844 18.3588 18.627 17.6711 18.627C16.9834 18.627 16.4259 19.1844 16.4259 19.8722C16.4259 20.5599 16.9834 21.1174 17.6711 21.1174Z" fill="#BB8300"/>
<path d="M26.3879 21.1174C27.0756 21.1174 27.633 20.5599 27.633 19.8722C27.633 19.1844 27.0756 18.627 26.3879 18.627C25.7002 18.627 25.1427 19.1844 25.1427 19.8722C25.1427 20.5599 25.7002 21.1174 26.3879 21.1174Z" fill="#BB8300"/>
<path d="M17.0233 28.8107C17.0286 28.7875 17.03 28.7787 17.0321 28.7671L17.0381 28.7351L17.049 28.6769C17.0564 28.6391 17.0645 28.6041 17.0722 28.5684C17.0886 28.4989 17.1083 28.431 17.1283 28.364C17.1696 28.2323 17.2184 28.1031 17.2743 27.9769C17.3868 27.7254 17.5251 27.4861 17.6869 27.263C18.017 26.8131 18.4293 26.4296 18.9019 26.1328C19.1363 25.9864 19.382 25.859 19.6367 25.7517C19.8872 25.6478 20.1452 25.5625 20.4083 25.4968C20.9173 25.3706 21.4397 25.3064 21.9641 25.3058C22.4816 25.3001 22.998 25.3541 23.5032 25.4666L23.6965 25.513C23.7607 25.5283 23.8249 25.5494 23.8891 25.5675C24.0173 25.6027 24.1441 25.6493 24.2711 25.6947C24.5264 25.7902 24.7738 25.9058 25.0107 26.0405C25.2508 26.1768 25.4787 26.3335 25.6917 26.509C25.905 26.6862 26.1009 26.8832 26.2768 27.0975C26.4521 27.3115 26.6042 27.5436 26.7304 27.7899C26.7941 27.9137 26.8502 28.0414 26.8984 28.1721C26.9216 28.2384 26.9448 28.3058 26.9652 28.3758C26.9751 28.4118 26.9849 28.4454 26.9944 28.4845L27.0081 28.5432L27.0155 28.5756C27.0185 28.5881 27.0199 28.5958 27.0268 28.6204C27.0603 28.7078 27.0759 28.8011 27.0726 28.8947C27.0693 28.9883 27.0473 29.0803 27.0079 29.1653C26.9684 29.2502 26.9123 29.3264 26.8429 29.3893C26.7735 29.4521 26.6922 29.5004 26.6037 29.5313C26.5153 29.5622 26.4216 29.575 26.3281 29.569C26.2347 29.563 26.1434 29.5383 26.0596 29.4963C25.9759 29.4544 25.9014 29.3961 25.8406 29.3249C25.7798 29.2536 25.7339 29.1709 25.7056 29.0816C25.7077 29.0932 25.7042 29.0881 25.7022 29.0879C25.7001 29.0877 25.6971 29.0844 25.694 29.0821C25.691 29.0798 25.6825 29.0717 25.6755 29.0647L25.6354 29.0239C25.6069 28.9949 25.5784 28.965 25.548 28.9356C25.4891 28.876 25.4247 28.8178 25.361 28.7613C25.2333 28.6493 25.098 28.5463 24.9563 28.4528C24.8171 28.3604 24.6721 28.2773 24.5221 28.2038C24.3721 28.1316 24.2182 28.0676 24.0611 28.0121L23.9424 27.9716L23.821 27.9357C23.7816 27.9222 23.7396 27.9125 23.6983 27.9018C23.6571 27.8912 23.6172 27.8786 23.5748 27.8705C23.4907 27.8527 23.4081 27.832 23.3217 27.8181C23.2788 27.8105 23.2371 27.8012 23.1935 27.795L23.063 27.7757C22.7027 27.7261 22.3392 27.7029 21.9755 27.7062C21.2363 27.7097 20.5497 27.81 19.9422 28.0539C19.6357 28.1771 19.3465 28.3396 19.0818 28.5372C18.9453 28.64 18.8157 28.7517 18.6938 28.8714C18.6333 28.9324 18.5721 28.9947 18.5153 29.0587L18.4726 29.1064L18.4319 29.1528L18.3931 29.1973C18.3864 29.2047 18.3806 29.2105 18.3751 29.2163C18.3728 29.219 18.3701 29.2213 18.3672 29.2232C18.3649 29.2232 18.3616 29.2288 18.363 29.2188C18.3089 29.3965 18.1865 29.5454 18.0227 29.6327C17.8589 29.7201 17.667 29.7388 17.4894 29.6847C17.3118 29.6307 17.1629 29.5083 17.0755 29.3444C16.9881 29.1806 16.9694 28.9888 17.0235 28.8111L17.0233 28.8107Z" fill="#BB8300"/>
</svg>
